<?xml version="1.0" encoding="UTF-8"?>
<svg id="Layer_2" data-name="Layer 2" xmlns="http://www.w3.org/2000/svg" xmlns:xlink="http://www.w3.org/1999/xlink" viewBox="0 0 142.29 358.24">
  <defs>
    <style>
      .cls-1 {
        fill: #9aa255;
      }

      .cls-2 {
        fill: #788448;
      }

      .cls-3 {
        stroke: #bbb;
        stroke-width: 3.5px;
      }

      .cls-3, .cls-4, .cls-5, .cls-6, .cls-7, .cls-8 {
        fill: none;
      }

      .cls-3, .cls-4, .cls-8 {
        stroke-linecap: round;
        stroke-linejoin: round;
      }

      .cls-9 {
        opacity: .6;
      }

      .cls-10 {
        fill: url(#New_Pattern);
      }

      .cls-10, .cls-11, .cls-12, .cls-13 {
        fill-rule: evenodd;
      }

      .cls-14 {
        fill: #fff;
      }

      .cls-15 {
        fill: blue;
      }

      .cls-4 {
        stroke-width: 2.3px;
      }

      .cls-4, .cls-6 {
        stroke: #fff;
      }

      .cls-6 {
        stroke-miterlimit: 10;
        stroke-width: 1.12px;
      }

      .cls-16 {
        fill: #8d954b;
      }

      .cls-17 {
        fill: #8c984e;
      }

      .cls-11 {
        fill: #ffedcb;
      }

      .cls-18 {
        fill: #666;
      }

      .cls-7 {
        clip-rule: evenodd;
      }

      .cls-12 {
        fill: #a9b05c;
      }

      .cls-8 {
        stroke: #8f8f8f;
        stroke-width: 10px;
      }

      .cls-13 {
        fill: #5f6e38;
      }

      .cls-19 {
        clip-path: url(#clippath);
      }

      .cls-20 {
        fill: #858c48;
      }
    </style>
    <pattern id="New_Pattern" data-name="New Pattern" x="0" y="0" width="24" height="24" patternTransform="translate(-1819.24 1329.26)" patternUnits="userSpaceOnUse" viewBox="0 0 24 24">
      <g>
        <rect class="cls-5" width="24" height="24"/>
        <rect class="cls-1" width="12" height="12"/>
        <rect class="cls-16" x="12" width="12" height="12"/>
        <rect class="cls-20" x="12" y="12" width="12" height="12"/>
        <rect class="cls-17" y="12" width="12" height="12"/>
      </g>
    </pattern>
    <clipPath id="clippath">
      <polygon class="cls-7" points="25.93 358.24 49.6 351.21 95.03 299.79 120.66 230.09 140.32 127.99 142.29 70.83 132.98 29.14 109.94 4.82 86.28 0 59.73 7.04 44.84 28.61 35.15 81.34 30 146.38 19.96 243.78 12.5 306.45 0 332.31 7.32 355.82 24.35 358.04 25.93 358.24"/>
    </clipPath>
  </defs>
  <g id="Layer_1-2" data-name="Layer 1">
    <g id="Hole-1">
      <polygon class="cls-13" points="25.93 358.24 49.6 351.21 95.03 299.79 120.66 230.09 140.32 127.99 142.29 70.83 132.98 29.14 109.94 4.82 86.28 0 59.73 7.04 44.84 28.61 35.15 81.34 30 146.38 19.96 243.78 12.5 306.45 0 332.31 7.32 355.82 24.35 358.04 25.93 358.24"/>
      <path class="cls-10" d="M112.01,115.99l-2.06-19.36-1.29-6.19,1.03-6.71-.77-8.52-4.39-7.48-6.19-7.47-7.73-8.64-.99,2.46-.7,1.14-1.32,1.05-1.78.58-2,.3-2.4-1.09-1.04-1.89-.79-2.2-.52,4.7-.69,3.71-1.47,4.51-2.06,18.57,3.36,13.42.26,8.25,1.54,8.26,1.29,6.7-2.84,15.48,2.58,9.55,2.58,8.78-10.32,33.28-8,26.57-13.68,45.15-.25,4.14,2.32,5.41,5.42,4.39,8.26.26,9.04-6.45,2.84-7.75,2.58-11.61.52-11.36,1.03-7.47,3.35-9.55,7.74-9.81,6.71-6.45,4.91-6.19,1.55-6.45v-14.2l2.58-8.52-1.29-7.22-3.1-12.12-.51-9.54,3.09-8,3.1-6.2.52-8.25Z"/>
      <g>
        <polygon class="cls-12" points="80.7 56.84 79.47 54.59 78.62 52.23 78.13 48.8 77.46 46.11 76.9 44.18 75.7 42.56 74.83 41.18 73.93 38.91 72.31 35.45 71.95 33.36 72.61 31.63 74.13 29.51 76.03 28.41 77.8 27.69 79.86 27.61 81.49 27.78 83.81 27.97 86.36 29.77 87.38 31.84 88.72 32.61 91.54 33.63 94.5 35.02 96.21 36.16 98.11 37.38 99.87 39.27 100.6 41.7 100.33 44.21 98.47 45.46 97.72 46.44 95.49 48.22 94.48 49.31 92.97 50.67 91.46 52.19 90.51 54.54 89.67 55.91 88.07 57.18 86.05 57.85 83.67 58.2 80.7 56.84"/>
        <path class="cls-2" d="M79.82,28.61l1.57.16,2.07.17,2.11,1.5,1.05,2.11,1.68.96,2.9,1.05,2.81,1.32,1.65,1.1,1.8,1.16,1.52,1.63.6,2.02-.2,1.84-1.62,1.08-.77,1.02-2.2,1.75-1.05,1.14-1.45,1.29-1.7,1.7-.99,2.46-.7,1.14-1.32,1.05-1.78.58-2,.3-2.4-1.09-1.04-1.89-.79-2.2-.48-3.32-.68-2.79-.62-2.14-1.31-1.77-.77-1.24-.87-2.18-.89-1.91-.69-1.48-.29-1.69.52-1.36,1.31-1.84,1.66-.95,1.54-.63,1.81-.07M79.89,26.61h-.14s-1.81.07-1.81.07h-.35s-.33.15-.33.15l-1.54.63-.12.05-.12.07-1.66.95-.38.22-.25.36-1.31,1.84-.15.21-.09.24-.52,1.36-.2.51.09.54.29,1.69.05.26.11.24.69,1.48.87,1.86.85,2.13.07.17.1.15.77,1.24.04.07.05.06,1.1,1.48.51,1.76.65,2.65.47,3.22.03.2.07.19.79,2.2.05.15.07.14,1.04,1.89.32.58.61.28,2.4,1.09.54.25.59-.09,2-.3.17-.02.16-.05,1.78-.58.34-.11.28-.22,1.32-1.05.28-.22.18-.3.7-1.14.09-.14.06-.15.84-2.09,1.37-1.37,1.4-1.26.07-.06.07-.07.95-1.03,2.08-1.66.19-.16.15-.2.57-.75,1.34-.89.78-.52.1-.93.2-1.84.04-.4-.11-.38-.6-2.02-.13-.45-.32-.34-1.52-1.63-.17-.18-.21-.14-1.8-1.16-1.62-1.08-.12-.08-.13-.06-2.81-1.32-.08-.04-.09-.03-2.74-.99-1-.58-.78-1.57-.22-.45-.41-.29-2.11-1.5-.45-.32-.55-.04-2.07-.17-1.52-.16h-.14Z"/>
      </g>
      <path class="cls-12" d="M40.11,306.91l-4.89-2.38-5.04,13.64,4.74,2.22,5.19-13.48Z"/>
      <path class="cls-11" d="M99.99,27.36l-.62-.7h-1.01l-.77-.23-.46-.62-.32-1.32-.22-.62-.79-.81-1.01-.33-.85.58-1.23.59-.71-.11-1.01-.78-.7-.62-.45-.85-1-.23-.88.46-1.23,1.11-.15,1.13.24,1.8,1.18,1.27,1.55,1.03,2.13,1.18,1.49.63,1.45.34,1.82.13,1.23.09,1.61-.9.71-1.06v-1.16Z"/>
      <path class="cls-12" d="M33.74,323.35l-4.89-2.36-4.74,12.14,4.74,2.22,4.89-12Z"/>
      <path class="cls-11" d="M80.31,153.6l-1.01-1-.27-.69.1-.64.34-.87.25-1.18v-.88l-.3-.93-.83-.5-1.12-.54-1.12.15-.93.29-.88.88-.39,1.32.1,1.46.59,1.12-.34.93-.14.78v1.12l.2.93.54.93.68.74.83.39,1.02.22,1.01-.79,1.35-1.02.34-1.01v-1.24Z"/>
      <path class="cls-12" d="M27.82,338.32l-5.04-2.36-2.82,7.11,5.48,2.22,2.38-6.96Z"/>
      <path class="cls-11" d="M77.42,52.24l-.06-.98-.52-1.29-.82-.41-.42-.82-.41-.62-.42-.41-.2-.83v-.62l.07-.54.07-.89v-.96l-.28-.48-.48-.41-.62-.2-.89-.07-1.03.21-.76.55-.41.96-.07,1.16.2.82.55.68.41.62.48.48.34.55.41.89.21,1.02.2.89.41,1.09.55.62,1.09.27,1.23.14.62-.27.51-1.16Z"/>
      <path class="cls-11" d="M103.06,50.48l-.29-.89-.42-.62-.61-.19-.57.05-.76.05-.94,1-.38.99-.33.38-.62.42-.9.33-1.09.43-.71.47-.42.85v1.23l1.09.47.99.19,2.64-.19.19-.38.84-.38.61-.39.53-.56.52-.95.19-.52.42-.95v-.85Z"/>
      <path class="cls-3" d="M26.92,351.21l1.04-5.93.45-1.18v-1.33l1.34-5.48,1.19-3.55,9.48-24.61.73-2.96-.44-2.07-3.7-7.41.44-2.81,5.34-14.38-.15-3.11-.89-4.3.15-7.26,3.26-10.37,3.86-12.3.44-10.81,1.93-13.2,2.96-8.74,3.55-9.63,2.52-11.41,1.18-11.71,2.38-11.26-.3-2.66-.14-9.64v-15.12l-2.38-10.96.3-10.82.3-2.22v-1.77l2.07-4.44,8.45-35.42v-2.37l-5.04-14.83-2.37-5.18-2.07-5.34-.3-3.25-1.78-16.3-.74-6.08"/>
      <path class="cls-4" d="M26.92,351.21l1.04-5.93.45-1.18v-1.33l1.34-5.48,1.19-3.55,9.48-24.61.73-2.96-.44-2.07-3.7-7.41.44-2.81,5.34-14.38-.15-3.11-.89-4.3.15-7.26,3.26-10.37,3.86-12.3.44-10.81,1.93-13.2,2.96-8.74,3.55-9.63,2.52-11.41,1.18-11.71,2.38-11.26-.3-2.66-.14-9.64v-15.12l-2.38-10.96.3-10.82.3-2.22v-1.77l2.07-4.44,8.45-35.42v-2.37l-5.04-14.83-2.37-5.18-2.07-5.34-.3-3.25-1.78-16.3-.74-6.08"/>
      <g>
        <path class="cls-18" d="M93.26,166.3h-.95s.02-5.48.02-5.48c0-.31.01-.57.02-.76.01-.19.03-.39.05-.59-.11.11-.22.21-.32.3-.09.08-.21.19-.36.31l-.84.67-.51-.64,2.14-1.68h.79s-.03,7.87-.03,7.87Z"/>
        <g class="cls-9">
          <path class="cls-14" d="M92.49,158.43h.79s-.03,7.87-.03,7.87h-.95s.02-5.48.02-5.48c0-.31.01-.57.02-.76.01-.19.03-.39.05-.59-.11.11-.22.21-.32.3-.09.08-.21.19-.36.31l-.84.67-.51-.64,2.14-1.68M92.49,157.43c-.22,0-.44.07-.62.21l-2.14,1.68c-.21.16-.34.41-.38.67s.04.53.21.74l.51.64c.17.21.41.34.67.37.04,0,.08,0,.11,0,.16,0,.32-.04.46-.11v4.67c-.01.27.09.52.28.71.19.19.44.29.7.29,0,0,0,0,.01,0h.95c.55-.02.99-.46.99-1.01l.03-7.87c0-.55-.44-1-1-1h-.79s0,0,0,0h0Z"/>
        </g>
      </g>
      <path class="cls-14" d="M128.89,78.3v8.08h-1.14l-2.59-4.09c-.6-.95-1.07-1.8-1.45-2.63h-.02c.1,1.09.12,2.08.12,3.33v3.38h-.98v-8.08h1.06l2.57,4.1c.56.9,1.1,1.82,1.51,2.7h.04c-.06-1.03-.08-2-.08-3.35v-3.45h.98Z"/>
      <g>
        <line class="cls-6" x1="125.85" y1="90" x2="125.85" y2="98.71"/>
        <polygon class="cls-14" points="123.61 98.06 125.85 101.93 128.08 98.06 123.61 98.06"/>
      </g>
      <g>
        <rect x="22.42" y="339.68" width=".78" height=".78" transform="translate(134.82 18.17) rotate(23.02)"/>
        <rect x="25.03" y="340.79" width=".78" height=".78" transform="translate(135.46 17.24) rotate(23.02)"/>
      </g>
      <g>
        <rect class="cls-15" x="26.99" y="327.07" width=".78" height=".78" transform="translate(130.26 15.37) rotate(23.02)"/>
        <rect class="cls-15" x="29.6" y="328.18" width=".78" height=".78" transform="translate(130.9 14.44) rotate(23.02)"/>
      </g>
      <g>
        <rect class="cls-14" x="33.17" y="311.44" width=".78" height=".78" transform="translate(124.63 11.71) rotate(23.02)"/>
        <rect class="cls-14" x="35.78" y="312.55" width=".78" height=".78" transform="translate(125.28 10.78) rotate(23.02)"/>
      </g>
      <g class="cls-19">
        <path class="cls-8" d="M49.77-5.06l-9.33,91.14-4.52,44.07-1.32,10.66-7.93,81.54-1.05,9.1-4.86,40.48-.73,8.62-2.99,12.66-5.83,16.97-2.92,6.85-4.08,8.16-1.5,2.54-5.5,9.27-9.18,11.82"/>
      </g>
    </g>
  </g>
</svg>