<?xml version="1.0" encoding="UTF-8"?>
<svg id="Layer_2" data-name="Layer 2" xmlns="http://www.w3.org/2000/svg" xmlns:xlink="http://www.w3.org/1999/xlink" viewBox="0 0 111.83 367">
  <defs>
    <style>
      .cls-1 {
        fill: #9aa255;
      }

      .cls-2 {
        fill: #788448;
      }

      .cls-3 {
        stroke: #aad3df;
        stroke-width: 4px;
      }

      .cls-3, .cls-4, .cls-5, .cls-6, .cls-7, .cls-8, .cls-9 {
        fill: none;
      }

      .cls-3, .cls-4, .cls-7, .cls-8 {
        stroke-linecap: round;
      }

      .cls-3, .cls-9 {
        stroke-miterlimit: 10;
      }

      .cls-10 {
        fill: url(#New_Pattern);
      }

      .cls-10, .cls-11, .cls-12, .cls-13 {
        fill-rule: evenodd;
      }

      .cls-14 {
        fill: #fff;
      }

      .cls-4 {
        stroke-width: 4.6px;
      }

      .cls-4, .cls-8 {
        stroke-linejoin: round;
      }

      .cls-4, .cls-9 {
        stroke: #fff;
      }

      .cls-15 {
        fill: #8d954b;
      }

      .cls-16 {
        fill: #8c984e;
      }

      .cls-11 {
        fill: #ffedcb;
      }

      .cls-6 {
        clip-rule: evenodd;
      }

      .cls-7 {
        stroke: #231f20;
        stroke-miterlimit: 2;
        stroke-width: .3px;
      }

      .cls-12 {
        fill: #a9b05c;
      }

      .cls-8 {
        stroke: #bbb;
        stroke-width: 7px;
      }

      .cls-17 {
        fill: #ec1c24;
      }

      .cls-18 {
        fill: #06c;
      }

      .cls-13 {
        fill: #5f6e38;
      }

      .cls-9 {
        stroke-width: .95px;
      }

      .cls-19 {
        clip-path: url(#clippath);
      }

      .cls-20 {
        fill: #858c48;
      }
    </style>
    <clipPath id="clippath">
      <path class="cls-6" d="M35.84,366.97c-1.85-.07-21.38-1.13-28.74-14.43-3.09-5.58-2.86-11.18-2.74-13.34,1.79-33.08,2.69-49.61,8.09-73.54,9.08-40.24,4.29-75.76,0-107.57-3.72-27.63-8.4-43.89-10.95-54.01-4.17-16.51,1.58-50.24,2.93-62.39.58-5.24,10.83-24.63,27.28-35.37C49.43-5.25,73.73.41,86.99,12.57c8.4,7.71,11.35,17.1,13.08,23.08,12.7,43.8-1.78,113.06-1.8,115.01-.53,53.06-1.68,84.04-4.75,125.96-2.79,38.1-5.18,58.22-20.87,73.93-3.08,3.09-17.21,17.22-36.8,16.43Z"/>
    </clipPath>
    <pattern id="New_Pattern" data-name="New Pattern" x="0" y="0" width="24" height="24" patternTransform="translate(-1665.86 1230)" patternUnits="userSpaceOnUse" viewBox="0 0 24 24">
      <g>
        <rect class="cls-5" width="24" height="24"/>
        <rect class="cls-1" width="12" height="12"/>
        <rect class="cls-15" x="12" width="12" height="12"/>
        <rect class="cls-20" x="12" y="12" width="12" height="12"/>
        <rect class="cls-16" y="12" width="12" height="12"/>
      </g>
    </pattern>
  </defs>
  <g id="Hole_7" data-name="Hole 7">
    <g class="cls-19">
      <g>
        <path class="cls-13" d="M35.84,366.97c-1.85-.07-21.38-1.13-28.74-14.43-3.09-5.58-2.86-11.18-2.74-13.34,1.79-33.08,2.69-49.61,8.09-73.54,9.08-40.24,4.29-75.76,0-107.57-3.72-27.63-8.4-43.89-10.95-54.01-4.17-16.51,1.58-50.24,2.93-62.39.58-5.24,10.83-24.63,27.28-35.37C49.43-5.25,73.73.41,86.99,12.57c8.4,7.71,11.35,17.1,13.08,23.08,12.7,43.8-1.78,113.06-1.8,115.01-.53,53.06-1.68,84.04-4.75,125.96-2.79,38.1-5.18,58.22-20.87,73.93-3.08,3.09-17.21,17.22-36.8,16.43Z"/>
        <path class="cls-3" d="M78.41,113.37c1.42-7.48,4.77-19.79,13.56-32.41,6.06-8.71,12.74-14.74,17.86-18.65"/>
        <path class="cls-12" d="M41.76,223.05c-11.8,1.57-10.91,17.09-11.84,26.37-1.08,9.98-.76,20.69-2.66,30.78-1.46,9-2.6,16.77-3.65,26.33-.42,3.94-.88,8.69.17,12.34,1.76,7.22,10.64,9.27,16.42,5.17,5.84-3.34,7.04-11.07,7.39-17.38.51-9,.02-21.39.03-31.1-.22-9.47.63-18.18,1.64-28.62.89-7.76,4.03-22.6-7.18-23.89h-.32Z"/>
        <path class="cls-10" d="M31.92,136.57c.17,11.74-.29,17.65-.84,20.86,0,0-.98,5.69-.19,9.32.02.1.26,1.2.53,2.69,0,0,.05.35.12.71,2.05,9.41,4.97,18.79,8.37,27.97,2.79,6.42,9.19,5.18,11.02-1.38,2.02-9.28,2.12-19.67,8.31-27.79,2.83-4.66,7.47-8.12,11-12.2,1.64-1.9,2.18-4.32,2.38-7.24.28-4.24-1.44-6.91-4.36-13-1.45-3.02-3.4-7.81-5.53-13.33-4.93-4.76-12.02-6.07-18.33-4.02-7.29,2.37-12.37,9.39-12.47,17.41Z"/>
        <path class="cls-10" d="M63.62,94.24c-2.31,3.05-4.27,5.88-8.1,7.27-6.17,2.03-14.48,7.18-20.18,1.63-1.27-1.17-.45.2.1,1.26,1,1.25,3.38,4.6,3.73,9.5.45,6.31-2.79,10.76-3.65,11.87-.04,8.07,4.58,14.5,10.33,15.7,5.81,1.22,10.79-3.31,11.47-4.02,3.56-3.73,5.25-9.97,5.42-14.85.31-5.95-.03-12.69-.48-18.88-.03-.47.51-3.2,1.02-7.02.14-1.04.25-1.9.32-2.46Z"/>
        <g>
          <path class="cls-12" d="M41.87,108.52c-2.56-.09-5.07-1.13-7.48-3.08-6.68-5.47-9.74-11.35-9.12-17.49.83-6.04.99-11.19-.9-16.9l-.04-.11-.02-.11c-1.07-5.13-1.73-11.02,1.58-15.83,2.39-3.16,5.63-5,8.7-5,.3,0,.6.02.91.05l.38.03h.07c6.14,1,8.75,6.73,10.84,11.33.67,1.46,1.29,2.85,1.98,4.01,1.91,3.35,4.27,6.25,6.77,9.31,3.12,3.82,6.35,7.78,8.55,12.61,1.72,3.79,1.66,7.48-.19,10.67-4.07,7.03-15.59,9.9-21.76,10.49h-.13s-.13,0-.13,0Z"/>
          <path class="cls-2" d="M34.6,52c.23,0,.45.01.68.04l.35.03c6.77,1.09,8.44,9.33,11.42,14.37,4.43,7.79,11.46,13.44,15.22,21.73,5.44,11.99-11.06,17.46-20.32,18.35-2.35-.09-4.49-1.17-6.29-2.63-4.82-3.95-9.05-9.24-8.39-15.74.85-6.15,1.02-11.67-.99-17.73-.98-4.66-1.63-10.07,1.27-14.29,1.65-2.17,4.23-4.13,7.06-4.13M34.6,48c-3.7,0-7.53,2.14-10.24,5.71l-.06.08-.05.08c-3.73,5.43-3.04,11.83-1.88,17.37l.05.22.07.22c1.77,5.34,1.61,10.23.82,15.93v.07s-.02.07-.02.07c-.7,6.85,2.61,13.32,9.83,19.24,2.76,2.24,5.67,3.43,8.68,3.54h.26s.26-.02.26-.02c1.81-.17,17.79-1.96,23.3-11.48,1.52-2.63,2.8-6.93.28-12.5-2.3-5.07-5.62-9.13-8.82-13.05-2.45-3-4.76-5.83-6.57-9l-.02-.03-.02-.03c-.63-1.07-1.24-2.4-1.88-3.82-2.17-4.77-5.14-11.31-12.34-12.47l-.13-.02h-.13s-.32-.04-.32-.04c-.36-.04-.73-.06-1.09-.06h0Z"/>
        </g>
        <path class="cls-12" d="M54.1,332.17c-4.8-.19-10.2,2.12-15.06,3.22-4.53,1.16-9.06,1.73-13.79,2.22-2.69.36-5.86.85-7.83,2.24-4.08,2.7-3.79,9.8.98,11.65,1.71.75,3.91,1.02,5.87,1.02,5.29.18,11.91-1.43,18.35-2.62,6.52-1.48,17-2.29,18.29-10.24.38-3.89-2.47-7.3-6.47-7.46l-.35-.03Z"/>
        <path class="cls-11" d="M66.24,58.17c-1.73.56-2.61,2.32-2.86,4.06-.23,1.77-.62,3.32-2.52,3.67-1.7.27-3.83.15-4.41,1.48-.79,1.94,1.07,3.94,2.39,5.25,1.78,1.64,3.38,3.5,5.49,4.78,4.53,3.07,9.59,1.22,13.34-2.01,4.47-2.39,2.83-9.86-2.38-6.63-5.01,3.37-3.93-1.72-3.85-4.93.17-2.92-1.4-6.57-4.87-5.76l-.32.09Z"/>
        <path class="cls-11" d="M23.69,103.28c-3.88.34-6.21,7.14-2.07,9,1.46.8,3.2.96,4.7,1.63,1.46.75,3.27,1.2,4.6.14,2.51-2.09-.34-4.8-1.73-6.71-1.24-1.84-2.9-3.93-5.18-4.03l-.33-.02Z"/>
        <path class="cls-11" d="M16.52,74c-7.15,1.13-3.8,11.12,1.76,12.34,7.28.57,3.35-11.75-1.43-12.33h-.32Z"/>
        <path class="cls-8" d="M18.74,13.74c32.88,8.41,49.98,16.88,69.01,43.48,4.21,5.43,8.51,11.85,9.89,18.51,1.32,5.89-.14,11.52-1.64,17.13-1.44,5.18-2.85,10.41-3.62,15.76-5.43,30.38-.48,62.63-12.96,91.56-4.81,12.1-12.11,23.08-17.41,34.93-7.54,16.18-7.61,34.36-6.6,51.86,1.55,25.21,10.2,33.73,35.8,24.19"/>
        <g>
          <rect x="30.58" y="343.52" width="1.8" height="1.8"/>
          <rect x="37.11" y="343.52" width="1.8" height="1.8"/>
        </g>
        <g>
          <rect class="cls-18" x="32.58" y="297.37" width="1.8" height="1.8"/>
          <rect class="cls-18" x="39.1" y="297.37" width="1.8" height="1.8"/>
        </g>
        <g>
          <rect class="cls-14" x="34.94" y="250.67" width="1.8" height="1.8" transform="translate(4.38 -.59) rotate(1)"/>
          <rect class="cls-14" x="41.46" y="250.79" width="1.8" height="1.8" transform="translate(4.39 -.7) rotate(1)"/>
        </g>
        <path class="cls-14" d="M80.47,251.49v6.87h-.97l-2.2-3.47c-.51-.81-.91-1.53-1.23-2.23h-.02c.08.93.1,1.76.1,2.83v2.87h-.84v-6.87h.9l2.18,3.48c.48.76.94,1.55,1.28,2.29h.03c-.05-.88-.07-1.7-.07-2.84v-2.93h.84Z"/>
        <g>
          <line class="cls-9" x1="72.82" y1="263.95" x2="80.22" y2="264.08"/>
          <polygon class="cls-14" points="79.63 265.97 82.95 264.13 79.7 262.17 79.63 265.97"/>
        </g>
        <path class="cls-4" d="M18.74,13.74c32.79,8.38,49.97,16.85,68.92,43.31,4.13,5.32,8.39,11.57,9.81,18.1,1.6,6.86-.61,13.49-2.25,20.06-1.88,6.83-2.95,13.73-3.81,20.94-5.4,43.79,1.82,63.5-22.35,105.04-12.66,21.84-15.06,37-13.87,61.99,1.04,26.02,7.56,38.75,36.03,28"/>
      </g>
      <g>
        <line class="cls-7" x1="32.43" y1="67.14" x2="32.43" y2="60.34"/>
        <path class="cls-17" d="M35.75,62.64c-1.11-.69-2.22.69-3.32,0v-2.3c1.11.69,2.22-.69,3.32,0v2.3Z"/>
      </g>
    </g>
  </g>
</svg>