<?xml version="1.0" encoding="UTF-8"?>
<svg id="Layer_2" data-name="Layer 2" xmlns="http://www.w3.org/2000/svg" xmlns:xlink="http://www.w3.org/1999/xlink" viewBox="0 0 153.77 381.65">
  <defs>
    <style>
      .cls-1 {
        fill: #9aa255;
      }

      .cls-2 {
        fill: #788448;
      }

      .cls-3 {
        fill: url(#New_Pattern);
      }

      .cls-3, .cls-4, .cls-5, .cls-6 {
        fill-rule: evenodd;
      }

      .cls-7 {
        fill: #fff;
      }

      .cls-8 {
        stroke: #bbb;
        stroke-width: 8.51px;
      }

      .cls-8, .cls-9, .cls-10, .cls-11, .cls-12 {
        fill: none;
      }

      .cls-8, .cls-11 {
        stroke-linejoin: round;
      }

      .cls-8, .cls-11, .cls-12 {
        stroke-linecap: round;
      }

      .cls-10 {
        stroke-miterlimit: 10;
        stroke-width: 1.12px;
      }

      .cls-10, .cls-11 {
        stroke: #fff;
      }

      .cls-13 {
        fill: #5f6e38;
      }

      .cls-14 {
        fill: #8d954b;
      }

      .cls-15 {
        fill: #8c984e;
      }

      .cls-4 {
        fill: #ffedcb;
      }

      .cls-11 {
        stroke-width: 5.59px;
      }

      .cls-12 {
        stroke: #231f20;
        stroke-miterlimit: 2;
        stroke-width: .3px;
      }

      .cls-5 {
        fill: #a9b05c;
      }

      .cls-16 {
        fill: #ec1c24;
      }

      .cls-17 {
        fill: #06c;
      }

      .cls-6 {
        fill: #aad3df;
      }

      .cls-18 {
        clip-path: url(#clippath);
      }

      .cls-19 {
        fill: #858c48;
      }
    </style>
    <clipPath id="clippath">
      <path class="cls-9" d="M83.47,376.48c14.16-.23,25.11-12.55,28.98-16.92,11.59-13.05,14.38-28.03,15.46-34.22,9.39-54.09,11.13-120.45,12.91-156.28,2.04-41.02,4.95-58.44-3.6-85.6-5.1-16.22-11.76-36.34-30.6-47.09-21.1-12.03-49.67-7.84-68.42,4.31C-5.3,68.89-.8,143.16,1.15,175.38c1.5,24.77,4.33,12.84,18.4,93.45,4.57,26.19,7.31,44.84,19.91,67.39,7.44,13.31,22.69,40.61,44.01,40.26Z"/>
    </clipPath>
    <pattern id="New_Pattern" data-name="New Pattern" x="0" y="0" width="24" height="24" patternTransform="translate(-2788 1259.19)" patternUnits="userSpaceOnUse" viewBox="0 0 24 24">
      <g>
        <rect class="cls-9" width="24" height="24"/>
        <rect class="cls-1" width="12" height="12"/>
        <rect class="cls-14" x="12" width="12" height="12"/>
        <rect class="cls-19" x="12" y="12" width="12" height="12"/>
        <rect class="cls-15" y="12" width="12" height="12"/>
      </g>
    </pattern>
  </defs>
  <g id="Hole_14" data-name="Hole 14">
    <g class="cls-18">
      <path class="cls-13" d="M83.47,376.48c14.16-.23,25.11-12.55,28.98-16.92,11.59-13.05,14.38-28.03,15.46-34.22,9.39-54.09,11.13-120.45,12.91-156.28,2.04-41.02,4.95-58.44-3.6-85.6-5.1-16.22-11.76-36.34-30.6-47.09-21.1-12.03-49.67-7.84-68.42,4.31C-5.3,68.89-.8,143.16,1.15,175.38c1.5,24.77,4.33,12.84,18.4,93.45,4.57,26.19,7.31,44.84,19.91,67.39,7.44,13.31,22.69,40.61,44.01,40.26Z"/>
      <path class="cls-3" d="M72.98,171.67c5.29-5.25,4.67-13.3,5.38-20.28.5-6.17.85-12.44,2.82-18.28.36-1.3,1.31-3.49.76-4.28-.96-.32-2.41.81-3.67,1.3-6.25,3.37-14.54,5.17-21.57,3.7-3.1-.59-6.09-2.7-8.78-3.83-2.62-.79-2.88,1.37-3.38,3.76-1.37,9.76-3.43,20.81,1,30.05,3.9,10.28,18.38,14.38,27.12,8.14l.33-.29Z"/>
      <g>
        <path class="cls-5" d="M62.73,138.95c-7.66,0-14.22-3.1-17.55-8.29-2.1-3.27-3.85-8.85-.21-16.81l.05-.12.06-.11c3.43-5.83,8.9-9.55,14.19-13.14,2.95-2.01,5.74-3.9,8.17-6.13l.08-.07c2.8-2.34,5.33-5.02,8-7.85,3.93-4.16,7.99-8.47,13-11.61,3.47-2.26,6.98-3.42,10.37-3.42,3.95,0,7.56,1.64,10.18,4.61,3.4,3.86,4.89,9.67,4.1,15.94-2.96,23.34-27.17,38.36-37.45,43.74l-.15.07-.36.16c-3.79,1.98-8.1,3.02-12.48,3.02h0Z"/>
        <path class="cls-2" d="M98.89,73.84c7.89,0,13.15,7.68,11.87,17.81-2.41,18.99-20.27,33.57-36.16,41.89l-.44.19c-3.59,1.89-7.58,2.78-11.43,2.78-11.55,0-21.75-8.07-15.55-21.66,4.96-8.43,14.88-12.28,21.9-18.71,7.18-6,12.74-14.26,20.73-19.26,3.24-2.1,6.32-3.04,9.08-3.04M98.89,68.98c-3.86,0-7.8,1.28-11.7,3.81-5.26,3.3-9.42,7.71-13.44,11.98-2.62,2.78-5.1,5.41-7.79,7.65l-.09.07-.08.08c-2.3,2.1-5.01,3.95-7.89,5.91-5.51,3.75-11.21,7.62-14.92,13.92l-.13.22-.1.23c-3.19,6.99-3.06,13.79.38,19.14,3.78,5.89,11.11,9.4,19.6,9.4,4.74,0,9.41-1.13,13.53-3.26l.29-.13.15-.07.15-.08c10.61-5.55,35.63-21.11,38.73-45.59.88-6.96-.82-13.47-4.68-17.85-3.09-3.5-7.35-5.43-12.01-5.43h0Z"/>
      </g>
      <path class="cls-5" d="M80.77,274.38c7.07-6.47,4.07-18.52-4.83-21.93-8.83-3.44-22.78-2.25-27.8,6.56-7.91,17.87,21.56,25.29,32.3,15.68l.33-.31Z"/>
      <path class="cls-5" d="M106.97,352.84c7.1-8.03-4.31-13.05-11.63-14.65-4.38-1.17-8.7-3.11-13.02-4.36-10.84-3.19-13.28,6.18-10.14,15.33,1.52,5.32,4.1,13.28,9.15,14.69,3.65,1.21,7.22-.55,10.59-2.12,4.81-2.63,10.95-5.17,14.76-8.59l.29-.29Z"/>
      <path class="cls-4" d="M51,97.71c5.06-3.27,7.98-9.98,13.61-12.31,7.07-3.39,14.82-8.55,18.2-15.69,2.17-4.87-1.89-12.13-7.58-10.31-2.72.9-5.11,3.55-6.3,6.37-1.49,3.25-1.26,7.71-3.32,10.32-3.68,4.28-5.27-2.23-6.65-4.89-1.54-3.05-6.36-5.38-8.71-2.12-2.98,4.05,1.93,8.83.21,13.15-1.29,3.77-6.07,4.64-8.01,7.91-3.21,5.43,3.02,10.44,8.19,7.74l.36-.18Z"/>
      <path class="cls-5" d="M75.02,312.46c10.58-9.35-2.27-29.46-13.97-18.34-8.72,9.05,2.2,27.65,13.64,18.64l.33-.3Z"/>
      <path class="cls-6" d="M131.97,229.05c9.29-7.7,10.78-21.86,7.84-33.23-3.33-12.47-8.63-25.65-4.23-38.59,3.96-13.76,15.42-25.38,17.78-39.73,1.87-9.47-2.82-20.61-13.51-21.16-27.12.43-38.68,31.42-44.68,53.71-4.97,17.05-8.4,35.45-7.06,53.21.58,7.37,2.87,14.59,7.56,20.18,8.23,10.06,25.38,14.94,35.97,5.89l.32-.27Z"/>
      <path class="cls-8" d="M149,4.26C99.71,17.62,42.04,26.14,24.14,81.71c-18.03,54.43,2.08,117.47,12.33,172.69,7.87,36.79,20.17,87.15,31.1,122.99"/>
      <path class="cls-11" d="M149,4.26C99.71,17.62,42.04,26.14,24.14,81.71c-18.03,54.43,2.08,117.47,12.33,172.69,7.87,36.79,20.17,87.15,31.1,122.99"/>
    </g>
    <g>
      <rect x="81.95" y="346.41" width="2.19" height="2.19"/>
      <rect x="89.89" y="346.41" width="2.19" height="2.19"/>
    </g>
    <g>
      <rect class="cls-17" x="64.25" y="301.97" width="2.19" height="2.19"/>
      <rect class="cls-17" x="72.18" y="301.97" width="2.19" height="2.19"/>
    </g>
    <g>
      <rect class="cls-7" x="60.32" y="262.99" width="2.19" height="2.19" transform="translate(4.6 -1.03) rotate(1)"/>
      <rect class="cls-7" x="68.26" y="263.13" width="2.19" height="2.19" transform="translate(4.61 -1.17) rotate(1)"/>
    </g>
    <path class="cls-7" d="M115.28,259.59v8.08h-1.14l-2.59-4.09c-.6-.95-1.07-1.8-1.45-2.63h-.02c.1,1.09.12,2.08.12,3.33v3.38h-.98v-8.08h1.06l2.57,4.1c.56.9,1.1,1.82,1.51,2.7h.04c-.06-1.03-.08-2-.08-3.35v-3.45h.98Z"/>
    <g>
      <line class="cls-10" x1="117.36" y1="271.93" x2="109.89" y2="276.42"/>
      <polygon class="cls-7" points="109.3 274.17 107.14 278.08 111.61 278 109.3 274.17"/>
    </g>
    <g>
      <line class="cls-12" x1="93.25" y1="94.54" x2="93.25" y2="87.74"/>
      <path class="cls-16" d="M96.58,90.04c-1.11-.69-2.22.69-3.32,0v-2.3c1.11.69,2.22-.69,3.32,0v2.3Z"/>
    </g>
  </g>
</svg>