<?xml version="1.0" encoding="UTF-8"?>
<svg id="Layer_2" data-name="Layer 2" xmlns="http://www.w3.org/2000/svg" xmlns:xlink="http://www.w3.org/1999/xlink" viewBox="0 0 118.95 367">
  <defs>
    <style>
      .cls-1 {
        fill: #9aa255;
      }

      .cls-2 {
        stroke-width: 2.58px;
      }

      .cls-2, .cls-3, .cls-4, .cls-5, .cls-6, .cls-7, .cls-8 {
        fill: none;
      }

      .cls-2, .cls-5, .cls-8 {
        stroke-linecap: round;
      }

      .cls-2, .cls-6 {
        stroke: #fff;
      }

      .cls-2, .cls-8 {
        stroke-linejoin: round;
      }

      .cls-9 {
        fill: #788448;
      }

      .cls-10 {
        fill: url(#New_Pattern);
      }

      .cls-10, .cls-11, .cls-12, .cls-7, .cls-13 {
        fill-rule: evenodd;
      }

      .cls-14 {
        fill: #fff;
      }

      .cls-15 {
        fill: #8d954b;
      }

      .cls-16 {
        fill: #8c984e;
      }

      .cls-11 {
        fill: #ffedcb;
      }

      .cls-4 {
        clip-rule: evenodd;
      }

      .cls-5 {
        stroke: #231f20;
        stroke-miterlimit: 2;
        stroke-width: .3px;
      }

      .cls-12 {
        fill: #a9b05c;
      }

      .cls-6 {
        stroke-width: 1.26px;
      }

      .cls-6, .cls-7 {
        stroke-miterlimit: 10;
      }

      .cls-7 {
        stroke: #aad3df;
        stroke-width: 2.24px;
      }

      .cls-17 {
        fill: #ec1c24;
      }

      .cls-18 {
        fill: #06c;
      }

      .cls-13 {
        fill: #5f6e38;
      }

      .cls-19 {
        clip-path: url(#clippath);
      }

      .cls-8 {
        stroke: #bbb;
        stroke-width: 3.92px;
      }

      .cls-20 {
        fill: #858c48;
      }
    </style>
    <clipPath id="clippath">
      <path class="cls-4" d="M32.58,367c-1.92-.01-13.32-.27-20.62-8.77-5.06-5.89-5.73-12.91-5.99-16.56-1.73-24.58,4.61-48.97,5.99-54.58,2.2-8.93,2.54-26.34,3.22-61.15,1.18-60.62,2.5-128.06-11.4-165.08-1.09-2.9-4.78-12.3-3.51-24.28.42-3.92,2.35-22.12,16.82-31.42,16.64-10.69,40.1-3.35,51.45,9.21,8.23,9.11,10.26,20.04,10.24,28.07-.19,58.98,12.91,62.69,17.6,106.6,2.63,24.61,1.12,36.56-6.63,81.37-11.25,65.01-17.89,53.18-19.44,85.27-.44,9.13-.62,24.78-11.26,37.44-2.09,2.49-11.73,13.96-26.46,13.88Z"/>
    </clipPath>
    <pattern id="New_Pattern" data-name="New Pattern" x="0" y="0" width="24" height="24" patternTransform="translate(-1506.72 1230)" patternUnits="userSpaceOnUse" viewBox="0 0 24 24">
      <g>
        <rect class="cls-3" width="24" height="24"/>
        <rect class="cls-1" width="12" height="12"/>
        <rect class="cls-15" x="12" width="12" height="12"/>
        <rect class="cls-20" x="12" y="12" width="12" height="12"/>
        <rect class="cls-16" y="12" width="12" height="12"/>
      </g>
    </pattern>
  </defs>
  <g id="Hole_6" data-name="Hole 6">
    <g class="cls-19">
      <g>
        <path class="cls-13" d="M32.58,367c-1.92-.01-13.32-.27-20.62-8.77-5.06-5.89-5.73-12.91-5.99-16.56-1.73-24.58,4.61-48.97,5.99-54.58,2.2-8.93,2.54-26.34,3.22-61.15,1.18-60.62,2.5-128.06-11.4-165.08-1.09-2.9-4.78-12.3-3.51-24.28.42-3.92,2.35-22.12,16.82-31.42,16.64-10.69,40.1-3.35,51.45,9.21,8.23,9.11,10.26,20.04,10.24,28.07-.19,58.98,12.91,62.69,17.6,106.6,2.63,24.61,1.12,36.56-6.63,81.37-11.25,65.01-17.89,53.18-19.44,85.27-.44,9.13-.62,24.78-11.26,37.44-2.09,2.49-11.73,13.96-26.46,13.88Z"/>
        <path class="cls-7" d="M118.41,197.96c-10.61-5.72-15.86-12.74-18.31-16.71-7.97-12.92-7.31-27.53-6.91-36.33.28-6.15.99-6.88,1.27-14.56.37-10.27-.55-18.68-1.43-24.35"/>
        <path class="cls-10" d="M47.9,248.43c6.6-2.74,9.26-9.46,11.55-15.92,2.22-6.43,4.68-12.98,4.82-19.86.26-11.16-3.33-22.56-2.14-33.87.9-8.43,2.42-16.87,5.21-24.85,3.97-11.94-8.62-15.41-9.91-26.67-.96-6.17.57-12.59,1.64-18.71,2.76-14.26,1.56-23.38-7.38-35.05-2.78-4.04-5.04-8.41-6.36-13.15-1.53-5.4-3.43-10.27-5.17-15.52-.42-1.3-.89-2.77-1.29-3.94-.59-1.69-.94-2.66-1.47-2.63-.82.28-1.55,1.34-2.27,2.21-.68.84-1.51,1.75-2.35,2.51-2.14,1.97-5.07,2.64-7,3.49-1.7.69-3.05,1.94-3.45,3.81-.81,6.35-.78,13.07-.27,19.47.74,11.46,6.54,21.9,8.26,33.15.62,4.59.54,9.27.32,13.89-.39,12.03-1,24.47,1.1,36.35,1.81,7.47,3.25,15.11,3.99,22.73.74,6.24,3.2,12.11,5,18.09,1.09,3.83,1.42,7.58.88,11.45-1.16,9.04-7.13,16.68-9.17,25.47-2.5,9.78,4.2,21.51,15.3,17.63l.17-.07Z"/>
        <g>
          <polygon class="cls-12" points="23.19 49.9 21.49 48.5 18.71 46.71 17.18 42.94 17.3 40.43 17.85 39.12 19.26 36.06 22 32.84 24.89 29.37 26.87 26.24 28.8 23.75 29.66 22.17 29.92 21.1 30.2 19.45 31.5 18.25 33.07 17.43 35.33 17.03 39.37 16.67 42.33 16.77 45.22 17.14 47.48 18.37 48.66 20.34 49.43 22.23 48.5 24.06 47.32 25.97 44.97 27.92 43.14 29.26 41.31 31.89 40.39 33.56 39.35 36.49 39.22 36.85 38.79 39.99 38.12 44.06 35.5 47.04 34.3 48.01 32.24 49.69 29.07 50.98 25.48 51 23.19 49.9"/>
          <path class="cls-9" d="M39.4,17.8l2.84.1,2.63.33,1.81.99.98,1.63.55,1.34-.7,1.38-1.04,1.67-2.21,1.83-1.92,1.41-1.97,2.83-.99,1.81-1.07,3.01-.17.47-.45,3.26-.61,3.72-1.36,1.55-.99,1.12-1.12.9-1.93,1.58-2.82,1.14-3.11.02-1.93-.93-1.65-1.36-2.53-1.63-1.31-3.22.1-2.07.47-1.13,1.33-2.88,2.64-3.1,2.94-3.54,1.99-3.15,1.95-2.51.98-1.8.29-1.21.23-1.35.91-.84,1.28-.67,2.04-.37,3.92-.34M39.34,15.55h-.14s-3.92.36-3.92.36h-.1s-.1.03-.1.03l-2.04.37-.34.06-.3.16-1.28.67-.26.14-.22.2-.91.84-.56.52-.13.75-.22,1.28-.2.85-.75,1.38-1.84,2.37-.07.09-.06.09-1.91,3.03-2.85,3.43-2.62,3.08-.2.23-.13.28-1.33,2.88-.02.04-.02.04-.47,1.13-.15.36-.02.39-.1,2.07-.02.49.19.46,1.31,3.22.27.66.6.38,2.42,1.56,1.55,1.27.21.17.24.12,1.93.93.47.23h.52s3.11-.02,3.11-.02h.43s.4-.16.4-.16l2.81-1.14.31-.13.26-.21,1.93-1.58,1.11-.9.15-.12.13-.15.99-1.12,1.36-1.55.42-.48.1-.63.61-3.72v-.03s0-.03,0-.03l.42-3.02.09-.24,1.02-2.86.85-1.54,1.69-2.43,1.62-1.19.05-.04.05-.04,2.21-1.83.28-.23.19-.31,1.04-1.67.05-.08.04-.09.7-1.38.46-.91-.38-.95-.55-1.34-.07-.16-.09-.15-.98-1.63-.31-.52-.54-.29-1.81-.99-.37-.2-.42-.05-2.63-.33h-.1s-.1-.02-.1-.02l-2.84-.1h-.14Z"/>
        </g>
        <path class="cls-12" d="M23.3,338.43c4.61-2.04,4.04-10.35,5.2-14.6.88-4.48,4.56-8.81,3.38-13.64-.6-4.3-5.69-6.92-8.99-3.72-1.96,2.42-2.11,7.36-2.6,10.69-.14,1.94-.16,4.6-.41,6.6-.59,3.3-1.79,7.16-1.04,10.71.16,2.17,1.93,4.59,4.3,4.01l.16-.04Z"/>
        <path class="cls-12" d="M33.12,352.4c5.53-2.38,9.19-8.17,11.31-13.52,2.83-7.16-4.97-12.54-8.46-4.63-1.38,3.75-2.81,7.96-6.96,9.4-2.46,1.17-6.77,1.32-7.19,4.6.34,4.94,7.32,5.96,11.12,4.23l.19-.08Z"/>
        <path class="cls-12" d="M29.69,293.55c3.82-1.69,4.86-7.51,2.21-10.65-2.79-3.22-10.27-2.47-12.22,1.36-3.27,6.6,3.6,12.01,9.85,9.37l.17-.08Z"/>
        <path class="cls-11" d="M72.36,143.22c1.16-.14,2.06-1.19,2.51-2.29.43-1.47,1.53-2.9,1.57-4.47-.03-.66-.38-1.25-.69-1.82-.84-1.45-1.25-3.12-1.96-4.67-.99-1.74.85-3.56.14-5.33-1.64-3.12-7.57-5.18-9.61-1.44-1.25,2.71,1.43,5.66,3.03,7.79,1.48,2.4-.06,5.49.6,8.07.35,2.12,1.97,4.32,4.24,4.18l.17-.03Z"/>
        <path class="cls-11" d="M44.07,45.62c1.15-.25,2.06-1.11,2.79-2.01,1.96-2.46,3.97-5.8,2.78-9.05-.56-1.82-2.34-4.11-4.46-3.42-1.57.59-1.62,2.94-1.11,4.35.31,1.19,1.7,2.23,1.23,3.5-.77,1.24-2.93,1.3-3.96,2.67-1.62,1.85.3,4.43,2.54,3.99l.17-.03Z"/>
        <path class="cls-11" d="M17.84,31.95c2.34-1.94,3.45-5.27,5.01-7.84,2.06-4.19-3.88-4.72-5.12-1.22-.36.95-.22,2.01-.27,3-.13,2.63-1.96,1.47-3.54,2.14-.91.48-1.14,1.73-.67,2.61.79,1.69,3.2,2.17,4.44,1.39l.14-.09Z"/>
        <path class="cls-8" d="M72.27,320.86c-5.04-1.37-10.08-2.89-15.31-2.6-5.09-.2-12.64,3.57-15.77,1.16-4.97-4.4-3.7-19.88-2.95-25.9,1.96-11.49,9.24-21.03,13.96-31.55,2.27-4.74,4.15-9.55,6.26-14.37,3.21-7.86,8.27-14.73,12.43-22.07,4.25-7.65,6.9-16.99,7.78-25.77.82-8.41-1.07-16.16-1.43-24.47-1.03-18.48,4.09-26.25,16.8-38.82"/>
        <path class="cls-8" d="M56.18,3.24c-5.71,20.46,13.58,22.92,6.29,44.55-5.28,15.16,2.87,26.29,7.69,40.05,1.85,5.83,2.33,11.97,4.68,17.65,1.64,4.1,4.18,7.89,6.08,11.9,5.03,9.91,2.28,24.19.42,34.61"/>
        <path class="cls-2" d="M73.23,321.15c-5.12-1.37-10.16-3.03-15.47-2.94-1.99.01-3.99.25-5.94.62-4.56.81-8.23,2.4-10.68.56-4.96-4.41-3.7-19.87-2.95-25.89.69-4.36,2.18-8.31,4.1-12.32,4.65-9.39,10.13-18.71,13.98-28.56,3.56-9.68,9.33-18.28,14.57-27.1,4.25-7.65,6.9-16.98,7.78-25.76.82-8.4-1.07-16.16-1.43-24.46-1.03-18.47,4.1-26.25,16.8-38.82"/>
        <path class="cls-2" d="M56.14,3.25c-5.71,20.46,13.58,22.92,6.29,44.55-5.28,15.16,2.87,26.29,7.69,40.05,1.85,5.83,2.33,11.97,4.68,17.65,1.64,4.1,4.18,7.89,6.08,11.9,5.03,9.91,2.32,24.18.47,34.6"/>
        <g>
          <rect x="26.59" y="347.28" width="1.01" height="1.01"/>
          <rect x="30.25" y="347.28" width="1.01" height="1.01"/>
        </g>
        <g>
          <rect class="cls-18" x="24.36" y="315.98" width="1.01" height="1.01"/>
          <rect class="cls-18" x="28.02" y="315.98" width="1.01" height="1.01"/>
        </g>
        <g>
          <rect class="cls-14" x="23.74" y="287.03" width="1.01" height="1.01" transform="translate(5.01 -.38) rotate(1)"/>
          <rect class="cls-14" x="27.4" y="287.1" width="1.01" height="1.01" transform="translate(5.01 -.44) rotate(1)"/>
        </g>
        <path class="cls-14" d="M62.39,280.4v9.06h-1.28l-2.9-4.58c-.67-1.06-1.2-2.02-1.63-2.94h-.03c.11,1.22.13,2.33.13,3.74v3.79h-1.1v-9.06h1.18l2.88,4.6c.63,1.01,1.24,2.04,1.69,3.02h.04c-.07-1.16-.09-2.25-.09-3.75v-3.87h1.1Z"/>
        <g>
          <line class="cls-6" x1="65.7" y1="294.45" x2="56.59" y2="297.97"/>
          <polygon class="cls-14" points="56.38 295.37 53.23 299.27 58.18 300.04 56.38 295.37"/>
        </g>
      </g>
      <g>
        <line class="cls-5" x1="38.31" y1="25.92" x2="38.31" y2="19.12"/>
        <path class="cls-17" d="M41.63,21.42c-1.11-.69-2.22.69-3.32,0v-2.3c1.11.69,2.22-.69,3.32,0,0,.77,0,1.53,0,2.3Z"/>
      </g>
    </g>
  </g>
</svg>