<?xml version="1.0" encoding="UTF-8"?>
<svg id="Layer_2" data-name="Layer 2" xmlns="http://www.w3.org/2000/svg" xmlns:xlink="http://www.w3.org/1999/xlink" viewBox="0 0 317.79 404.74">
  <defs>
    <style>
      .cls-1 {
        stroke-width: 2.61px;
      }

      .cls-1, .cls-2 {
        stroke-linejoin: round;
      }

      .cls-1, .cls-2, .cls-3, .cls-4, .cls-5, .cls-6 {
        fill: none;
      }

      .cls-1, .cls-2, .cls-5, .cls-6 {
        stroke-linecap: round;
      }

      .cls-1, .cls-4 {
        stroke: #fff;
      }

      .cls-7 {
        fill: #9aa255;
      }

      .cls-8 {
        fill: #788448;
      }

      .cls-2 {
        stroke: #bbb;
        stroke-width: 3.98px;
      }

      .cls-9 {
        fill: url(#New_Pattern);
      }

      .cls-9, .cls-10, .cls-11, .cls-6 {
        fill-rule: evenodd;
      }

      .cls-12 {
        fill: #fff;
      }

      .cls-4 {
        stroke-width: 1.12px;
      }

      .cls-4, .cls-6 {
        stroke-miterlimit: 10;
      }

      .cls-13 {
        fill: #5f6e38;
      }

      .cls-14 {
        fill: #8d954b;
      }

      .cls-15 {
        fill: #8c984e;
      }

      .cls-10 {
        fill: #ffedcb;
      }

      .cls-5 {
        stroke: #231f20;
        stroke-miterlimit: 2;
        stroke-width: .3px;
      }

      .cls-11 {
        fill: #a9b05c;
      }

      .cls-6 {
        stroke: #aad3df;
        stroke-width: 1.14px;
      }

      .cls-16 {
        fill: #ec1c24;
      }

      .cls-17 {
        fill: #06c;
      }

      .cls-18 {
        clip-path: url(#clippath);
      }

      .cls-19 {
        fill: #858c48;
      }
    </style>
    <clipPath id="clippath">
      <path class="cls-3" d="M264.32,404.74c8.47-.07,16.44-5.25,20.28-12,4.36-7.65,2.7-16.08,2.02-19.62-5.26-27.68-5.31-56.16-10.1-83.92-4.96-28.79-7.45-43.18-7.47-56.01-.05-24.79,4.4-25.63,8.04-71.1,2.4-29.94.68-32.19,4.21-46.79,3.83-15.86,8.15-22.72,7.69-37.6-.28-9.06-.71-22.97-11.06-31.28-9.76-7.84-22.3-5.81-25.01-5.38-12.58,2.03-23.48,10.87-27.72,21.61-4.34,10.98.75,17.71,2.01,33.01,1.23,15-2.42,23.79-10.11,48.14-12.76,40.36-19.14,60.54-20.71,74.05-3.6,30.9,2.38,56.32,7.78,79.3,4.25,18.1,3.7,8.17,18.1,54.14,5.47,17.45,9.49,31.47,22.3,43.61,9.72,9.22,16.6,9.86,19.75,9.84Z"/>
    </clipPath>
    <pattern id="New_Pattern" data-name="New Pattern" x="0" y="0" width="24" height="24" patternTransform="translate(-2278.47 1269.46)" patternUnits="userSpaceOnUse" viewBox="0 0 24 24">
      <g>
        <rect class="cls-3" width="24" height="24"/>
        <rect class="cls-7" width="12" height="12"/>
        <rect class="cls-14" x="12" width="12" height="12"/>
        <rect class="cls-19" x="12" y="12" width="12" height="12"/>
        <rect class="cls-15" y="12" width="12" height="12"/>
      </g>
    </pattern>
  </defs>
  <g id="Hole_12" data-name="Hole 12">
    <g class="cls-18">
      <path class="cls-13" d="M264.32,404.74c8.47-.07,16.44-5.25,20.28-12,4.36-7.65,2.7-16.08,2.02-19.62-5.26-27.68-5.31-56.16-10.1-83.92-4.96-28.79-7.45-43.18-7.47-56.01-.05-24.79,4.4-25.63,8.04-71.1,2.4-29.94.68-32.19,4.21-46.79,3.83-15.86,8.15-22.72,7.69-37.6-.28-9.06-.71-22.97-11.06-31.28-9.76-7.84-22.3-5.81-25.01-5.38-12.58,2.03-23.48,10.87-27.72,21.61-4.34,10.98.75,17.71,2.01,33.01,1.23,15-2.42,23.79-10.11,48.14-12.76,40.36-19.14,60.54-20.71,74.05-3.6,30.9,2.38,56.32,7.78,79.3,4.25,18.1,3.7,8.17,18.1,54.14,5.47,17.45,9.49,31.47,22.3,43.61,9.72,9.22,16.6,9.86,19.75,9.84Z"/>
      <path class="cls-6" d="M235.66,101.75c-2.68-.29-8-.8-14.74-.86-7.77-.07-12.93.5-15.44.67-13.92.93-21.91-5.32-34.67-8.71-11.77-3.13-11.29.51-41.25,1.03-31.18.53-46.77.8-56.12-2.18,0,0-20.48-6.54-28.76-.99-.38.25-1.99,1.39-4.43,2.27-1.65.6-4.6,1.41-9.11,1.1-4.14-.29-7.94-1.41-13.82-4.07-4.34-1.97-10.17-4.93-16.72-9.3"/>
      <path class="cls-6" d="M316.96,109.97c-6.07-2.79-11.42-4.05-15.21-4.67-1.13-.19-5.67-.9-11.71-.78-4.73.09-6.37.62-12.55,1.19"/>
      <path class="cls-9" d="M278.06,66.02c-1.44-5.6-4.68-14.24-11.22-13.79-.87-.05-4.72.66-3.41,1.88,1.11,1.02,5.7,1.66,6.74,5.08.86,2.58.26,5.38-.31,7.98-1.15,4.41-2.1,8.85-4.5,12.55-2.44,3.84-6.75,6.76-9.23,10.76-2.86,4.9-3.53,10.99-5.98,16.1-2.2,4.94-5.97,9.18-9.09,14.2-4.94,7.84-9.65,15.44-12.92,24.04-1.77,4.9-2.56,10.1-3.22,15.26-1.04,7.16-2.24,14.14-2.68,21.32-.42,8.32-2.67,16.18-3.79,24.5-.98,8.53-.87,16.96-.9,25.59.03,8.98,1.01,17.73,3.67,26.33,2.64,7.55,5.79,20.82,14.44,22.73,4.96.95,11.11-2.17,12.46-7.27,1-3.57-.23-7.74-1.25-11.42-1.27-4.5-2.48-9.06-3.13-13.69-1.04-6.6-.71-13.11-1.19-19.78-.31-5.23-.76-10.58.13-15.74,1.45-6.98,4.33-13.8,6.7-20.61,10.35-25.71,8.76-26.74,6.18-53.4-.4-10.09,3.93-20.16,6.53-29.7,2.29-7.06,5.44-14.04,9.65-20.07,4.72-6.56,9.08-14.44,6.36-22.64l-.05-.2Z"/>
      <g>
        <path class="cls-11" d="M258.67,87.33c-2.63,0-4.89-1.26-6.39-3.55l-.44-.67c-4.23-6.46-7.88-12.03-.17-18.95,1.04-.92,2.05-2.01,3.12-3.16,3.01-3.23,6.42-6.9,11.19-7.06h.13c2.8,0,5.41,1.6,6.49,3.98l.08.19c1.42,3.47.06,6.73-1.26,9.88-.44,1.05-.85,2.05-1.17,3.04-.52,1.49-.75,3.09-.98,4.63-.24,1.62-.49,3.29-1.04,4.84-1.44,3.89-5.55,6.82-9.56,6.82h0Z"/>
        <path class="cls-8" d="M266.12,55.07c2.24,0,4.52,1.25,5.45,3.31l.08.18c1.66,4.07-1.21,8.11-2.47,12.13-1.08,3.1-.97,6.52-2.01,9.43-1.28,3.45-4.98,6.07-8.5,6.07-2.05,0-4.04-.89-5.43-3.04-4.41-6.76-8.03-11.67-.8-18.15,4.08-3.6,7.74-9.73,13.59-9.93.03,0,.06,0,.09,0M266.12,52.8h-.12c-5.29.18-8.87,4.03-12.03,7.43-1.05,1.13-2.04,2.19-3.04,3.07-8.46,7.58-4.18,14.12-.04,20.43l.44.67c1.71,2.62,4.31,4.07,7.34,4.07,4.47,0,9.04-3.25,10.63-7.56.6-1.68.86-3.41,1.11-5.08.23-1.56.45-3.04.92-4.39v-.03s.02-.03.02-.03c.3-.95.7-1.92,1.13-2.94,1.34-3.21,2.86-6.84,1.27-10.73v-.03s-.02-.03-.02-.03l-.08-.18c-1.27-2.8-4.29-4.67-7.53-4.67h0Z"/>
      </g>
      <path class="cls-11" d="M269.51,394.34c-5.13-7.74-11.33-5.83-11.96-18.1-.38-3.04-.05-6.39-1.31-9.17-1.33-3.11-5.22-2.83-6.09.4-.99,3.73.77,7.61,1.46,11.3,1.27,6.13,2.51,12.77,7.2,17.3,2.04,2.03,4.68,4.09,7.64,4.02,2.88-.05,4.45-2.99,3.15-5.56l-.09-.18Z"/>
      <path class="cls-11" d="M254.92,330.75c-1.14-3.32-4.99-4.77-7.11-1.63-1.93,2.96-.29,7.16,2.02,9.82,1.81,1.98,4.48,1.57,5.5-.76,1-2.25.59-4.9-.32-7.21l-.09-.22Z"/>
      <path class="cls-10" d="M251.43,86.45c-.47-.91-1.95-1.35-2.49-2.54-.74-1.35.22-3.03-.23-4.3-.34-1.01-1.17-1.75-1.8-2.66-1.2-2.08-3.79-2.81-5.16-.5-.95,2.4.8,4.67,1.41,6.99.5,2.25-.14,4.9,2.33,6.23,2.16,1.47,6.78-.16,6.01-3.06l-.07-.15Z"/>
      <path class="cls-10" d="M257.93,52.9c-.68-1.28-2.53-1.71-3.39-.51-.78,1.14-1.25,2.56-2.79,1.18-3.25-2.5-5.44,2.34-5.11,5.11.31,3.52,3.82,4.02,5.94,1.55,2.09-1.92,6.61-3.52,5.44-7.15l-.09-.17Z"/>
      <path class="cls-2" d="M268.67,381.54l.22,1.36.64,1.22.99.95,1.24.59,1.45.17,1.42-.33,1.22-.79.89-1.15.46-1.4-.04-1.45-.53-1.36-.95-1.11-1.19-.69-1.35-.28-1.37.15-1.24.59-.99.95-.64,1.23-.23,1.36"/>
      <path class="cls-2" d="M269.54,378.96l-2.07-3.27-1.54-2.91-1.16-2.91-.57-4.15.14-2.88.03-2.82-.34-2.05-.94-3.01"/>
      <path class="cls-2" d="M263.09,354.96c-10.86-1.08-21.92-1.1-30.87-7.33-6.41-4.38-10.17-11.61-13.89-18.28-3.68-6.68-7.8-12.85-11.97-19.16-5.24-7.65-9.59-16.37-8.38-25.9.65-6.84,2.58-13.69,3.69-20.51,1.49-8.28,1.61-16.84,1.23-25.37-.24-9.03-1.06-18.08-2.87-26.96-1.64-8.32-2.84-16.65-2.77-25.16.12-14.84,2.69-30.29,2.46-45.3-.04-6.29-.89-12.52-2.66-18.55-2.98-9.89-7.12-20.11-4.67-30.53,3.11-12.93,12.34-23.4,19.52-34.32,13.1-18.97,18.83-32.6,12.3-55.61"/>
      <path class="cls-2" d="M263.09,354.96c1.08-11.6-2.13-23.05-1.26-34.63.46-6.98,2.44-14.22,2.87-21.27.44-11.66-.37-24.23-4.9-34.83-3.78-8.66-11.34-16.43-10.97-26.38.17-8.67,5.92-15.82,8.56-23.81,2.63-7.14,2.71-14.89,3.81-22.66,1.23-10.27,4.58-20.29,5.98-30.51.71-5.55.57-10.98.8-16.55.24-6.76,1.48-13.77,3.01-20.42,1.95-8.9,3.04-16.19,5.37-24.37,2-7.07,5-14.01,6.63-20.99.74-2.98,1.38-6.04,2.17-8.98,1.29-4.87,3.23-9.86,7.37-12.88,6.75-5.22,17.91-3.26,21.2,4.96,5.08,13.25-.22,30.53-4.15,43.66"/>
      <path class="cls-1" d="M268.67,381.54l.22,1.36.64,1.22.99.95,1.24.59,1.45.17,1.42-.33,1.22-.79.89-1.15.46-1.4-.04-1.45-.53-1.36-.95-1.11-1.19-.69-1.35-.28-1.37.15-1.24.59-.99.95-.64,1.23-.23,1.36"/>
      <path class="cls-1" d="M269.54,378.96l-2.07-3.27-1.54-2.91-1.16-2.91-.57-4.15.14-2.88.03-2.82-.34-2.05-.94-3.01"/>
      <path class="cls-1" d="M263.09,354.96c-10.86-1.08-21.92-1.1-30.87-7.33-6.41-4.38-10.17-11.61-13.89-18.28-3.68-6.68-7.8-12.85-11.97-19.16-5.24-7.65-9.59-16.37-8.38-25.9.65-6.84,2.58-13.69,3.69-20.51,1.49-8.28,1.61-16.84,1.23-25.37-.24-9.03-1.06-18.08-2.87-26.96-1.64-8.32-2.84-16.65-2.77-25.16.12-14.84,2.69-30.29,2.46-45.3-.04-6.29-.89-12.52-2.66-18.55-2.98-9.89-7.12-20.11-4.67-30.53,3.11-12.93,12.34-23.4,19.52-34.32,13.1-18.97,18.83-32.6,12.3-55.61"/>
      <path class="cls-1" d="M263.09,354.96c1.08-11.6-2.13-23.05-1.26-34.63.46-6.98,2.44-14.22,2.87-21.27.44-11.66-.37-24.23-4.9-34.83-3.78-8.66-11.34-16.43-10.97-26.38.17-8.67,5.92-15.82,8.56-23.81,2.63-7.14,2.71-14.89,3.81-22.66,1.23-10.27,4.58-20.29,5.98-30.51.71-5.55.57-10.98.8-16.55.24-6.76,1.48-13.77,3.01-20.42,1.95-8.9,3.04-16.19,5.37-24.37,2-7.07,5-14.01,6.63-20.99.74-2.98,1.38-6.04,2.17-8.98,1.29-4.87,3.23-9.86,7.37-12.88,6.75-5.22,17.91-3.26,21.2,4.96,5.08,13.25-.22,30.53-4.15,43.66"/>
    </g>
    <g>
      <line class="cls-5" x1="258.04" y1="71.55" x2="258.04" y2="64.75"/>
      <path class="cls-16" d="M261.36,67.05c-1.11-.69-2.22.69-3.32,0v-2.3c1.11.69,2.22-.69,3.32,0v2.3Z"/>
    </g>
    <g>
      <rect x="259.58" y="392.19" width=".9" height=".9"/>
      <rect x="262.84" y="392.19" width=".9" height=".9"/>
    </g>
    <g>
      <rect class="cls-17" x="252.27" y="374.77" width=".9" height=".9"/>
      <rect class="cls-17" x="255.53" y="374.77" width=".9" height=".9"/>
    </g>
    <g>
      <rect class="cls-12" x="249.55" y="332.98" width=".9" height=".9" transform="translate(5.84 -4.3) rotate(1)"/>
      <rect class="cls-12" x="252.81" y="333.04" width=".9" height=".9" transform="translate(5.84 -4.36) rotate(1)"/>
    </g>
    <path class="cls-12" d="M230.84,293.18v8.08h-1.14l-2.59-4.09c-.6-.95-1.07-1.8-1.45-2.63h-.02c.1,1.09.12,2.08.12,3.33v3.38h-.98v-8.08h1.06l2.57,4.1c.56.9,1.1,1.82,1.51,2.7h.04c-.06-1.03-.08-2-.08-3.35v-3.45h.98Z"/>
    <g>
      <line class="cls-4" x1="227.81" y1="306.45" x2="230.57" y2="314.71"/>
      <polygon class="cls-12" points="228.24 314.8 231.59 317.76 232.48 313.38 228.24 314.8"/>
    </g>
  </g>
</svg>