<?xml version="1.0" encoding="UTF-8"?>
<svg id="Layer_2" data-name="Layer 2" xmlns="http://www.w3.org/2000/svg" xmlns:xlink="http://www.w3.org/1999/xlink" viewBox="0 0 142.55 386.25">
  <defs>
    <style>
      .cls-1 {
        fill: #9aa255;
      }

      .cls-2 {
        stroke-width: 3.51px;
      }

      .cls-2, .cls-3, .cls-4, .cls-5, .cls-6, .cls-7, .cls-8, .cls-9, .cls-10 {
        fill: none;
      }

      .cls-2, .cls-4, .cls-6, .cls-7 {
        stroke: #aad3df;
      }

      .cls-11 {
        fill: #788448;
      }

      .cls-3 {
        stroke: #bbb;
        stroke-width: 4.1px;
      }

      .cls-3, .cls-6, .cls-9, .cls-10 {
        stroke-linecap: round;
      }

      .cls-3, .cls-10 {
        stroke-linejoin: round;
      }

      .cls-12 {
        fill: url(#New_Pattern);
      }

      .cls-12, .cls-13, .cls-14, .cls-15 {
        fill-rule: evenodd;
      }

      .cls-16 {
        fill: #fff;
      }

      .cls-4 {
        stroke-width: 2.34px;
      }

      .cls-6 {
        stroke-width: 2.34px;
      }

      .cls-7 {
        stroke-width: 4.31px;
      }

      .cls-17 {
        fill: #8d954b;
      }

      .cls-18 {
        fill: #8c984e;
      }

      .cls-13 {
        fill: #ffedcb;
      }

      .cls-8 {
        stroke-miterlimit: 10;
        stroke-width: 1.31px;
      }

      .cls-8, .cls-10 {
        stroke: #fff;
      }

      .cls-9 {
        stroke: #231f20;
        stroke-miterlimit: 2;
        stroke-width: .3px;
      }

      .cls-14 {
        fill: #a9b05c;
      }

      .cls-19 {
        fill: #ec1c24;
      }

      .cls-20 {
        fill: #06c;
      }

      .cls-15 {
        fill: #5f6e38;
      }

      .cls-21 {
        clip-path: url(#clippath);
      }

      .cls-10 {
        stroke-width: 2.69px;
      }

      .cls-22 {
        fill: #858c48;
      }
    </style>
    <clipPath id="clippath">
      <path class="cls-5" d="M90.78,382.52c-3.95-.45-15.66-1.77-25.16-9.06-13.59-10.43-16.19-28.1-17.44-37.51-7.4-55.67-7.67-112.98-7.67-112.98-.25-52.13-.46-78.48-4.76-92.83-3.87-12.9-5.97-24.49-10.19-47.67-.6-3.31-2.47-14-1.45-27.77,1.16-15.56,4.99-21.31,6.44-23.3,4.83-6.61,11.1-9.48,14.55-11.06,2.57-1.18,14.38-6.29,28.27-2.96,11.61,2.78,18.36,9.96,27.2,19.61,16.56,18.08,23.64,36.47,25.3,40.96,6.67,18.05,7.51,32.62,8.31,54,2.2,59.29,1.61,105.28,1.59,107.15-.16,11.64-.27,23.16-.52,39.68-.28,17.97-.42,26.96-.54,29.87-1.67,40.54-2.54,61.56-16.14,70.3-8.88,5.71-20.42,4.4-27.78,3.57Z"/>
    </clipPath>
    <pattern id="New_Pattern" data-name="New Pattern" x="0" y="0" width="24" height="24" patternTransform="translate(-823.67 1246.26)" patternUnits="userSpaceOnUse" viewBox="0 0 24 24">
      <g>
        <rect class="cls-5" width="24" height="24"/>
        <rect class="cls-1" width="12" height="12"/>
        <rect class="cls-17" x="12" width="12" height="12"/>
        <rect class="cls-22" x="12" y="12" width="12" height="12"/>
        <rect class="cls-18" y="12" width="12" height="12"/>
      </g>
    </pattern>
  </defs>
  <g id="Hole_2" data-name="Hole 2">
    <g class="cls-21">
      <g>
        <g>
          <path class="cls-15" d="M0,41.63l20.14,69.77-4.95,10.86,4.67,22.06,7.75,31.42,14.78,175.27,14.58,16.52,13.18,18.72,21.61-.65,13.62.65,9.91-.71,21.8-5.41s12.44-201.18-.23-270.11c-3.05-16.6-8.79-52.4-16.24-68.29C114.31,28.31,92.68,3.26,78.15.31,60.06-3.36,9.39,27.18,9.39,27.18L0,41.63Z"/>
          <path class="cls-12" d="M43.24,52.69c-1.81,9.14,2.99,17.8,7.71,25.5,3.97,6.87,9.37,12.75,11.72,20.34,1.93,6.47,1.29,12.13,1.71,18.31.55,7.4,1.54,14.9,2.31,22.44.71,8.51,2.5,16.56,1.4,24.62-.97,6.97-3.4,14.01-3.86,21.25-.47,17.14,3.16,38.02,19.14,47.42,18.27,7.54,33.56-15.83,33.57-32.16.68-10.38-2.73-20.39-5.29-30.32-2.25-9.96-3.25-20.01-6.47-29.75-4.03-12.33-6.5-25.36-11.5-37.33-2.15-4.77-5.01-8.97-7.8-13.42-5.29-8.4-8.65-17.94-13.07-26.75-1.09-2.43-2.84-6.31-4.57-7.5-4.28-2.78-9.62,5.66-16.01,3.33-3.88-1.1-5.97-6.01-7.33-7.34-.95-1.06-1.48.17-1.64,1.26l-.02.11ZM60.62,68.3c1-2.68,4.62-2.38,4.98.53.21,1.57-1.25,3.24-2.64,3.22-1.76.09-2.97-2.05-2.39-3.59l.06-.16Z"/>
          <g>
            <path class="cls-14" d="M53.82,65.41c-.85,0-1.67-.12-2.41-.36-2.82-.99-5.09-3.38-6.27-6.55-1.26-3.4-1.06-7.08.53-9.85l.1-.17c.57-.9,1.17-1.7,1.76-2.47.74-.97,1.45-1.89,2.02-2.95,1.06-1.93,2.85-4.59,6.09-5.5,1.23-.38,2.64-.59,4.04-.59,5.13,0,9.18,2.61,10.32,6.65.97,4.45-.08,9.44-2.79,13.44-2.21,3.91-8.29,8.35-13.39,8.35h0Z"/>
            <path class="cls-11" d="M59.68,38.14c3.98,0,8.07,1.8,9.2,5.8.92,4.21-.2,8.88-2.63,12.46-2.09,3.69-7.76,7.84-12.42,7.84-.71,0-1.4-.1-2.05-.31-5.52-1.94-7.91-9.8-5.08-14.71l.1-.16c1.19-1.9,2.7-3.44,3.8-5.44,1.25-2.27,2.87-4.23,5.38-4.93,1.16-.36,2.44-.55,3.72-.55M59.68,35.8c-1.5,0-3.02.22-4.39.64-2.74.78-4.96,2.76-6.77,6.05-.54.98-1.21,1.87-1.93,2.8-.6.79-1.23,1.61-1.8,2.53l-.02.03-.02.03-.1.16c-1.77,3.08-2,7.13-.62,10.86,1.3,3.5,3.83,6.14,6.95,7.24h.03s.03.02.03.02c.86.28,1.79.42,2.77.42,5.55,0,11.9-4.61,14.41-8.94,2.85-4.24,3.95-9.54,2.93-14.2v-.07s-.03-.07-.03-.07c-1.29-4.56-5.78-7.5-11.45-7.5h0Z"/>
          </g>
          <path class="cls-14" d="M65.02,323.72c-2.51,5.94-.68,12.75,1.33,18.52,1.96,5.61,5.66,10.64,9.37,15.3,2.6,3.15,5.55,6.41,8.59,8.95,2,1.65,3.64,3.54,6.11,4.17,1.65.42,3.31-.35,3.94-1.79.97-2.72-1.51-5.72-3.39-7.75-8.98-8.22-14.53-13.92-18.06-26.13-.44-1.38-.73-2.8-.79-4.23-.17-2.74.61-6.66-1.57-8.85-1.75-1.75-4.55-.48-5.44,1.65l-.09.17Z"/>
          <path class="cls-13" d="M73,44.88c-.74.93-.57,2.69-.17,3.74.84,1.44,1.7,3.36.1,4.56-1.1.74-2.68,1.33-2.35,2.95.06,1.42,1.43,3.31,2.97,2.24,1.34-.78,1.66-2.15,2.38-3.55,1.2-1.97,1.61-4.81,1.77-7.02-.05-1.07-.41-2.31-1.29-2.97-.91-.56-2.5-.84-3.31-.07l-.1.12Z"/>
          <path class="cls-14" d="M69.03,259.06c-.48.38-.51,1.22-.51,2.46.12,1.83-.27,4.09.31,5.83.37.7,1.23.77,1.95.81,1.54-.02,3.16.23,3.87-.77.2-.32.26-.78.28-1.2-.06-1.81.12-4.48-.39-6.29-.4-.94-1.46-1.03-2.42-1.13-.93-.05-2.27-.23-3,.21l-.09.07Z"/>
          <path class="cls-13" d="M60.55,68.45c-.58,1.63.73,3.81,2.58,3.59,1.36-.08,2.67-1.72,2.47-3.22-.34-2.9-4.01-3.21-4.99-.53l-.06.16Z"/>
          <path class="cls-16" d="M123.67,92.24v9.46h-1.33l-3.03-4.79c-.7-1.11-1.25-2.11-1.7-3.07h-.03c.11,1.28.14,2.43.14,3.9v3.96h-1.15v-9.46h1.24l3,4.8c.66,1.05,1.29,2.13,1.77,3.16h.04c-.07-1.21-.1-2.34-.1-3.91v-4.04h1.15Z"/>
          <g>
            <line class="cls-8" x1="113.72" y1="115.89" x2="119.27" y2="107.34"/>
            <polygon class="cls-16" points="121.05 109.41 121.32 104.19 116.66 106.56 121.05 109.41"/>
          </g>
          <path class="cls-4" d="M15.99,151.39l1.66-4.65,4.71-8.72,4.01-5.32,2.83-3.3,6.68-7.97,9.23-12.55"/>
          <path class="cls-7" d="M25.55,225.29l10.38,12.57,20.07,26.74,12.69,18.57,8.01,12.21,19.29,29.18,29.87,43.4"/>
          <path class="cls-6" d="M75.63,64.43l7.21-7.71,25.43-33.67"/>
          <path class="cls-2" d="M.48,36.98l14-2.3,11.38-4.07,15.71-3.39,13.21-2.91,47.04-12.9"/>
          <path class="cls-3" d="M128.81,366.85c-9.16,5.94-19.1,11.74-30.15,11.06-14.95-.85-28.87-10.76-35.15-24.14-7.16-14.27-5.27-30.95-6.74-46.43-.87-15.65-4.86-30.94-7.07-46.41-1.97-15.27-1.08-31.3-.56-46.81.73-18.28.96-35.15-.93-53.16-1.33-15.9-.95-31.28-3.23-46.8-1.89-14.96-7.4-29.94-11.51-44.25-4.73-16.66-9.98-33.2-15.54-49.58"/>
          <path class="cls-10" d="M128.81,366.85c-9.17,5.93-19.1,11.74-30.15,11.06-14.95-.86-28.84-10.73-35.15-24.14-7.16-14.27-5.27-30.95-6.74-46.43-.87-15.65-4.86-30.94-7.07-46.41-1.96-15.2-1.09-31.15-.57-46.58.32-11.72.84-21.85.45-33.17-.71-14.95-2.35-30.57-2.7-45.33-.53-12.5-1.8-24.48-4.77-36.58-2.03-8.26-4.91-16.52-7.31-24.81-5.26-18.37-10.87-36.57-17.1-54.76"/>
        </g>
        <g>
          <rect x="82.59" y="360.22" width=".92" height=".92"/>
          <rect x="85.91" y="360.22" width=".92" height=".92"/>
        </g>
        <g>
          <rect class="cls-20" x="68.26" y="341.02" width=".92" height=".92"/>
          <rect class="cls-20" x="71.58" y="341.02" width=".92" height=".92"/>
        </g>
        <g>
          <rect class="cls-16" x="69.43" y="262.85" width=".92" height=".92" transform="translate(15.72 -3.68) rotate(3.4)"/>
          <rect class="cls-16" x="72.75" y="263.05" width=".92" height=".92" transform="translate(15.73 -3.87) rotate(3.4)"/>
        </g>
      </g>
    </g>
    <g>
      <line class="cls-9" x1="59.19" y1="50.55" x2="59.19" y2="43.75"/>
      <path class="cls-19" d="M62.51,46.05c-1.11-.69-2.22.69-3.32,0v-2.3c1.11.69,2.22-.69,3.32,0,0,.77,0,1.53,0,2.3Z"/>
    </g>
  </g>
</svg>