<?xml version="1.0" encoding="UTF-8"?>
<svg id="Layer_2" data-name="Layer 2" xmlns="http://www.w3.org/2000/svg" xmlns:xlink="http://www.w3.org/1999/xlink" viewBox="0 0 144.75 367">
  <defs>
    <style>
      .cls-1 {
        fill: #9aa255;
      }

      .cls-2 {
        fill: #788448;
      }

      .cls-3 {
        stroke-width: 4.98px;
      }

      .cls-3, .cls-4 {
        stroke: #fff;
      }

      .cls-3, .cls-4, .cls-5, .cls-6, .cls-7, .cls-8, .cls-9 {
        fill: none;
      }

      .cls-3, .cls-7 {
        stroke-linejoin: round;
      }

      .cls-3, .cls-7, .cls-8 {
        stroke-linecap: round;
      }

      .cls-4 {
        stroke-width: 1.35px;
      }

      .cls-4, .cls-9 {
        stroke-miterlimit: 10;
      }

      .cls-10 {
        fill: url(#New_Pattern);
      }

      .cls-10, .cls-11, .cls-12, .cls-9 {
        fill-rule: evenodd;
      }

      .cls-13 {
        fill: #fff;
      }

      .cls-14 {
        fill: #5f6e38;
      }

      .cls-15 {
        fill: #8d954b;
      }

      .cls-16 {
        fill: #8c984e;
      }

      .cls-11 {
        fill: #ffedcb;
      }

      .cls-6 {
        clip-rule: evenodd;
      }

      .cls-7 {
        stroke: #bbb;
        stroke-width: 7.58px;
      }

      .cls-8 {
        stroke: #231f20;
        stroke-miterlimit: 2;
        stroke-width: .3px;
      }

      .cls-12 {
        fill: #a9b05c;
      }

      .cls-17 {
        fill: #ec1c24;
      }

      .cls-18 {
        fill: #06c;
      }

      .cls-9 {
        stroke: #aad3df;
        stroke-width: 1.06px;
      }

      .cls-19 {
        clip-path: url(#clippath);
      }

      .cls-20 {
        fill: #858c48;
      }
    </style>
    <clipPath id="clippath">
      <path class="cls-6" d="M74.62,367c-13.11-.17-22.5-6.05-26.04-8.33-9-5.8-21.89-17.97-30.21-51.03-7.91-31.42-2.38-44.71,0-129.25.5-17.9.76-26.85.63-37.87-.5-42.12-4.57-48.96-2.08-72.72,2.56-24.44,4.48-42.8,19.38-55.66C56.97-5.73,86.11,1.27,87.96,1.74c24.4,6.26,36.13,26,40.25,32.92,6.7,11.28,9.65,22.82,11.63,48.55,2.26,29.35,1.01,48.04.19,73.97-.07,2.17-1.01,38.4-2.9,110.85-.23,8.95-.7,27.15-7.92,49.17-8.55,26.09-19.25,35.21-22.09,37.5-4.12,3.34-15.81,12.51-32.5,12.29Z"/>
    </clipPath>
    <pattern id="New_Pattern" data-name="New Pattern" x="0" y="0" width="24" height="24" patternTransform="translate(-1318.6 1230)" patternUnits="userSpaceOnUse" viewBox="0 0 24 24">
      <g>
        <rect class="cls-5" width="24" height="24"/>
        <rect class="cls-1" width="12" height="12"/>
        <rect class="cls-15" x="12" width="12" height="12"/>
        <rect class="cls-20" x="12" y="12" width="12" height="12"/>
        <rect class="cls-16" y="12" width="12" height="12"/>
      </g>
    </pattern>
  </defs>
  <g id="Hole_5" data-name="Hole 5">
    <g class="cls-19">
      <g>
        <path class="cls-14" d="M22.07,13.34C26.88,7.07,37.54,0,37.54,0h77.97s30.2,31.04,29.22,46.2c-3.46,53.08-1.24,162.2-1.24,162.2l-.03,85.12-35.48,73.48h-60.75l-27.26-32.61-12.65-71.74s-1.93-12.48-2.49-29.8c-.77-24.02,7.83-29.95,1.67-72.97-5.92-41.35,4.16-47.12,3.17-74.71-1.09-30.36,6.12-55.4,12.41-71.84Z"/>
        <path class="cls-9" d="M3.79,203.7c9.47,4.29,6.57,2.24,14.06,7.46,2.73,1.9,9.95,9.1,15.85,21.31,7.86,16.27,4.65,18.17,11.51,25.38,6.15,6.48,13.38,9.02,17.96,15.03,1.7,2.24,6.83,4.55,8.86,6.49,7.7,7.34,23.12,7.72,31.11,17.78,2.18,2.75,4.76,6.84,11.43,18.06,7.57,12.74,13.83,23.76,18.67,32.38"/>
        <path class="cls-12" d="M35.29,364.71c12.93-4.6,26.98-7.47,37.44-16.8,7.28-7.32,12.74-17.88,12.34-28.28-.96-10.96-7.66-21.23-14.63-29.38-7.5-8.91-19.56-7.69-28.46-1.59l-.18.12c-21.95,14.32-2.54,45.39-24.01,57.08l17.5,18.85Z"/>
        <path class="cls-12" d="M73.4,211.87c-5.64,7.13,0,18.3.92,26.43,1.05,5.16,1.96,11.31,4.79,15.13,3.78,5.43,9.49,3.06,11.11-2.75,2.44-8.17.52-16.93-1.45-25-1.52-5.9-3.77-13.96-10.35-15.65-1.8-.34-3.55.36-4.9,1.71l-.13.13Z"/>
        <path class="cls-11" d="M45.45,79.37c-3.81,6,1.6,12.91,5.99,17.03,2.47,2.45,4.92,6.48,8.93,5.2,5.65-1.72,9.05-6.93,12.59-11.25,2.19-2.73,4.49-6.25,3.36-9.88-.4-1.22-1.25-2.4-2.53-2.71-3.82-.55-6.56,2.84-8.34-2.54-1.83-8.79-10.87-7.82-8.72,1.49.7,3.14,4.07,5.21,4.59,8.34.46,3.84-3.45,4.68-5.25,1.75-1.56-2.16-2.3-5.18-4.17-6.94-1.6-1.69-4.61-2.52-6.34-.6l-.12.13Z"/>
        <path class="cls-10" d="M75.53,71.88c-.02.33.37.82.62,1.19,1.39,1.84,3.02,4.16,3.8,6.32,2.36,5.65-.95,11.31-2,16.75-.82,6.81,3.47,10.54,9.91,8.01,2.59-1.11,4.47-3.77,6.28-5.82,2.8-3.65,5.33-8.06,6.94-12.26,1.33-3.83,2.55-7.61,3.59-11.49.25-.92.61-2.63-.75-1.48-8.63,8.59-16.13,6.21-25.43.24-.75-.41-2.34-1.59-2.94-1.49l-.02.03Z"/>
        <path class="cls-7" d="M3.79,298.2c23.52-14.65,43.16-23.78,48.59-53.01,2.35-13.05-1.61-26.04-5.33-38.61-3.55-11.97-6.52-23.99-8.06-36.42-2.76-23.71-4.39-47.14-5.82-70.38-1.13-26.33-3.84-58.38,16.77-77.93,21.72-18.57,53.01-5.64,78.26-1.14"/>
        <path class="cls-3" d="M3.79,298.2c23.52-14.65,43.16-23.78,48.59-53.01,2.35-13.05-1.61-26.04-5.33-38.61-3.55-11.97-6.52-23.99-8.06-36.42-2.76-23.71-4.39-47.14-5.82-70.38-1.13-26.33-3.84-58.38,16.77-77.93,21.72-18.57,53.01-5.64,78.26-1.14"/>
        <g>
          <rect x="53.96" y="327.02" width="1.95" height="1.95" transform="translate(46.33 -4.46) rotate(8.02)"/>
          <rect x="60.95" y="328.01" width="1.95" height="1.95" transform="translate(46.53 -5.42) rotate(8.02)"/>
        </g>
        <g>
          <rect class="cls-18" x="57.68" y="300.6" width="1.95" height="1.95" transform="translate(42.67 -5.24) rotate(8.02)"/>
          <rect class="cls-18" x="64.68" y="301.58" width="1.95" height="1.95" transform="translate(42.88 -6.2) rotate(8.02)"/>
        </g>
        <g>
          <rect class="cls-13" x="77.62" y="231.88" width="1.95" height="1.95" transform="translate(33.28 -8.69) rotate(8.02)"/>
          <rect class="cls-13" x="84.62" y="232.87" width="1.95" height="1.95" transform="translate(33.48 -9.66) rotate(8.02)"/>
        </g>
        <g>
          <line class="cls-4" x1="107.13" y1="266.35" x2="115.76" y2="260.34"/>
          <polygon class="cls-13" points="116.66 263 118.95 258.12 113.57 258.57 116.66 263"/>
        </g>
        <g>
          <path class="cls-12" d="M92.23,80.86c-6.92,0-13.14-4.16-18.63-7.82l-1.16-.77c-4.95-3.48-9.66-6.97-13.35-11.67-7.36-8.75-10.38-22.2-1.4-29.78l.12-.11c3.53-2.97,7.28-4.46,11.19-4.46,4.99,0,10.15,2.33,16.24,7.33,3.95,3.1,8.1,5.62,12.5,8.28,1.61.98,3.23,1.96,4.84,2.97,6.16,3.96,9.33,9.85,8.71,16.16-.67,7.65-5.95,16.75-14.76,19.31-1.43.38-2.86.56-4.29.56h0Z"/>
          <path class="cls-2" d="M69,28.42c5.15,0,10.14,2.95,14.87,6.83,5.6,4.39,11.6,7.66,17.56,11.42,4.87,3.14,8.29,8.11,7.71,14.11-.65,7.49-5.75,15.28-13.21,17.44-1.25.33-2.48.47-3.69.47-6.73,0-12.98-4.51-18.59-8.23-4.66-3.28-9.31-6.7-12.85-11.2-6.09-7.25-10-19.78-1.71-26.79l.16-.14c3.29-2.77,6.55-3.91,9.75-3.91M69,24.09c-4.44,0-8.66,1.66-12.54,4.93l-.04.03-.04.04-.13.11c-9.98,8.48-6.84,23.2,1.18,32.79,3.87,4.9,8.69,8.48,13.72,12.01l.05.03.05.03,1.15.77c5.74,3.84,12.25,8.19,19.83,8.19,1.62,0,3.23-.21,4.79-.62h.06s.05-.03.05-.03c8.74-2.54,15.45-11.27,16.32-21.22.69-7.1-2.83-13.72-9.68-18.13-1.67-1.05-3.32-2.05-4.91-3.02-4.32-2.62-8.41-5.1-12.29-8.14-4.09-3.35-10.35-7.78-17.58-7.78h0Z"/>
        </g>
      </g>
      <path class="cls-13" d="M116.44,244.28v9.43h-1.33l-3.02-4.77c-.7-1.11-1.25-2.1-1.69-3.07h-.03c.11,1.27.14,2.42.14,3.89v3.95h-1.15v-9.43h1.23l2.99,4.79c.66,1.05,1.29,2.13,1.76,3.15h.04c-.07-1.2-.1-2.34-.1-3.9v-4.03h1.15Z"/>
    </g>
    <g>
      <line class="cls-8" x1="70.57" y1="46.2" x2="70.57" y2="39.4"/>
      <path class="cls-17" d="M73.9,41.7c-1.11-.69-2.22.69-3.32,0v-2.3c1.11.69,2.22-.69,3.32,0,0,.77,0,1.53,0,2.3Z"/>
    </g>
  </g>
</svg>