<?xml version="1.0" encoding="UTF-8"?>
<svg id="Layer_2" data-name="Layer 2" xmlns="http://www.w3.org/2000/svg" xmlns:xlink="http://www.w3.org/1999/xlink" viewBox="0 0 65.22 368.47">
  <defs>
    <style>
      .cls-1 {
        fill: #9aa255;
      }

      .cls-2 {
        fill: #788448;
      }

      .cls-3 {
        fill: url(#New_Pattern);
      }

      .cls-3, .cls-4, .cls-5 {
        fill-rule: evenodd;
      }

      .cls-6 {
        fill: #fff;
      }

      .cls-7, .cls-8, .cls-9, .cls-10, .cls-11 {
        fill: none;
      }

      .cls-8 {
        stroke-miterlimit: 10;
        stroke-width: 1.12px;
      }

      .cls-8, .cls-9 {
        stroke: #fff;
      }

      .cls-12 {
        fill: #5f6e38;
      }

      .cls-13 {
        fill: #8d954b;
      }

      .cls-9 {
        stroke-width: 2.04px;
      }

      .cls-9, .cls-10, .cls-11 {
        stroke-linecap: round;
      }

      .cls-9, .cls-11 {
        stroke-linejoin: round;
      }

      .cls-14 {
        fill: #8c984e;
      }

      .cls-4 {
        fill: #ffedcb;
      }

      .cls-10 {
        stroke: #231f20;
        stroke-miterlimit: 2;
        stroke-width: .3px;
      }

      .cls-5 {
        fill: #a9b05c;
      }

      .cls-11 {
        stroke: #bbb;
        stroke-width: 3.1px;
      }

      .cls-15 {
        fill: #ec1c24;
      }

      .cls-16 {
        fill: #06c;
      }

      .cls-17 {
        clip-path: url(#clippath);
      }

      .cls-18 {
        fill: #858c48;
      }
    </style>
    <clipPath id="clippath">
      <path class="cls-7" d="M53.54,368.44c3.25.3,6.92-1.47,9.03-3.98,4.43-5.25,2.14-13.82,1.41-16.75-5.38-21.7-1.38-44.71-3.21-66.99-.79-9.53-1.24-23.2-2.16-50.55-1.17-35-1.76-52.5-1.25-75.41.59-26.31,1.92-30.76,2.04-59.75.01-2.58.04-20.96-2.04-45.18-3.35-39.07-7.95-43.81-11.59-45.96-9.74-5.75-25.39-.41-34.17,8.33C2.55,21.2,1.53,33.1.8,50c-1.74,40.53-.13,72.02,0,74.58,2.29,45.15-1.66,39.35.91,76.92,1.75,25.66,3.44,48.51,11.54,77.96,6.26,22.75,6.17,12.45,20.68,54.78,6.05,17.63,10.85,33.39,19.6,34.2Z"/>
    </clipPath>
    <pattern id="New_Pattern" data-name="New Pattern" x="0" y="0" width="24" height="24" patternTransform="translate(-3315.89 1231.47)" patternUnits="userSpaceOnUse" viewBox="0 0 24 24">
      <g>
        <rect class="cls-7" width="24" height="24"/>
        <rect class="cls-1" width="12" height="12"/>
        <rect class="cls-13" x="12" width="12" height="12"/>
        <rect class="cls-18" x="12" y="12" width="12" height="12"/>
        <rect class="cls-14" y="12" width="12" height="12"/>
      </g>
    </pattern>
  </defs>
  <g id="Hole_17" data-name="Hole 17">
    <g class="cls-17">
      <path class="cls-12" d="M53.54,368.44c3.25.3,6.92-1.47,9.03-3.98,4.43-5.25,2.14-13.82,1.41-16.75-5.38-21.7-1.38-44.71-3.21-66.99-.79-9.53-1.24-23.2-2.16-50.55-1.17-35-1.76-52.5-1.25-75.41.59-26.31,1.92-30.76,2.04-59.75.01-2.58.04-20.96-2.04-45.18-3.35-39.07-7.95-43.81-11.59-45.96-9.74-5.75-25.39-.41-34.17,8.33C2.55,21.2,1.53,33.1.8,50c-1.74,40.53-.13,72.02,0,74.58,2.29,45.15-1.66,39.35.91,76.92,1.75,25.66,3.44,48.51,11.54,77.96,6.26,22.75,6.17,12.45,20.68,54.78,6.05,17.63,10.85,33.39,19.6,34.2Z"/>
      <path class="cls-3" d="M44.89,70.88c.54-9.32-3.8-18.69-6.35-27.61-1.25-3.67-3-8.61-5.83-10.94-1.14-.75-2.64,4.59-3.07,5.37-.74,1.81-.56,3.26-.17,5.84,1.55,8.67-7.53,13.49-12.07,19.38-5.62,7.28-4.49,16.99-4.15,25.68.35,7.61.43,14.75-1.14,22.12-.67,3.12-1.64,6.34-2.45,9.49-3.86,14.62,6.08,17.52.49,34.71-2.26,8.54-4.65,18.41-3.17,27.47,1.94,7.87,4.4,15.67,4.8,23.92.51,5.29,1.31,9.41,1.49,14.53.18,3.89-.08,8.97.08,12.88-.02,6.55,3.36,11.53,7.15,16.44,3.29,4.19,6.6,10.31,12.63,9.99,3.14-.15,6.05-2.41,7.13-5.37,1.74-4.67-1.25-9.41-2.97-13.69-2.07-4.55-2.34-9.66-1.58-14.56.98-6.64,4.31-13.89,5.87-20.63,1.1-4.74-.05-9.32-2.44-13.43-4.41-7.26-11.21-14.77-9.06-23.91,1.03-5.13,3.9-9.72,5.66-14.59,2.69-6.06,1.23-12.42-.86-18.41-2.14-6.2-2.15-12.98-1.72-19.54.41-6.18-.03-12.38,1.84-18.33,3.06-8.82,9.29-16.99,9.85-26.63v-.18Z"/>
      <g>
        <path class="cls-5" d="M29.13,41.86c-1.21-.03-2.25-.72-3.26-1.4-.46-.31-.94-.63-1.42-.87-1.04-.61-2.17-.92-3.36-1.24-.69-.19-1.41-.38-2.1-.64-2.26-.74-2.85-3.04-3.24-4.56-.16-.62-.38-1.23-.6-1.88-.33-.94-.67-1.92-.85-2.95-.39-2.62-.61-6.31,1.92-8.23,1.06-.83,2.41-1.27,3.87-1.27,2.48,0,4.87,1.27,6.08,3.24.67,1.01,1.11,2.12,1.54,3.2.4.99.77,1.92,1.31,2.77.31.52.64,1.03.96,1.54,1.24,1.93,2.52,3.93,2.77,6.23l.02.17c.16,1.39-.05,3.49-1.21,4.79-.63.71-1.47,1.09-2.43,1.09h-.02Z"/>
        <path class="cls-2" d="M20.1,19.72c2.09,0,4.23,1.04,5.33,2.82,1.24,1.88,1.67,4.1,2.86,5.98,1.36,2.3,3.31,4.71,3.6,7.39l.02.17c.22,1.9-.39,4.9-2.76,4.9-1.44-.03-2.76-1.4-4.29-2.17-1.7-1.01-3.74-1.25-5.56-1.92-1.75-.57-2.27-2.34-2.69-3.94-.42-1.6-1.16-3.14-1.44-4.76-.37-2.51-.53-5.78,1.58-7.38.96-.74,2.14-1.09,3.34-1.09M20.1,17.95c-1.67,0-3.19.5-4.42,1.46-2.89,2.19-2.67,6.21-2.25,9.04.19,1.14.55,2.15.89,3.13.22.63.43,1.23.58,1.81.41,1.59,1.09,4.26,3.82,5.17.72.26,1.45.46,2.15.65,1.14.31,2.21.6,3.09,1.12l.05.03.05.03c.43.21.86.5,1.32.81,1.06.71,2.27,1.51,3.73,1.54h0c1.26,0,2.33-.48,3.13-1.38,1.35-1.52,1.61-3.91,1.42-5.49l-.02-.15c-.27-2.51-1.67-4.69-2.91-6.61-.32-.5-.64-1-.93-1.49v-.02s-.03-.02-.03-.02c-.49-.78-.85-1.68-1.24-2.62-.44-1.11-.9-2.25-1.63-3.36-1.37-2.21-4.05-3.64-6.82-3.64h0Z"/>
      </g>
      <path class="cls-5" d="M52.96,338.47c1.03-.44.43-2.76.22-4.42-.56-3.87-1.36-9.62-1.77-12.29-.09-.49-.2-1-.46-1.37-1.01-1.1-2.87-.4-4.27-.29-1.58.26-3.7.53-3.22,2.47.74,3.67,2.43,10.8,3.24,14.36.25,1.12.75,2.04,2.01,2.15,1.2.15,3.14,0,4.18-.54l.09-.06Z"/>
      <path class="cls-4" d="M46.92,183.59c-.1-1.28-1.02-2.11-2.35-1.61-3.93.82-1.04-4.64-2.48-6.4-.61-1.16-2.02-1.52-2.53-2.43-.67-1.52-.9-3.7-2.9-4.15-1.25-.35-2.37.59-2.58,1.82-.84,3.68,2.41,6.55,4.22,9.39,1.37,2.4,1.48,5.75,4.12,7.17,2.32,1.24,4.83-1.27,4.52-3.63v-.15Z"/>
      <path class="cls-5" d="M50.05,304.95c.94-.45.51-1.55.16-3.41-.79-3.09-1.08-6.99-2.26-10.04-.22-.29-.54-.45-.94-.53-2.09-.27-4.75.36-4.04,2.31.53,2.41,1.72,7.59,2.31,10.12.2,2.07,2.8,2.31,4.66,1.61l.11-.06Z"/>
      <path class="cls-5" d="M55.01,362.6c.44-.27.34-1.04.32-2.28-.1-2.12,0-4.64-.22-6.07-.35-1-1.73-.51-2.59-.53-.74.1-1.8.05-2.07.74-.18,1.91.41,5.33.54,7.06.1.78.62,1.11,1.41,1.18.73.07,1.93.2,2.54-.05l.08-.05Z"/>
      <path class="cls-4" d="M24.38,45.11c-1.32-2.09-3.53,1.88-5.36-2.14-.84-2.11-3.78-2.21-3.55.35.44,1.7,2.38,2.83,3.64,4.02,1.74,1.71,5.79.62,5.33-2.11l-.04-.12Z"/>
      <path class="cls-4" d="M26.71,15.19c.11-1.04-1.2-1.96-2.12-1.27-.67.48-1.2,1.56-2.18,1.05-.76-.35-1.43-1.05-2.34-.79-1.56.16-2.05,2.06-1.25,3.2,1.3,1.56,3.29.12,4.72-.39,1.35-.21,2.88.13,3.16-1.65v-.14Z"/>
      <path class="cls-4" d="M37.02,27.75c-.28-.45-1.24-.34-1.67-.81-.74-.74-.36-2.61-1.78-2.81-2.06-.25-2.85,2.16-1.11,3.23.96.65,1.63,1.94,2.94,1.88.93.04,1.89-.5,1.67-1.4l-.05-.1Z"/>
      <path class="cls-11" d="M42.71,365.49c2.38-3.8,3.58-8.29,5.6-12.29,8.07-14.73,8.61-13,8.22-30.14.17-4.01.74-7.97.82-11.98.06-8.28-1.27-16.57-1.29-24.9-.2-5.46-1.43-10.81-2.31-16.18-1.35-7.54-.32-15.17-2.21-22.66-1.13-4.89-3.65-9.64-4.98-14.55-1.35-4.85-1.89-9.73-1.27-14.81.96-11.79,9.11-22.88,6.12-34.91-1.69-7.94-6.77-16.3-6.29-24.46.28-5.94,2.19-11.75,1.93-17.75-.39-8.83-3.95-17.72-3.38-26.58,1.39-20.44,10.82-40.29,7.36-60.92-.94-4.96-3.35-9.52-4.56-14.22-.75-2.79-1.16-5.64-1.43-8.52-.62-14.77-4.6-21.18-12.6-29.06"/>
      <path class="cls-9" d="M42.71,365.49c2.38-3.8,3.58-8.29,5.6-12.29,8.07-14.73,8.61-13,8.22-30.14.17-4.01.74-7.97.82-11.98.06-8.28-1.27-16.57-1.29-24.9-.2-5.46-1.43-10.81-2.31-16.18-1.35-7.54-.32-15.17-2.21-22.66-1.13-4.89-3.65-9.64-4.98-14.55-1.35-4.85-1.89-9.73-1.27-14.81.96-11.79,9.11-22.88,6.12-34.91-1.69-7.94-6.77-16.3-6.29-24.46.28-5.94,2.19-11.75,1.93-17.75-.39-8.83-3.95-17.72-3.38-26.58,1.39-20.44,10.82-40.29,7.36-60.92-.94-4.96-3.35-9.52-4.56-14.22-.75-2.79-1.16-5.64-1.43-8.52-.62-14.74-4.58-21.15-12.54-29.01"/>
    </g>
    <g>
      <rect x="50.95" y="357.28" width=".9" height=".9"/>
      <rect x="54.21" y="357.28" width=".9" height=".9"/>
    </g>
    <g>
      <rect class="cls-16" x="46.18" y="327.33" width=".9" height=".9"/>
      <rect class="cls-16" x="49.44" y="327.33" width=".9" height=".9"/>
    </g>
    <g>
      <rect class="cls-6" x="44.55" y="297.31" width=".9" height=".9" transform="translate(5.19 -.74) rotate(1)"/>
      <rect class="cls-6" x="47.81" y="297.36" width=".9" height=".9" transform="translate(5.19 -.79) rotate(1)"/>
    </g>
    <path class="cls-6" d="M32.61,271.84v8.08h-1.14l-2.59-4.09c-.6-.95-1.07-1.8-1.45-2.63h-.02c.1,1.09.12,2.08.12,3.33v3.38h-.98v-8.08h1.06l2.57,4.1c.56.9,1.1,1.82,1.51,2.7h.04c-.06-1.03-.08-2-.08-3.35v-3.45h.98Z"/>
    <g>
      <line class="cls-8" x1="29.78" y1="285.37" x2="29.63" y2="294.08"/>
      <polygon class="cls-6" points="27.41 293.39 29.57 297.3 31.88 293.47 27.41 293.39"/>
    </g>
    <g>
      <line class="cls-10" x1="18.95" y1="27.78" x2="18.95" y2="20.98"/>
      <path class="cls-15" d="M22.28,23.28c-1.11-.69-2.22.69-3.32,0v-2.3c1.11.69,2.22-.69,3.32,0v2.3Z"/>
    </g>
  </g>
</svg>