<?xml version="1.0" encoding="UTF-8"?>
<svg id="Layer_2" data-name="Layer 2" xmlns="http://www.w3.org/2000/svg" xmlns:xlink="http://www.w3.org/1999/xlink" viewBox="0 0 169.32 403.93">
  <defs>
    <style>
      .cls-1 {
        filter: url(#alpha-6);
      }

      .cls-2 {
        fill: #9aa255;
      }

      .cls-3 {
        filter: url(#alpha);
      }

      .cls-4 {
        fill: #788448;
      }

      .cls-5 {
        opacity: .6;
      }

      .cls-6 {
        fill: url(#New_Pattern);
      }

      .cls-6, .cls-7, .cls-8, .cls-9, .cls-10 {
        fill-rule: evenodd;
      }

      .cls-11 {
        fill: #fff;
      }

      .cls-12 {
        mask: url(#mask);
      }

      .cls-13 {
        filter: url(#alpha-3);
      }

      .cls-14 {
        opacity: .15;
      }

      .cls-15 {
        opacity: .4;
      }

      .cls-16 {
        filter: url(#alpha-5);
      }

      .cls-17, .cls-18, .cls-19, .cls-20, .cls-21 {
        fill: none;
      }

      .cls-22 {
        fill: #8d954b;
      }

      .cls-23 {
        filter: url(#alpha-2);
      }

      .cls-18 {
        stroke-width: 2.14px;
      }

      .cls-18, .cls-19, .cls-20 {
        stroke-linecap: round;
      }

      .cls-18, .cls-20 {
        stroke-linejoin: round;
      }

      .cls-18, .cls-21 {
        stroke: #fff;
      }

      .cls-24 {
        fill: #8c984e;
      }

      .cls-7 {
        fill: #ffedcb;
      }

      .cls-19 {
        stroke: #231f20;
        stroke-miterlimit: 2;
        stroke-width: .3px;
      }

      .cls-8 {
        fill: #a9b05c;
      }

      .cls-20 {
        stroke: #bbb;
        stroke-width: 3.25px;
      }

      .cls-25 {
        fill: #ec1c24;
      }

      .cls-26 {
        filter: url(#alpha-4);
      }

      .cls-27 {
        fill: #06c;
      }

      .cls-21 {
        stroke-miterlimit: 10;
        stroke-width: 1.04px;
      }

      .cls-9 {
        fill: #5f6e38;
      }

      .cls-10 {
        fill: #aad3df;
      }

      .cls-28 {
        clip-path: url(#clippath);
      }

      .cls-29 {
        opacity: .5;
      }

      .cls-30 {
        fill: #858c48;
      }
    </style>
    <clipPath id="clippath">
      <path class="cls-17" d="M50.97,372.81c5.28-.46,9.25-2.78,12.17-4.85,15.88-11.23,23.17-30.73,23.17-30.73,18.24-48.79,20.71-90.14,20.71-90.14,6.59-110.15-6.56-98.24,2.54-139.71,0,0,6.3-28.69,0-77.81-.53-4.17-1.86-12.71-8.54-18.33-5.93-4.99-13.19-5.23-17.1-5.37-17.01-.57-29.44,10.35-32.95,13.44-3.2,2.82-11.62,10.86-16.76,25.06-6.76,18.69-2.62,33.65,0,52.28,1.38,9.78.92,33.46,0,80.82-.65,33.5-.97,50.26-2.96,71.23-2.48,26.13-1.83,52.55-5.39,78.56,0,0-1.65,12.07,2.16,28.02,1.11,4.65,2.33,7.98,5.09,10.98,6.74,7.34,17.07,6.6,17.87,6.53Z"/>
    </clipPath>
    <filter id="alpha" x="0%" y="0%" width="100%" height="100%">
      <feColorMatrix in="SourceGraphic" values="0 0 0 0 1 0 0 0 0 1 0 0 0 0 1 0 0 0 1 0"/>
    </filter>
    <filter id="alpha-2" data-name="alpha" x="0%" y="0%" width="100%" height="100%">
      <feColorMatrix in="SourceGraphic" values="0 0 0 0 1 0 0 0 0 1 0 0 0 0 1 0 0 0 1 0"/>
    </filter>
    <filter id="alpha-3" data-name="alpha" x="0%" y="0%" width="100%" height="100%">
      <feColorMatrix in="SourceGraphic" values="0 0 0 0 1 0 0 0 0 1 0 0 0 0 1 0 0 0 1 0"/>
    </filter>
    <filter id="alpha-4" data-name="alpha" x="0%" y="0%" width="100%" height="100%">
      <feColorMatrix in="SourceGraphic" values="0 0 0 0 1 0 0 0 0 1 0 0 0 0 1 0 0 0 1 0"/>
    </filter>
    <filter id="alpha-5" data-name="alpha" x="0%" y="0%" width="100%" height="100%">
      <feColorMatrix in="SourceGraphic" values="0 0 0 0 1 0 0 0 0 1 0 0 0 0 1 0 0 0 1 0"/>
    </filter>
    <filter id="alpha-6" data-name="alpha" x="0%" y="0%" width="100%" height="100%">
      <feColorMatrix in="SourceGraphic" values="0 0 0 0 1 0 0 0 0 1 0 0 0 0 1 0 0 0 1 0"/>
    </filter>
    <mask id="mask" x="-31.07" y="-527.02" width="603.23" height="1143.25" maskUnits="userSpaceOnUse">
      <g>
        <g id="mask0">
          <g class="cls-3">
            <rect class="cls-15" x="-31.07" y="-527.02" width="603.23" height="1143.25"/>
          </g>
        </g>
        <g id="mask1">
          <g class="cls-23">
            <rect class="cls-29" x="-31.07" y="-527.02" width="603.23" height="1143.25"/>
          </g>
        </g>
        <g id="mask2">
          <g class="cls-13">
            <rect class="cls-29" x="-31.07" y="-527.02" width="603.23" height="1143.25"/>
          </g>
        </g>
        <g id="mask3">
          <g class="cls-26">
            <rect class="cls-5" x="-31.07" y="-527.02" width="603.23" height="1143.25"/>
          </g>
        </g>
        <g id="mask4">
          <g class="cls-16">
            <rect class="cls-14" x="-31.07" y="-527.02" width="603.23" height="1143.25"/>
          </g>
        </g>
        <g id="mask5">
          <g class="cls-1">
            <rect class="cls-14" x="-31.07" y="-527.02" width="603.23" height="1143.25"/>
          </g>
        </g>
      </g>
    </mask>
    <pattern id="New_Pattern" data-name="New Pattern" x="0" y="0" width="24" height="24" patternTransform="translate(-992.82 1235.86)" patternUnits="userSpaceOnUse" viewBox="0 0 24 24">
      <g>
        <rect class="cls-17" width="24" height="24"/>
        <rect class="cls-2" width="12" height="12"/>
        <rect class="cls-22" x="12" width="12" height="12"/>
        <rect class="cls-30" x="12" y="12" width="12" height="12"/>
        <rect class="cls-24" y="12" width="12" height="12"/>
      </g>
    </pattern>
  </defs>
  <g id="Hole_3" data-name="Hole 3">
    <g class="cls-28">
      <g>
        <g class="cls-12">
          <g id="surface1">
            <path class="cls-9" d="M76.91,364.91c-9.72,11.61-32.83,17.19-53.84,12.34-6.26-1.44-16.76-6.85-20.27-10.12-1.43-1.33-2.31-4.51-2.64-6.06-.36-1.68,0-5.09,0-6.79,0-1.24-.2-3.73,0-4.97,1.79-10.95,12.24-32.3,14.24-43.24,1.94-10.59,2.6-31.95,1.71-42.59-.37-4.47-3.48-13.32-3.71-17.79-.66-12.84,5.44-38.44,5.37-51.29-.02-3.09-1.08-9.33-2.89-12.24-.68-1.09-4.14-2.79-4.23-3.94-.33-4.45,12.01-11.65,14.09-15.95,1.35-2.8-1.51-8.66-1.71-11.56-.85-12.56,4.57-37.92.59-50.29-1.53-4.74-9.31-13.7-9.52-18.52-.78-18.16,6.79-58.03,29.82-70.69C62.41,1.05,136.03-6.3,142.16,7.87c16.19,37.42-2.55,282.1-65.25,357.04Z"/>
            <path class="cls-6" d="M60.13,234.02c-.64,7.52,4.02,14.26,4.3,21.68.1,7-3.61,14.91.1,21.47,5.49,9.27,21.14,6.91,23.7-3.65,2.32-7.87,1.61-15.68,1.73-23.75.3-6.81,1.75-13.78,2.89-20.5,1.17-6.65,2.29-13.2,2.15-19.88-.83-11.21-4.82-22.03-8.21-32.66-1.12-3.59-2.14-6.92-3.16-10.59-1.13-4.05-2.02-8.92-6.41-10.6-4.78-1.62-11.9-1.64-15.33,2.47-1.51,2.03-1.79,4.6-1.91,7.09-.29,9.53,2.87,18.76,6.95,27.26,3.12,7.01,1.02,14.69-1.22,21.57-.82,2.9-1.23,5.86-2.04,8.76-.97,3.86-3.03,7.26-3.53,11.15l-.02.18Z"/>
            <path class="cls-6" d="M51.04,70.57c-.53,10.87,2.32,21.99,4.81,32.49,2.4,11.37,4.66,23,5.46,34.6.64,10.88,10.41,12.22,18.54,7.18,4.57-2.88,6.61-7.69,6.42-12.98-.34-9.79-2.32-19.68-1.93-29.52,1.34-12.14-2.37-16.11-7.65-26.3-5.32-9.98.75-13.58,1.39-22.64-.2-4.81-2.41-10.25-1.91-14.74.32-3.85,1.28-7.93,3.05-11.53.79-1.98,5.18-5.49,3.43-7.18-1.56-1.01-4.45-.65-6.31-.04-4.27,1.32-6.93,6.02-9.02,9.98-1.79,3.42-3.97,7.35-5.74,10.7-4.86,9.4-10.05,18.88-10.52,29.76v.21Z"/>
            <g>
              <path class="cls-8" d="M79.66,37.76c-1.53,0-2.63-.74-3.26-2.2l-.02-.05-.08-.26v-.06c-.71-4.21,3.39-11.59,6.85-13.82,1.11-.59,2.3-.85,3.71-.85,2.38,0,4.85.76,7.04,1.42l.47.14c3.34.9,4.73,4.18,3.61,8.56-.66,4.47-2.57,6.46-6.19,6.46-1.44,0-3.08-.31-4.81-.63l-.2-.04c-.27-.07-.48-.1-.73-.1-.88,0-1.96.34-3,.67-1.13.36-2.3.73-3.39.73h0Z"/>
              <path class="cls-4" d="M86.86,21.46c2.41,0,5.05.86,7.24,1.53,3.48.94,3.74,4.51,2.96,7.49-.65,4.53-2.54,5.71-5.28,5.71-1.41,0-3.04-.31-4.85-.65-.29-.08-.59-.11-.9-.11-2.01,0-4.49,1.41-6.39,1.41-1.02,0-1.87-.4-2.4-1.64l-.04-.15c-.62-3.74,3.22-10.81,6.44-12.88.97-.51,2.06-.7,3.21-.7M86.86,19.6c-1.54,0-2.91.31-4.07.91l-.08.04-.07.05c-3.75,2.42-8.03,10.15-7.27,14.75l.02.11.03.11.04.15.03.11.05.11c.77,1.78,2.23,2.76,4.11,2.76,1.23,0,2.47-.39,3.67-.78.98-.31,1.99-.63,2.72-.63.16,0,.3.02.41.05l.07.02h.08s.2.05.2.05c1.78.33,3.46.64,4.98.64,4.05,0,6.38-2.36,7.1-7.2,1.22-4.82-.45-8.59-4.27-9.64l-.45-.14c-2.14-.65-4.8-1.46-7.31-1.46h0Z"/>
            </g>
            <path class="cls-8" d="M57.05,339.01c-.15,4.62,5.01,8.14,8.54,4.33,1.42-1.65,1.91-4.09,1.75-6.2-.75-7.25-10.38-4.46-10.28,1.68v.2Z"/>
            <path class="cls-7" d="M77.16,71.46c.08.9.92,1.61,1.57,2.44.96,1.62,2.52,2.95,2.4,4.98-.43,2.86,3.75,6.92,4.8,2.4.32-1.36.14-2.64-.38-3.88-.44-1.12-.22-2.23.36-3.23.66-1.06.61-3.43-.96-3.42-.58-.02-1.37.37-1.65-.34-.35-1.29.57-3.09-.72-4.14-.85-.93-2.15-1.17-3.17-.46-1.76.99-2.22,3.56-2.26,5.48l.02.17Z"/>
            <path class="cls-8" d="M48.34,363.92c.2,1.47,1.67,2.76,3.17,2.25,2.6-1.03,4.45-6.27,6.03-8.92.81-1.69,1.97-3.92,1.55-5.51-1.37-3.98-5.08.22-6.26,2.22-1.86,2.97-4.51,6.19-4.51,9.79l.03.18Z"/>
            <path class="cls-8" d="M70.12,305.57c-.82,6.28,6.3,9.41,8.34,2.33,2.6-8.2-6.29-10.88-8.31-2.53l-.03.19Z"/>
            <path class="cls-7" d="M85.1,15.54c.51,2.23,3.8,3.04,5.88,3.69,1.99.88,4.8,1.99,5.98-.55.34-.77.02-1.56-.85-1.82-1.36-.44-3.1.38-4.35-.44-1.15-.65-1.08-2.04-1.06-3.18.05-1.92-2.49-2.66-3.68-1.29-.84.93-2.04,2.16-1.95,3.44l.02.15Z"/>
            <path class="cls-7" d="M77.89,42.08c.32,2.7,3.31,2.18,5.5,2.16,1.56.07,3.27.48,4.49-.41,1.23-.82,1.5-2.69.64-3.87-1.12-1.69-3.2-.49-4.78-.47-1.02.03-2.05-.38-3.07-.31-1.39.02-2.77,1.35-2.78,2.74v.16Z"/>
            <path class="cls-20" d="M57.53,155.08c5.95-2.79,11.77-3.47,18-5.37,9.99-3.01,18.22-10.88,18.22-25.2"/>
            <path class="cls-20" d="M119.66,14.76c-2.84,10.43-8.47,19.78-10.44,30.53-.82,4.62-1.67,9.27-2.88,13.81-1.65,6.69-4.95,13.85-6.85,20.55"/>
            <path class="cls-20" d="M99.48,79.65c-3.23,10.34-5.61,20.97-7.03,31.77-2,21.34,11.23,24.31,29.36,23.61"/>
            <path class="cls-20" d="M99.48,79.65c3.08,6.28,5.4,12.92,8.25,19.37,2.42,4.73,8.76,5,12.97,7.36"/>
            <path class="cls-20" d="M47.26,74.35c2.42,11.93,5.81,27.27,8.04,39.38,1.06,6.89,3.08,14.13,3.54,21.25.08,10.45-.9,21.21-3.55,31.26-2,6.77-5.8,13.7-8.04,20.47-4.35,13.07-.03,27.87,5.66,40,3.7,7.94,5.7,16.13,7.07,24.87.81,5.68,1.05,11.13-.33,16.66-1.77,6.33-2.44,12.66-1.87,19.17.82,8.71-.83,17.19-2.38,25.7-1.49,10.59-.58,21.46-3.98,31.65-2.16,6.62-5.43,13.26-9.18,19.26-5.77,8.84-11.08,14.12-9.13,25.64"/>
            <path class="cls-20" d="M57.09,402.3l-7.71-1.16-3.67-.09-3.87-.58-6.18-6.9-2.55-3.91"/>
            <path class="cls-20" d="M110.2,39.84c-5.54,1.91-13.66,2.87-12.88,10.54.6,7.89,3.1,16.33,3.61,24.35"/>
            <path class="cls-18" d="M57.53,155.08c5.95-2.79,11.77-3.47,18-5.37,9.99-3.01,18.22-10.91,18.22-25.2"/>
            <path class="cls-18" d="M119.66,14.76c-2.84,10.43-8.47,19.78-10.44,30.53-.82,4.62-1.67,9.27-2.88,13.81-1.65,6.69-4.95,13.85-6.85,20.55"/>
            <path class="cls-18" d="M99.48,79.65c-3.23,10.34-5.61,20.97-7.03,31.77-2,21.34,11.23,24.31,29.36,23.61"/>
            <path class="cls-18" d="M99.48,79.65c3.08,6.28,5.4,12.92,8.25,19.37,2.42,4.73,8.76,5,12.97,7.36"/>
            <path class="cls-18" d="M47.26,74.35c2.42,11.93,5.81,27.27,8.04,39.38,1.06,6.89,3.08,14.13,3.54,21.25.08,10.45-.9,21.21-3.55,31.26-2,6.77-5.8,13.7-8.04,20.47-4.35,13.07-.03,27.87,5.66,40,3.7,7.94,5.7,16.13,7.07,24.87.81,5.68,1.05,11.13-.33,16.66-1.77,6.33-2.44,12.66-1.87,19.17.82,8.71-.83,17.19-2.38,25.7-1.49,10.59-.58,21.46-3.98,31.65-2.16,6.62-5.43,13.26-9.18,19.26-5.77,8.84-11.08,14.12-9.13,25.64"/>
            <path class="cls-18" d="M57.09,402.3l-7.71-1.16-3.67-.09-3.87-.58-6.18-6.9-2.55-3.91"/>
            <path class="cls-18" d="M110.2,39.84c-5.54,1.91-13.66,2.87-12.88,10.54.6,7.89,3.1,16.33,3.61,24.35"/>
          </g>
        </g>
        <g>
          <rect x="51.79" y="357.8" width=".84" height=".84" transform="translate(117.07 2.07) rotate(18.61)"/>
          <rect x="54.66" y="358.77" width=".84" height=".84" transform="translate(117.52 1.21) rotate(18.61)"/>
        </g>
        <g>
          <rect class="cls-27" x="60.29" y="337.32" width=".84" height=".84" transform="translate(82.85 -4.7) rotate(13.89)"/>
          <rect class="cls-27" x="63.23" y="338.05" width=".84" height=".84" transform="translate(83.11 -5.38) rotate(13.89)"/>
        </g>
        <g id="Tees">
          <rect class="cls-11" x="72.55" y="305.63" width=".84" height=".84" transform="translate(5.34 -1.22) rotate(1)"/>
          <rect class="cls-11" x="75.59" y="305.68" width=".84" height=".84" transform="translate(5.34 -1.28) rotate(1)"/>
        </g>
        <path id="water" class="cls-10" d="M84.4,154.75c-1.4,4.32.63,9.82,1.67,14.47,3.2,11.03,7.29,21.78,9.45,33.12,3.38,20.16,2.68,41.32,7.65,61.24.88,3.45,2.35,6.69,4.73,9.33,2.49,2.88,5.97,5.09,8.3,8.08,6.94,9.08,3.7,22.61,3.39,33.21-.14,2.02-.1,7.99,1.64,6.13,1.95-3.56,2.32-8.32,3.02-12.41,1.23-9.42,1.28-18.96.96-28.33-.34-7.78,2.87-13.91,6.64-20.85,4.94-8.82,10.49-18.02,11.67-28.31.8-5.87-.08-11.93.12-17.78.27-12.43,10.85-20.31,18.29-28.91,11-13.8,9.67-26.26-3.64-37.84-9.86-8.69-23.17-8.15-35.56-6.97-10.46,1.08-20.82,1.9-29.89,7.37-3.52,1.94-7.29,4.74-8.4,8.3l-.05.16Z"/>
        <g id="North">
          <path class="cls-11" d="M46.96,254.22v7.51h-1.06l-2.41-3.8c-.56-.88-.99-1.67-1.35-2.44h-.02c.09,1.01.11,1.93.11,3.1v3.14h-.91v-7.51h.98l2.39,3.81c.52.84,1.03,1.69,1.41,2.51h.03c-.06-.96-.08-1.86-.08-3.11v-3.21h.91Z"/>
          <g>
            <line class="cls-21" x1="44.04" y1="276.18" x2="44.18" y2="268.08"/>
            <polygon class="cls-11" points="46.25 268.73 44.23 265.09 42.09 268.65 46.25 268.73"/>
          </g>
        </g>
      </g>
    </g>
    <g>
      <line class="cls-19" x1="89.49" y1="29.68" x2="89.49" y2="22.88"/>
      <path class="cls-25" d="M92.82,25.18c-1.11-.69-2.22.69-3.32,0v-2.3c1.11.69,2.22-.69,3.32,0,0,.77,0,1.53,0,2.3Z"/>
    </g>
  </g>
</svg>