<?xml version="1.0" encoding="UTF-8"?>
<svg id="Layer_2" data-name="Layer 2" xmlns="http://www.w3.org/2000/svg" xmlns:xlink="http://www.w3.org/1999/xlink" viewBox="0 0 105.35 366.8">
  <defs>
    <style>
      .cls-1 {
        stroke: #bbb;
        stroke-width: 4.37px;
      }

      .cls-1, .cls-2, .cls-3, .cls-4, .cls-5, .cls-6, .cls-7 {
        fill: none;
      }

      .cls-1, .cls-2, .cls-5 {
        stroke-linejoin: round;
      }

      .cls-1, .cls-2, .cls-5, .cls-7 {
        stroke-linecap: round;
      }

      .cls-8 {
        fill: #9aa255;
      }

      .cls-2 {
        stroke: #aad3df;
        stroke-width: 2.5px;
      }

      .cls-9 {
        fill: #788448;
      }

      .cls-10 {
        fill: url(#New_Pattern);
      }

      .cls-10, .cls-11, .cls-12, .cls-13 {
        fill-rule: evenodd;
      }

      .cls-14 {
        fill: #fff;
      }

      .cls-4 {
        stroke-miterlimit: 10;
        stroke-width: 1.12px;
      }

      .cls-4, .cls-5 {
        stroke: #fff;
      }

      .cls-15 {
        fill: #8d954b;
      }

      .cls-16 {
        fill: #8c984e;
      }

      .cls-11 {
        fill: #ffedcb;
      }

      .cls-5 {
        stroke-width: 2.87px;
      }

      .cls-6 {
        clip-rule: evenodd;
      }

      .cls-7 {
        stroke: #231f20;
        stroke-miterlimit: 2;
        stroke-width: .3px;
      }

      .cls-12 {
        fill: #a9b05c;
      }

      .cls-17 {
        fill: #ec1c24;
      }

      .cls-18 {
        fill: #06c;
      }

      .cls-13 {
        fill: #5f6e38;
      }

      .cls-19 {
        clip-path: url(#clippath);
      }

      .cls-20 {
        fill: #858c48;
      }
    </style>
    <clipPath id="clippath">
      <path class="cls-6" d="M65,366.78c11.51.47,20.07-10.19,21.36-11.8,8.93-11.13,8.32-24.71,8.16-35.14-.55-36.19,4.59-16.26,4.97-74.25.19-29.64-1.04-51.77-2.07-69.78-2.3-40.08-3.45-60.12-6.91-72.31-9.17-32.38-20.16-37.2-22.69-66.61-.65-7.53-.61-15.16-6.05-22.56C53.29,2.81,34.79-3.78,21.55,2.32,10.39,7.46,5.9,20.26,3.31,31.33c-10.08,43.09,5.29,74,13.49,126.98,3.94,25.43,12.72,97.86,12.2,144.64-.03,2.57-.23,18.38,7.84,35.67,3.58,7.67,12.85,27.52,28.15,28.15Z"/>
    </clipPath>
    <pattern id="New_Pattern" data-name="New Pattern" x="0" y="0" width="24" height="24" patternTransform="translate(-2154.36 1230)" patternUnits="userSpaceOnUse" viewBox="0 0 24 24">
      <g>
        <rect class="cls-3" width="24" height="24"/>
        <rect class="cls-8" width="12" height="12"/>
        <rect class="cls-15" x="12" width="12" height="12"/>
        <rect class="cls-20" x="12" y="12" width="12" height="12"/>
        <rect class="cls-16" y="12" width="12" height="12"/>
      </g>
    </pattern>
  </defs>
  <g id="Hole_10" data-name="Hole 10">
    <g class="cls-19">
      <g>
        <path class="cls-13" d="M65,366.78c11.51.47,20.07-10.19,21.36-11.8,8.93-11.13,8.32-24.71,8.16-35.14-.55-36.19,4.59-16.26,4.97-74.25.19-29.64-1.04-51.77-2.07-69.78-2.3-40.08-3.45-60.12-6.91-72.31-9.17-32.38-20.16-37.2-22.69-66.61-.65-7.53-.61-15.16-6.05-22.56C53.29,2.81,34.79-3.78,21.55,2.32,10.39,7.46,5.9,20.26,3.31,31.33c-10.08,43.09,5.29,74,13.49,126.98,3.94,25.43,12.72,97.86,12.2,144.64-.03,2.57-.23,18.38,7.84,35.67,3.58,7.67,12.85,27.52,28.15,28.15Z"/>
        <path class="cls-10" d="M77.64,223.41c8.65-8.68,9.7-21.64,9.91-33.3.3-10.54.98-21.07-2.4-30.42-2.13-6.23-5.76-11.8-8.52-17.75-2.68-5.62-4.19-11.58-4.65-17.8-.65-7.85-.22-15.83-1.18-23.67-.99-8.65-4.09-16.7-7-24.64-1.99-4.67-5.68-16.15-11.98-13.95-6.07,3.94-6.93,14.95-8.08,21.91-1.34,9.77-2.97,19.56-2.48,29.4.84,12.71.75,25.42.5,38.16,0,11.16,2.01,22.22,1.96,33.41.11,7.23-.87,14.51-.99,21.7-1.2,21.47,18.53,33.08,34.75,17.13l.17-.17Z"/>
        <g>
          <path class="cls-12" d="M50.36,57.67c-1.65,0-3.46-.52-5.11-1.46l-.92-.52c-3.44-1.95-7-3.96-10.91-4.25l-.56-.05c-2.91-.25-6.21-.53-8.46-3.09-3.51-3.69-4.94-9.36-3.45-13.76,1.16-3.42,3.93-5.64,7.8-6.24h.08s.31-.02.42-.02c3.13,0,5.82,1.39,8.42,2.73,1.82.94,3.54,1.83,5.36,2.24.52.08,1.12.17,1.73.26,4.43.65,9.45,1.38,12.17,5.88,2.94,5.06,2.03,12.46-2.02,16.5l-.23.2c-1.13,1.02-2.63,1.57-4.32,1.57h0Z"/>
          <path class="cls-9" d="M29.24,29.54c4.89,0,8.83,3.88,13.51,4.94,4.68.77,10.35.99,13.11,5.57,2.62,4.51,1.85,11.29-1.84,14.97l-.17.14c-1,.9-2.23,1.26-3.5,1.26-1.55,0-3.16-.54-4.49-1.3-3.89-2.18-7.81-4.59-12.36-4.93-2.9-.26-6.13-.38-8.18-2.72-5.36-5.63-5.56-16.51,3.61-17.94.1,0,.2,0,.31,0M29.24,27.04c-.13,0-.26,0-.39,0h-.15s-.15.03-.15.03c-4.34.68-7.47,3.19-8.79,7.08-1.63,4.8-.1,10.97,3.72,15.02,2.59,2.91,6.29,3.22,9.26,3.47l.54.05c3.67.27,6.95,2.13,10.43,4.09l.93.53c1.81,1.04,3.85,1.62,5.71,1.62,2,0,3.78-.66,5.17-1.9l.14-.12.06-.06.06-.06c4.43-4.42,5.43-12.49,2.23-17.99-3.04-5.04-8.61-5.86-13.08-6.51-.58-.08-1.15-.17-1.71-.26-1.64-.39-3.27-1.23-5-2.12-2.61-1.34-5.56-2.87-8.99-2.87h0Z"/>
        </g>
        <path class="cls-12" d="M72.59,329.7c1.99-2.54.89-6.57-1.58-8.43-3.75-3.24-14.38-1.02-17.15,2.84-1.76,2.42-.77,5.34,1.54,6.9,4.78,3.27,12.77,2.99,17.05-1.14l.14-.17Z"/>
        <path class="cls-12" d="M78.03,352.31c5.24-4.2,1.85-14.83-5.21-14.22-4.84.45-7.32,6.74-6.1,11.06,1.13,5.03,7.39,6.25,11.12,3.31l.19-.15Z"/>
        <path class="cls-11" d="M84.83,139.07c2.31-2.39,5.29-6.27,4.16-9.86-.87-1.91-2.42-3.6-3.73-5.47-1.24-2.11-4.21-3.92-6.44-2.3-3.07,2.71.83,6.33,1.87,9.05.71,2.3-2.29,4.23-2.21,6.69.03,3.16,4.07,4.07,6.16,2.05l.18-.15Z"/>
        <path class="cls-12" d="M72.12,307.08c3.68-5.4-6.23-11.92-9.99-6.79-1.7,2.46.12,5.09,2.3,6.66,2.06,1.79,5.65,2.18,7.56.28l.14-.16Z"/>
        <path class="cls-11" d="M41.98,62.7c.97-1.31.35-2.83-1.38-2.79-.64-.05-1.26-.06-1.78-.34-.68-.34-1.14-1.04-1.71-1.52-1.14-1.12-2.76-.69-4.28-.56-3.26,0-4.43,3.5-1.63,5.24,1.59.9,3.53-.8,5.18-.33,1.68.56,3.91,2.07,5.46.46l.13-.16Z"/>
        <path class="cls-11" d="M21.97,50.76c.86-2.52-1.63-4.88-2.85-6.77-.41-.8-.35-1.8-.87-2.55-1.05-1.62-3.12-1.07-3.83.45-.84,1.67-.11,3.88,1.43,4.91,1.29.72,1.77,2.07,2.08,3.43.57,2.21,2.64,2.46,3.93.71l.11-.18Z"/>
        <path class="cls-2" d="M19.68,252.79c7.34-.77,14.67-1.6,21.87-3.45,12.26-2.92,23.99-7.94,35.72-12.78,8.71-3.38,17.67-5.87,26.83-8.71"/>
        <path class="cls-1" d="M100.17,356.54c-5.97-6.82-13.16-13.45-16.83-21.69-4.36-11.53-3.41-18.11-17.39-21.62-8.46-2.44-19.54-4.22-20.56-14.58-1.37-11.64-1.4-23.54-3.88-35.04-2.17-11.54-4.7-23.11-4.35-34.95.08-11.3,1.34-22.49,1.82-33.6.24-10.99-1.49-22.27-1.01-33.27.02-7.25.24-14.58-1.83-21.51-3.44-10.6-10.35-20.63-15.44-30.15"/>
        <path class="cls-1" d="M20.7,110.15c-11.88-28.04-12.2-22.09-10.21-53.32.58-9.16.78-15.14,1.13-23.05.38-7.68.6-16.45,7.86-20.67,8.8-4.73,20.32-5.27,29.42-1.08,5.69,2.54,8.91,8.94,13.65,12.77,7.51,6.48,15.12.69,22.72-2.12,3.5-1.19,9.11-2.08,12.78-2.44"/>
        <path class="cls-5" d="M100.17,356.54c-5.97-6.82-13.16-13.45-16.83-21.69-4.36-11.53-3.41-18.11-17.39-21.62-8.46-2.44-19.54-4.22-20.56-14.58-1.37-11.64-1.4-23.54-3.88-35.04-2.17-11.54-4.7-23.11-4.35-34.95.08-11.3,1.34-22.49,1.82-33.6.24-10.99-1.49-22.27-1.01-33.27.02-7.25.24-14.58-1.83-21.51-3.44-10.6-10.35-20.63-15.44-30.15"/>
        <path class="cls-5" d="M20.7,110.15c-11.88-28.04-12.2-22.09-10.21-53.32.58-9.16.78-15.14,1.13-23.05.38-7.68.6-16.45,7.86-20.67,8.8-4.73,20.32-5.27,29.42-1.08,5.69,2.54,8.91,8.94,13.65,12.77,7.51,6.48,15.12.69,22.72-2.12,3.5-1.19,9.11-2.08,12.78-2.44"/>
      </g>
      <g>
        <line class="cls-4" x1="80.32" y1="261.09" x2="74.05" y2="267.14"/>
        <polygon class="cls-14" points="72.97 265.08 71.74 269.37 76.08 268.29 72.97 265.08"/>
      </g>
      <g>
        <rect x="70.83" y="345.29" width="1.12" height="1.12"/>
        <rect x="74.91" y="345.29" width="1.12" height="1.12"/>
      </g>
      <g>
        <rect class="cls-18" x="61.92" y="325.51" width="1.12" height="1.12"/>
        <rect class="cls-18" x="65.99" y="325.51" width="1.12" height="1.12"/>
      </g>
      <g>
        <rect class="cls-14" x="64.52" y="302.26" width="1.12" height="1.12" transform="translate(5.28 -1.09) rotate(1)"/>
        <rect class="cls-14" x="68.6" y="302.33" width="1.12" height="1.12" transform="translate(5.28 -1.16) rotate(1)"/>
      </g>
      <path class="cls-14" d="M79.07,250.28v8.08h-1.14l-2.59-4.09c-.6-.95-1.07-1.8-1.45-2.63h-.02c.1,1.09.12,2.08.12,3.33v3.38h-.98v-8.08h1.06l2.57,4.1c.56.9,1.1,1.82,1.51,2.7h.04c-.06-1.03-.08-2-.08-3.35v-3.45h.98Z"/>
      <g>
        <line class="cls-7" x1="32.57" y1="42.09" x2="32.57" y2="35.29"/>
        <path class="cls-17" d="M35.9,37.59c-1.11-.69-2.22.69-3.32,0v-2.3c1.11.69,2.22-.69,3.32,0v2.3Z"/>
      </g>
    </g>
  </g>
</svg>