<?xml version="1.0" encoding="UTF-8"?>
<svg id="Layer_2" data-name="Layer 2" xmlns="http://www.w3.org/2000/svg" xmlns:xlink="http://www.w3.org/1999/xlink" viewBox="0 0 120.56 369.16">
  <defs>
    <style>
      .cls-1 {
        fill: #9aa255;
      }

      .cls-2 {
        stroke: #aad3df;
        stroke-width: 4.53px;
      }

      .cls-2, .cls-3, .cls-4, .cls-5, .cls-6, .cls-7, .cls-8 {
        fill: none;
      }

      .cls-2, .cls-3, .cls-4, .cls-8 {
        stroke-linecap: round;
      }

      .cls-2, .cls-6 {
        stroke-miterlimit: 10;
      }

      .cls-9 {
        fill: #788448;
      }

      .cls-10 {
        fill: url(#New_Pattern);
      }

      .cls-10, .cls-11, .cls-12, .cls-13, .cls-14 {
        fill-rule: evenodd;
      }

      .cls-15 {
        fill: #fff;
      }

      .cls-3 {
        stroke-width: 2.61px;
      }

      .cls-3, .cls-4 {
        stroke-linejoin: round;
      }

      .cls-3, .cls-6 {
        stroke: #fff;
      }

      .cls-4 {
        stroke: #bbb;
        stroke-width: 3.97px;
      }

      .cls-16 {
        fill: #8d954b;
      }

      .cls-17 {
        fill: #8c984e;
      }

      .cls-11 {
        fill: #ffedcb;
      }

      .cls-6 {
        stroke-width: 1.27px;
      }

      .cls-7 {
        clip-rule: evenodd;
      }

      .cls-8 {
        stroke: #231f20;
        stroke-miterlimit: 2;
        stroke-width: .3px;
      }

      .cls-12 {
        fill: #a9b05c;
      }

      .cls-18 {
        fill: #ec1c24;
      }

      .cls-19 {
        fill: #06c;
      }

      .cls-13 {
        fill: #5f6e38;
      }

      .cls-20 {
        clip-path: url(#clippath);
      }

      .cls-14 {
        fill: #d9d0c9;
        stroke: #b9a99c;
        stroke-width: 2.07px;
      }

      .cls-21 {
        fill: #858c48;
      }
    </style>
    <clipPath id="clippath">
      <path class="cls-7" d="M54.92,367.37c-10.94.7-18.97-2.25-25.63-9.31-8.29-8.8-11.7-18.11-12.79-21.28C-4.54,276.04.54,182.5.54,182.5c3.69-67.89,9.75-95.01,17.73-118.81C34.74,14.57,50.8,5.08,61.3,2.07c12.73-3.65,29-1.13,38.98,8.56,3.68,3.57,12.72,14.16,8.42,55.36-2.9,27.76-9.26,44.63-15.07,64.32-5.35,18.13-17.4,59.83-19.15,107.17-.96,25.82,1.71,38.36-.41,85.12-1.46,32.29-6.44,43.96-19.15,44.78Z"/>
    </clipPath>
    <pattern id="New_Pattern" data-name="New Pattern" x="0" y="0" width="24" height="24" patternTransform="translate(-1826.58 1230.47)" patternUnits="userSpaceOnUse" viewBox="0 0 24 24">
      <g>
        <rect class="cls-5" width="24" height="24"/>
        <rect class="cls-1" width="12" height="12"/>
        <rect class="cls-16" x="12" width="12" height="12"/>
        <rect class="cls-21" x="12" y="12" width="12" height="12"/>
        <rect class="cls-17" y="12" width="12" height="12"/>
      </g>
    </pattern>
  </defs>
  <g id="Hole_8" data-name="Hole 8">
    <g class="cls-20">
      <g>
        <path class="cls-13" d="M54.92,367.37c-10.94.7-18.97-2.25-25.63-9.31-8.29-8.8-11.7-18.11-12.79-21.28C-4.54,276.04.54,182.5.54,182.5c3.69-67.89,9.75-95.01,17.73-118.81C34.74,14.57,50.8,5.08,61.3,2.07c12.73-3.65,29-1.13,38.98,8.56,3.68,3.57,12.72,14.16,8.42,55.36-2.9,27.76-9.26,44.63-15.07,64.32-5.35,18.13-17.4,59.83-19.15,107.17-.96,25.82,1.71,38.36-.41,85.12-1.46,32.29-6.44,43.96-19.15,44.78Z"/>
        <path class="cls-10" d="M68.48,58.97c-3.64-2.69-8.53,1.12-11.8,5.75-6.54,8.9-8.56,21.06-10.82,31.88-3.09,14.87-6.93,29.7-11.71,44.12-6.97,21.83-19.2,43.16-10.93,66.53,2.12,6.48,5.46,13.26,10.13,18.01,6.81,7.2,15.92,7.83,19.72-2.27,2.33-5.84,2.58-13.75,2.77-20.35.34-11.87.43-23.83,1.65-35.63,1.09-11.25,4.16-22.16,5.87-33.31,1.38-8.67,1.69-17.42,2.77-26.12.7-11.75,11.54-40.44,2.43-48.54l-.09-.07Z"/>
        <path class="cls-12" d="M83.4,338.25c-8.33-12.93-27.22-.64-30.3-20.27-1.83-5.4-.52-18.66-6.04-20.66-11.32-1.61-3.04,35.05-1.22,41.63,1.4,5.44,3,10.91,7.26,14.98,6.98,6.62,15.34,7.26,23.65,2.44,7.72-3.63,11.37-10.07,6.76-17.93l-.11-.18Z"/>
        <g>
          <path class="cls-12" d="M69.32,60.07c-.77,0-1.54-.13-2.29-.4l-.1-.04c-3.84-1.8-4.48-5.32-5.22-9.39l-.18-1-.26-1.62c-.47-2.85-.96-5.8-1.07-8.67-.15-3.4.7-6.16,2.46-8,1.51-1.58,3.62-2.42,6.1-2.42,2.17,0,4.55.65,6.9,1.89.67.32,1.46.66,2.29,1.02,3.89,1.69,8.3,3.61,9.65,7.08l.07.19c1.5,5.22-2.71,9.46-6.1,12.86-.8.81-1.56,1.57-2.21,2.3l-.07.08c-.31.29-.63.6-.96.92-2.4,2.32-5.38,5.21-8.99,5.21h0Z"/>
          <path class="cls-9" d="M68.75,29.65c1.96,0,4.16.59,6.37,1.76,3.79,1.82,9.95,3.77,11.41,7.51l.06.17c1.6,5.6-4.67,10.16-8.09,14.03-2.51,2.36-5.57,5.82-9.17,5.82-.62,0-1.26-.1-1.92-.33-3.58-1.67-3.92-5.01-4.76-9.58-.54-3.34-1.19-6.81-1.32-10.14-.27-6.22,3-9.24,7.43-9.24M68.75,27.38c-2.79,0-5.18.96-6.91,2.77-1.38,1.44-2.98,4.14-2.78,8.84.12,2.92.61,5.9,1.08,8.78.09.54.18,1.08.26,1.61v.03s0,.03,0,.03l.18,1c.76,4.2,1.48,8.17,5.85,10.22l.1.05.11.04c.87.31,1.77.46,2.67.46,4.07,0,7.24-3.06,9.78-5.53.32-.31.64-.62.95-.91l.08-.07.07-.08c.63-.71,1.37-1.46,2.16-2.26,3.59-3.62,8.06-8.12,6.41-13.9l-.02-.08-.03-.08-.06-.17c-1.54-3.95-6.38-6.06-10.27-7.75-.81-.35-1.58-.69-2.25-1.01-2.49-1.31-5.05-2-7.39-2h0Z"/>
        </g>
        <path class="cls-11" d="M28.19,131.58c-2.71-3.01-6.17-.21-5.48,3.49.25,1.3.89,2.74-.01,3.92-1.61,1.7-2.86,3.92-2.1,6.35.65,2.74,4.73,4.9,6.24,1.55,1-1.67.65-3.6.95-5.42,1.07-3.14,2.49-6.67.51-9.73l-.12-.16Z"/>
        <path class="cls-11" d="M85.85,55.67c-.48-1.47-2.56-1.98-3.57-.72-1.01.96-.64,2.74-1.74,3.65-.8.81-2.35-.09-3.11.74-.36.36-.51.82-.78,1.24-.38.7-1.15.74-1.82.65-.65.02-1.17.68-1.44,1.21-.66,2.67,3.47,2.74,4.68,1.17.5-.54.68-1.33,1.2-1.86,1.53-1.72,4.11-1.88,5.76-3.3.5-.72.8-1.79.84-2.62l-.03-.17Z"/>
        <path class="cls-11" d="M58.03,44.17c-1.46-1.98-4.06-.17-4.18,1.86-.17,1.49.07,2.84.52,4.21.38,1.13,1.59,2.41,2.96,2.35.63,0,1.54-.19,1.86-.74.37-.94-.55-2.25-1.3-2.96-.86-.72-.81-2.05-.09-2.85.44-.51.58-1.14.31-1.73l-.09-.15Z"/>
        <path class="cls-4" d="M109.7,13.66c-2.99,7.55-6.52,13.66-9.02,21.17-2.9,8.54-3.09,17.63-5.84,26.2-3.92,11.86-10.94,22.45-16.84,33.56-4.76,8.37-8.05,16.25-6.84,25.82.64,7.39,2.25,14.91,2.24,22.38-.04,16.13-5.06,31.37-7.49,47.24-1.84,11.2-2.27,22.61-2.79,33.99-.59,12.96-.73,25.95-7.39,37.35-5.47,9.97-13.82,18.89-17.77,29.64-3.74,9.27-2.24,19.12.06,28.55,1.67,7.64,3.87,16.18,5.24,23.81,1.71,8.63-.31,16.27-3.19,23.79"/>
        <path class="cls-3" d="M109.7,13.66c-2.99,7.55-6.52,13.66-9.02,21.17-2.9,8.54-3.09,17.63-5.84,26.2-3.92,11.86-10.94,22.45-16.84,33.56-4.76,8.37-8.05,16.25-6.84,25.82.64,7.39,2.25,14.91,2.24,22.38-.04,16.13-5.06,31.37-7.49,47.24-1.84,11.2-2.27,22.61-2.79,33.99-.59,12.96-.73,25.95-7.39,37.35-5.47,9.97-13.82,18.89-17.77,29.64-3.74,9.27-2.24,19.12.06,28.55,1.94,9.23,4.85,19.13,5.85,28.43.42,6.51-1.31,12.7-3.62,18.79"/>
        <g>
          <rect x="52.68" y="347.96" width="1.02" height="1.02"/>
          <rect x="56.38" y="347.96" width="1.02" height="1.02"/>
        </g>
        <g>
          <rect class="cls-19" x="46.71" y="325.42" width="1.02" height="1.02"/>
          <rect class="cls-19" x="50.41" y="325.42" width="1.02" height="1.02"/>
        </g>
        <g>
          <rect class="cls-15" x="44.18" y="307.14" width="1.02" height="1.02" transform="translate(5.36 -.73) rotate(1)"/>
          <rect class="cls-15" x="47.88" y="307.21" width="1.02" height="1.02" transform="translate(5.36 -.8) rotate(1)"/>
        </g>
        <path class="cls-15" d="M24.83,235.18v9.16h-1.29l-2.94-4.63c-.68-1.07-1.21-2.04-1.64-2.98h-.03c.11,1.24.13,2.35.13,3.78v3.83h-1.11v-9.16h1.2l2.91,4.65c.64,1.02,1.25,2.07,1.71,3.06h.04c-.07-1.17-.1-2.27-.1-3.79v-3.91h1.11Z"/>
        <g>
          <line class="cls-6" x1="18" y1="248.89" x2="22.96" y2="257.42"/>
          <polygon class="cls-15" points="20.4 258.05 24.79 260.57 24.78 255.51 20.4 258.05"/>
        </g>
        <polyline class="cls-14" points="103.91 .59 94.09 26.79 62.49 14.82 67.86 .36"/>
        <path class="cls-2" d="M118.29,113.2c-2.52,1.46-8.08,3.63-10.99,3.88-2.24.2-5.73-.17-8.89-.64-4.21-.62-8.32-1.71-12.31-3.2-2.55-.96-5.64-2.1-8.22-3.01"/>
      </g>
      <g>
        <line class="cls-8" x1="66.5" y1="39.06" x2="66.5" y2="32.26"/>
        <path class="cls-18" d="M69.83,34.56c-1.11-.69-2.22.69-3.32,0v-2.3c1.11.69,2.22-.69,3.32,0v2.3Z"/>
      </g>
    </g>
  </g>
</svg>