<?xml version="1.0" encoding="UTF-8"?>
<svg id="Layer_2" data-name="Layer 2" xmlns="http://www.w3.org/2000/svg" xmlns:xlink="http://www.w3.org/1999/xlink" viewBox="0 0 124.24 386.63">
  <defs>
    <style>
      .cls-1 {
        fill: #9aa255;
      }

      .cls-2 {
        fill: #788448;
      }

      .cls-3 {
        stroke-width: 2.64px;
      }

      .cls-3, .cls-4 {
        stroke: #fff;
      }

      .cls-3, .cls-4, .cls-5, .cls-6, .cls-7, .cls-8 {
        fill: none;
      }

      .cls-3, .cls-7, .cls-8 {
        stroke-linecap: round;
      }

      .cls-3, .cls-8 {
        stroke-linejoin: round;
      }

      .cls-4 {
        stroke-width: .9px;
      }

      .cls-4, .cls-6 {
        stroke-miterlimit: 10;
      }

      .cls-9 {
        fill: url(#New_Pattern);
      }

      .cls-9, .cls-10, .cls-11, .cls-12, .cls-13 {
        fill-rule: evenodd;
      }

      .cls-14 {
        fill: #fff;
      }

      .cls-15 {
        fill: #8d954b;
      }

      .cls-16 {
        fill: #8c984e;
      }

      .cls-10 {
        fill: #ffedcb;
      }

      .cls-6 {
        stroke: #aad3df;
        stroke-width: 4.16px;
      }

      .cls-11 {
        fill: #d9d0c9;
        stroke: #b9a99c;
        stroke-width: 1.15px;
      }

      .cls-7 {
        stroke: #231f20;
        stroke-miterlimit: 2;
        stroke-width: .3px;
      }

      .cls-12 {
        fill: #a9b05c;
      }

      .cls-8 {
        stroke: #bbb;
        stroke-width: 4.01px;
      }

      .cls-17 {
        fill: #ec1c24;
      }

      .cls-18 {
        fill: #06c;
      }

      .cls-13 {
        fill: #5f6e38;
      }

      .cls-19 {
        clip-path: url(#clippath);
      }

      .cls-20 {
        fill: #858c48;
      }
    </style>
    <clipPath id="clippath">
      <path class="cls-5" d="M61.17,375.35c-1.81.16-8.05.63-14.28-2.24-13.96-6.42-18.06-25.06-20.85-38.66-11.16-54.47-12.51-73.43-12.51-73.43-4.23-59.33-6.33-89.57-5.49-117.99.4-13.67,2.71-32.17,7.32-69.17,1.98-15.85,2.59-26.36,8.86-39.88,2.79-6.02,7.12-20.51,36.06-25.22,3.08-.5,17.22-1.09,28.65,4.91s13.33,18.92,15.33,29.2c6.09,31.34,3.34,57.13,1.02,82.05-2.37,25.42-4.53,48.9-5.9,78.52-1.45,31.38-2.18,47.08-.61,63.67,1.9,20.07,4.65,27.23,3.46,45.16-.93,14.03-2.29,31.03-14.24,45.97-3.82,4.77-12.69,15.86-26.81,17.09Z"/>
    </clipPath>
    <pattern id="New_Pattern" data-name="New Pattern" x="0" y="0" width="24" height="24" patternTransform="translate(-1171.59 1238.47)" patternUnits="userSpaceOnUse" viewBox="0 0 24 24">
      <g>
        <rect class="cls-5" width="24" height="24"/>
        <rect class="cls-1" width="12" height="12"/>
        <rect class="cls-15" x="12" width="12" height="12"/>
        <rect class="cls-20" x="12" y="12" width="12" height="12"/>
        <rect class="cls-16" y="12" width="12" height="12"/>
      </g>
    </pattern>
  </defs>
  <g id="Hole_4" data-name="Hole 4">
    <g class="cls-19">
      <g>
        <path class="cls-13" d="M32.22,8.91c-13.39,8.85-17.01,21.96-19.86,37.54-1.58,8.88-2.99,18.37-4.34,27.45C3.6,104.76-.55,135.72.29,163.15c.84,16.67,2.53,28.99,3.97,47.07,4.04,43.74,9.15,106.39,17.64,139.75,2.4,9.2,7.49,17.61,15.12,23.45,19.96,16.04,43.03,6.86,56.78-13.82,12.11-17.12,13.13-37.36,16.06-57.59,3.47-25.16,7.64-56.03,7.03-82.5-.24-12.15-1.21-23.31-1.19-35.56.03-45.7,6.01-116.28-1-150.17-1.47-7.73-5.35-14.41-11.57-19.54C83.8-2.09,54-5.02,32.38,8.8l-.17.11Z"/>
        <path class="cls-6" d="M.18,228.06s18.83,1.68,25.13,1.97c6.8.32,20.78.33,27.16-2.04,4.07-1.51,10.44-7.77,13.95-10.31,2.17-1.57,7.04-4.07,9.66-4.58,4.5-.87,18.3,1.15,18.3,1.15,0,0,27.78,2.19,27.78,9.53"/>
        <path class="cls-9" d="M45.47,200.78c4.08,5.21,12.5,7.22,17.5,2.16,2.91-2.82,3.85-7.17,4.98-11.01,1.14-4.2,1.9-8.19,2.09-12.58.21-4.95.5-10.08.44-14.88-.11-8.08-1.4-16.34-1.2-24.34.25-18.71,2.71-37.26,3.53-56.11.8-9.7,1.7-17.3-4.11-25.84-.9-1.58-1.45-3.41-2.06-5.07-.45-1.27-1.06-2.34-2.4-2.58-2.15-.42-5.63.23-6.4,2.62-.81,2.78-.62,8.21-2.35,11.46-1.95,4.83-6.73,8.98-9.55,12.91-3.32,5.2-4.55,11.64-5.06,17.72-.13,5.72.41,12.07.45,17.87.1,5.03-.31,10.72.38,16.01.47,4.58,1.8,9.21,1.76,13.79-.58,10.26-5.02,20.78-4.67,31.22-.05,9.24.18,19.23,6.55,26.51l.13.15Z"/>
        <g>
          <path class="cls-12" d="M61.16,53.22c-3.91,0-8.1-1.89-11.78-5.31l-.19-.2c-1.81-1.82-2.53-4.06-2.04-6.46.66-3.23,3.48-6.36,7.02-7.79,1.38-.61,2.92-.92,4.66-.92,2.39,0,4.86.6,7.04,1.13,3.51.67,6.18,2.63,7.28,5.37,1.02,2.55.52,5.44-1.41,8.13-2.74,3.96-6.39,6.06-10.57,6.06h0Z"/>
          <path class="cls-2" d="M58.82,33.68c2.23,0,4.51.55,6.77,1.09,6.1,1.16,9.01,6.41,5.21,11.72-2.7,3.91-6.11,5.58-9.64,5.58-3.76,0-7.66-1.9-11-5l-.14-.15c-4.45-4.46-.21-10.47,4.57-12.41,1.37-.61,2.78-.83,4.22-.83M58.82,31.39c-1.89,0-3.56.33-5.12,1.02-3.87,1.58-6.95,5.04-7.68,8.61-.56,2.74.27,5.4,2.34,7.5l.11.12.06.06.06.06c3.9,3.62,8.36,5.62,12.56,5.62,3.19,0,7.77-1.14,11.52-6.57,2.14-2.98,2.69-6.26,1.52-9.19-1.24-3.09-4.2-5.3-8.12-6.07-2.23-.54-4.75-1.14-7.25-1.14h0Z"/>
        </g>
        <path class="cls-12" d="M65.6,334.05c1.39.81,3.12.33,4.39-1,2.48-2.65,2.66-6.89,3.12-10.38.39-3.89,1.17-7.75,1.4-11.69.19-3.64-1.02-7.37-4.45-8.89-3.33-1.65-7.84-.15-8.37,3.8-.71,5.14,1.96,10.26,1.6,15.5.09,4.03-1.64,9.92,2.18,12.58l.13.08Z"/>
        <path class="cls-12" d="M55.09,362.06c3.16,3.38,7.9-.22,10.51-3.03,2.91-3.19,6.3-6.47,7.36-10.72.96-3.95-2.7-6.03-6.01-4.46-2.96,1.42-4.3,4.19-6.37,6.77-2.17,3.25-7.42,7.02-5.57,11.31l.09.13Z"/>
        <path class="cls-12" d="M63.37,275.97c6.16,5.69,13.16-7.49,8.86-12.28-2.54-2.89-7.09-1.22-8.72,1.87-1.69,2.86-2.19,7.55-.26,10.27l.12.14Z"/>
        <path class="cls-10" d="M78.85,44.87c.94,1.64,2.48,1.93,3.99,2.83,1.23.7,2.24,1.6,3.53,1.91,4.23,1.4,2.67-6.52-.61-5.94-3.23.41-2.29-1.83-4.18-3.11-2.42-.95-3.52,2.42-2.79,4.18l.06.13Z"/>
        <path class="cls-10" d="M71.97,57.29c1.81,2.5,4.56.49,5.81-1.52.89-1.23,1.79-2.62,1.4-4.19-.19-2.13-3.74-3.95-4.32-1.09-.07.97.33,1.92-.05,2.84-.46,1.07-1.78.9-2.67,1.45-1.04.46-.84,1.61-.26,2.36l.1.14Z"/>
        <path class="cls-8" d="M69.06,381.58c6.01-19.41,13.78-48.79,21.15-70.3,6.86-17.65,5.83-22.12-.08-39.47-5.06-17.68-5.76-35.94-6.19-54.14-.09-16.16-.74-35.77-.2-51.22.67-16.13,2.65-31.71,4.26-47.78,1.57-14.54,1.66-32.33,3.22-46.35,1.05-10.26,4.79-21,5.82-31.45,1.57-16.03-8.24-23.59-22.93-25.99-12.61-2.24-28.27-2.25-37.44,8-5.13,6.12-8.48,13.53-13.28,19.91"/>
        <path class="cls-8" d="M116.73,10.55c-2.93,1.48-7.9,4.48-12.21,10.04-5.75,7.42-6.99,15.12-7.32,18.49"/>
        <path class="cls-3" d="M67.93,385.31c5.06-16.93,12.85-43.91,18.88-64.02,2.14-7.49,5.55-14.72,7.33-22.4,3.2-11.85-3.6-22.62-5.79-34-4.51-21.15-4.31-42.08-4.59-63.61-.13-13.09-.51-26.88.19-38.83.81-14.83,2.58-28.98,4.06-43.76,1.57-14.54,1.66-32.33,3.21-46.35,1.05-10.26,4.79-21,5.82-31.45,1.57-16.03-8.24-23.59-22.93-25.99-12.61-2.24-28.28-2.25-37.44,8-5.13,6.12-8.48,13.53-13.28,19.91"/>
        <path class="cls-3" d="M116.73,10.55c-2.93,1.48-7.9,4.48-12.21,10.04-5.75,7.42-6.99,15.12-7.32,18.49"/>
        <g id="Tee_Boxes" data-name="Tee Boxes">
          <g>
            <rect x="63.23" y="353.09" width="1.03" height="1.03" transform="translate(-22.63 4.84) rotate(-3.69)"/>
            <rect x="66.96" y="352.85" width="1.03" height="1.03" transform="translate(-22.61 5.08) rotate(-3.69)"/>
          </g>
          <g>
            <rect class="cls-18" x="66.59" y="318.98" width="1.03" height="1.03" transform="translate(-20.43 4.98) rotate(-3.69)"/>
            <rect class="cls-18" x="70.33" y="318.74" width="1.03" height="1.03" transform="translate(-20.41 5.22) rotate(-3.69)"/>
          </g>
          <g>
            <rect class="cls-14" x="65.58" y="269.46" width="1.03" height="1.03" transform="translate(-43.37 14.49) rotate(-9.44)"/>
            <rect class="cls-14" x="69.27" y="268.85" width="1.03" height="1.03" transform="translate(-43.22 15.09) rotate(-9.44)"/>
          </g>
        </g>
        <path class="cls-14" d="M45.36,239.99v6.52h-.92l-2.09-3.3c-.48-.76-.86-1.45-1.17-2.12h-.02c.08.88.1,1.67.1,2.69v2.73h-.79v-6.52h.85l2.07,3.31c.45.73.89,1.47,1.22,2.18h.03c-.05-.83-.07-1.62-.07-2.7v-2.79h.79Z"/>
        <g>
          <line class="cls-4" x1="45.76" y1="257.12" x2="41.65" y2="251.41"/>
          <polygon class="cls-14" points="43.43 250.79 40.14 249.31 40.5 252.89 43.43 250.79"/>
        </g>
      </g>
      <path class="cls-11" d="M74.16,222.33h5.18s0-4.89,0-4.89h-5.19s.01,4.89.01,4.89Z"/>
    </g>
    <g>
      <line class="cls-7" x1="59.92" y1="43.91" x2="59.92" y2="37.11"/>
      <path class="cls-17" d="M63.25,39.41c-1.11-.69-2.22.69-3.32,0v-2.3c1.11.69,2.22-.69,3.32,0,0,.77,0,1.53,0,2.3Z"/>
    </g>
  </g>
</svg>