<?xml version="1.0" encoding="UTF-8"?>
<svg id="Layer_2" data-name="Layer 2" xmlns="http://www.w3.org/2000/svg" xmlns:xlink="http://www.w3.org/1999/xlink" viewBox="0 0 91.93 367">
  <defs>
    <style>
      .cls-1 {
        fill: #9aa255;
      }

      .cls-2 {
        fill: #788448;
      }

      .cls-3 {
        stroke-width: 2.06px;
      }

      .cls-3, .cls-4, .cls-5, .cls-6, .cls-7, .cls-8 {
        fill: none;
      }

      .cls-3, .cls-5 {
        stroke: #fff;
      }

      .cls-3, .cls-6, .cls-7, .cls-8 {
        stroke-linecap: round;
      }

      .cls-3, .cls-7 {
        stroke-linejoin: round;
      }

      .cls-9 {
        fill: url(#New_Pattern);
      }

      .cls-9, .cls-10, .cls-11, .cls-8 {
        fill-rule: evenodd;
      }

      .cls-12 {
        fill: #fff;
      }

      .cls-5 {
        stroke-width: 1.12px;
      }

      .cls-5, .cls-8 {
        stroke-miterlimit: 10;
      }

      .cls-13 {
        fill: #5f6e38;
      }

      .cls-14 {
        fill: #8d954b;
      }

      .cls-15 {
        fill: #8c984e;
      }

      .cls-10 {
        fill: #ffedcb;
      }

      .cls-6 {
        stroke: #231f20;
        stroke-miterlimit: 2;
        stroke-width: .3px;
      }

      .cls-11 {
        fill: #a9b05c;
      }

      .cls-7 {
        stroke: #bbb;
        stroke-width: 3.14px;
      }

      .cls-16 {
        fill: #ec1c24;
      }

      .cls-8 {
        stroke: #aad3df;
        stroke-width: .9px;
      }

      .cls-17 {
        fill: #06c;
      }

      .cls-18 {
        clip-path: url(#clippath);
      }

      .cls-19 {
        fill: #858c48;
      }
    </style>
    <clipPath id="clippath">
      <path class="cls-4" d="M58.51,366.35c14.27-3.65,9.25-19.32,8.64-32.37-1.1-23.4-2.98-39.91-4.77-54.28-3.28-26.39-2.82-46.52-2.43-63.14.28-12.25-2.54-37.38,4.14-89.73,4.07-31.89,5.27-37.36,6.77-42.42,6.68-22.55,11.88-30.2,14.93-49.03,1.33-8.22,4.17-17.72-3.62-25.77C73.66.81,59.03-2.57,48.58,2.1c-7.84,3.5-12.3,11.07-20.17,41.6-7.66,29.74-10.25,49.05-14.64,71.57C5.56,157.36,2.71,150.83.76,170.65c-2.81,28.55,2.34,49.81,12.08,90,1.44,5.93,6.89,32.09,17.67,64.96,6.22,18.98,7.76,45.92,28,40.75Z"/>
    </clipPath>
    <pattern id="New_Pattern" data-name="New Pattern" x="0" y="0" width="24" height="24" patternTransform="translate(-2978.8 1230)" patternUnits="userSpaceOnUse" viewBox="0 0 24 24">
      <g>
        <rect class="cls-4" width="24" height="24"/>
        <rect class="cls-1" width="12" height="12"/>
        <rect class="cls-14" x="12" width="12" height="12"/>
        <rect class="cls-19" x="12" y="12" width="12" height="12"/>
        <rect class="cls-15" y="12" width="12" height="12"/>
      </g>
    </pattern>
  </defs>
  <g id="Hole_15" data-name="Hole 15">
    <g class="cls-18">
      <path class="cls-13" d="M58.51,366.35c14.27-3.65,9.25-19.32,8.64-32.37-1.1-23.4-2.98-39.91-4.77-54.28-3.28-26.39-2.82-46.52-2.43-63.14.28-12.25-2.54-37.38,4.14-89.73,4.07-31.89,5.27-37.36,6.77-42.42,6.68-22.55,11.88-30.2,14.93-49.03,1.33-8.22,4.17-17.72-3.62-25.77C73.66.81,59.03-2.57,48.58,2.1c-7.84,3.5-12.3,11.07-20.17,41.6-7.66,29.74-10.25,49.05-14.64,71.57C5.56,157.36,2.71,150.83.76,170.65c-2.81,28.55,2.34,49.81,12.08,90,1.44,5.93,6.89,32.09,17.67,64.96,6.22,18.98,7.76,45.92,28,40.75Z"/>
      <path class="cls-8" d="M23.66,92.97c-3.73-.37-6.66-.92-9.06-1.73"/>
      <path class="cls-8" d="M91.48,93.53c-9.25-2.64-8.92.25-32.59.23"/>
      <path class="cls-9" d="M58.94,33.64c-1.14-.44-3.2.35-4.63.63-4.01.71-6.52,2.91-7.85,7.12-1.71,3.76.04,8.19-1.87,11.8-1.08,1.87-3.09,3.18-4.84,4.43-4.39,2.86-5.37,6.49-7.04,12.03-3.46,11.11-7.22,22.39-2.7,33.58,2.79,7.42-.72,13.08-4.11,19.46-2.46,4.86-3.75,8.01-4.61,13.88-1.89,11.7-4.71,23.87-5.99,35.45-.38,6.81-1.36,12.28.24,19.3,2.15,10.35,3.64,20.74,4.77,31.33,1.78,12.75,5.88,25.69,10.85,37.12,3.91,7.48,11.75,4.33,14.01-2.73.81-2.23,1.35-4.57,1.76-6.9.73-4.44,1.79-8.7,2.08-13.14.26-3.07-.05-5.96-.45-9.09-.77-6.55-1.85-12.15-3.7-18.47-1.46-5.05-1.85-10.18-2.11-15.35-.3-5.1-.71-9.09.18-14.09,1.05-5.92,2.48-12.13,2.44-18.08.36-12.26-.53-24.92.21-37.29.62-5.22,2.12-9.92,2.81-15.47,1.25-8.98,1.85-17.04,3.39-25.8.91-6.27,1.82-10.24,2.48-15.84.52-5.16-.05-9.79.81-14.79.83-4.79,2.6-9.2,3.72-14.03.35-1.48.98-4.46.21-5.05l-.05-.04Z"/>
      <path class="cls-11" d="M50.64,312.17c-2.56-3.93-7.42-.71-7.61,3.34-.35,3.1.59,6.19.91,9.26.65,6.84.15,13.63,2.42,20.19,1.5,4.33,2.76,9.24,6.3,12.34,2.04,1.76,5.3,1.25,5.96-1.49.5-1.94-.47-4.07-1.36-5.88-3.91-7.63-7.23-16.22-6.92-24.89-.22-4.12,1.99-8.91.37-12.75l-.07-.12Z"/>
      <g>
        <path class="cls-11" d="M53.53,37.62c-1.09,0-2.12-.27-3.07-.79-4.29-2.63-4.69-9.76-3.95-13.63v-.06s.09-.22.09-.22c1.18-3.51,2.8-8.31,5.93-10.46.81-.49,1.68-.72,2.56-.72,2.02,0,3.9,1.21,4.8,3.09l.06.12c1.15,2.39,1.31,5.28,1.45,7.83.02.43.05.86.08,1.28l.02.51c.08,2.42.17,4.91-.52,7.2-.84,3.28-4.11,5.87-7.44,5.87h0Z"/>
        <path class="cls-2" d="M55.09,12.62c1.63,0,3.23.98,3.99,2.58l.08.15c1.24,2.58,1.23,5.9,1.42,8.75.08,2.52.22,5.1-.47,7.39-.75,2.94-3.64,5.24-6.58,5.24-.89,0-1.79-.21-2.63-.68-3.57-2.2-4.3-8.54-3.5-12.68,1.16-3.43,2.72-8.16,5.64-10.17.65-.39,1.35-.57,2.05-.57M55.09,10.82c-1.04,0-2.07.28-2.97.82l-.05.03-.05.03c-3.37,2.32-5.05,7.29-6.27,10.92l-.05.16-.04.12-.02.12c-.79,4.11-.32,11.7,4.32,14.55l.03.02.03.02c1.08.6,2.26.9,3.5.9,3.77,0,7.34-2.81,8.31-6.55.72-2.41.63-4.98.55-7.45l-.02-.48v-.03s0-.03,0-.03c-.03-.41-.05-.83-.07-1.26-.15-2.64-.31-5.63-1.52-8.15v-.02s-.02-.02-.02-.02l-.06-.12c-1.05-2.17-3.24-3.57-5.6-3.57h0Z"/>
      </g>
      <path class="cls-11" d="M51.29,295.76c-1.03-3.78-6.31-5.09-8.8-2.01-2.15,2.13-1.55,10.38.49,12.2,1.86,1.78,4.8.9,6.26-.99,1.93-2.38,2.97-6.07,2.1-9.03l-.05-.16Z"/>
      <path class="cls-10" d="M42.79,30.3c-.55-1.83-3.76-2.37-4.45-.32-1.11,2.61,2.71,6.78,5.35,6.28,1.49-.78-.29-2.42-.57-3.47-.27-.81-.11-1.65-.29-2.36l-.04-.14Z"/>
      <path class="cls-10" d="M44.75,50.92c-.19-.63-1.17-.82-1.65-1.38-.5-.6.03-1.45-.23-2.12-.57-1.43-2.71-.49-3,.68-.24,1.62,1.7,2.55,2.39,3.85.34.43.76.79,1.27.78.73-.07,1.43-.95,1.25-1.68l-.04-.13Z"/>
      <path class="cls-10" d="M44.14,41.17c-.99-1.23-2.62-2.45-4.24-1.79-1.85,1.25-.16,3.13,1.22,3.88,1.74,1.06,3.84.14,3.11-1.93l-.09-.16Z"/>
      <path class="cls-7" d="M68.59,3.22c.92,26.53-4.02,52.81-9.34,78.68-1.91,9.58-3.5,19.26-2.88,29.05.37,7.48,1.42,14.96,1.63,22.46.84,18.89-5.65,37.12-6,55.91-.45,12.2,1.69,24.3,2.24,36.45.76,13.7-1.01,27.08-1.1,40.76-.04,11.26,1.4,22.46,1.74,33.87.52,18.84-1.43,40.26,16.95,51.51"/>
      <path class="cls-3" d="M68.59,3.22c.92,26.53-4.02,52.81-9.34,78.68-1.91,9.58-3.5,19.26-2.88,29.05.37,7.48,1.42,14.96,1.63,22.46.84,18.89-5.65,37.12-6,55.91-.45,12.2,1.69,24.3,2.24,36.45.76,13.7-1.01,27.08-1.1,40.76-.04,11.26,1.4,22.46,1.74,33.87.52,18.84-1.43,40.26,16.95,51.51"/>
    </g>
    <g>
      <rect x="48.96" y="346.84" width=".9" height=".9"/>
      <rect x="52.22" y="346.84" width=".9" height=".9"/>
    </g>
    <g>
      <rect class="cls-17" x="45.25" y="328.58" width=".9" height=".9"/>
      <rect class="cls-17" x="48.51" y="328.58" width=".9" height=".9"/>
    </g>
    <g>
      <rect class="cls-12" x="44.08" y="298.46" width=".9" height=".9" transform="translate(5.21 -.73) rotate(1)"/>
      <rect class="cls-12" x="47.34" y="298.52" width=".9" height=".9" transform="translate(5.21 -.79) rotate(1)"/>
    </g>
    <path class="cls-12" d="M30.86,271.3v8.08h-1.14l-2.59-4.09c-.6-.95-1.07-1.8-1.45-2.63h-.02c.1,1.09.12,2.08.12,3.33v3.38h-.98v-8.08h1.06l2.57,4.1c.56.9,1.1,1.82,1.51,2.7h.04c-.06-1.03-.08-2-.08-3.35v-3.45h.98Z"/>
    <g>
      <line class="cls-5" x1="27.32" y1="283.1" x2="29.93" y2="291.41"/>
      <polygon class="cls-12" points="27.6 291.46 30.9 294.48 31.87 290.12 27.6 291.46"/>
    </g>
    <g>
      <line class="cls-6" x1="53.4" y1="25.28" x2="53.4" y2="18.48"/>
      <path class="cls-16" d="M56.72,20.78c-1.11-.69-2.22.69-3.32,0v-2.3c1.11.69,2.22-.69,3.32,0v2.3Z"/>
    </g>
  </g>
</svg>