<?xml version="1.0" encoding="UTF-8"?>
<svg id="Layer_2" data-name="Layer 2" xmlns="http://www.w3.org/2000/svg" xmlns:xlink="http://www.w3.org/1999/xlink" viewBox="0 0 137.79 368.81">
  <defs>
    <style>
      .cls-1 {
        fill: #9aa255;
      }

      .cls-2 {
        fill: #788448;
      }

      .cls-3 {
        fill: url(#New_Pattern);
      }

      .cls-3, .cls-4, .cls-5, .cls-6, .cls-7 {
        fill-rule: evenodd;
      }

      .cls-8 {
        stroke-width: 2.56px;
      }

      .cls-8, .cls-9 {
        stroke-linejoin: round;
      }

      .cls-8, .cls-9, .cls-10, .cls-11, .cls-12, .cls-6 {
        fill: none;
      }

      .cls-8, .cls-9, .cls-12 {
        stroke-linecap: round;
      }

      .cls-8, .cls-11 {
        stroke: #fff;
      }

      .cls-9 {
        stroke: #bbb;
        stroke-width: 3.89px;
      }

      .cls-13 {
        fill: #fff;
      }

      .cls-11 {
        stroke-width: 1.12px;
      }

      .cls-11, .cls-6 {
        stroke-miterlimit: 10;
      }

      .cls-14 {
        fill: #5f6e38;
      }

      .cls-15 {
        fill: #8d954b;
      }

      .cls-16 {
        fill: #8c984e;
      }

      .cls-4 {
        fill: #ffedcb;
      }

      .cls-12 {
        stroke: #231f20;
        stroke-miterlimit: 2;
        stroke-width: .3px;
      }

      .cls-5 {
        fill: #a9b05c;
      }

      .cls-17 {
        fill: #ec1c24;
      }

      .cls-18 {
        fill: #06c;
      }

      .cls-6 {
        stroke: #aad3df;
        stroke-width: 1.11px;
      }

      .cls-7 {
        fill: #aad3df;
      }

      .cls-19 {
        clip-path: url(#clippath);
      }

      .cls-20 {
        fill: #858c48;
      }
    </style>
    <clipPath id="clippath">
      <path class="cls-10" d="M40.7,365.17c9.68,3.61,18.51.47,21.49-.63,11.05-4.11,17.62-12.87,23.63-22.82,14.96-24.8,20.93-47.89,22.24-53.14,8.14-32.47,12.21-48.71,15.4-76.85,3.77-33.23,9.1-83.53-3.99-133.17-3.66-13.87-9.89-26.27-22.35-51.05-3.64-7.24-8.13-15.72-17.67-21.58-3.24-1.99-12.94-7.96-24.01-5.08-13.04,3.39-18.72,16.65-20.31,20.37-6.11,14.27-2.36,28.28.73,39.81,2.77,10.36,5.26,13.52,10.64,26.05,1.94,4.52,11.5,27.07,17.32,55.59,1.58,7.74,4.63,24.47,5.26,46.14.73,25.06-2.14,44.12-3.18,50.46-2.82,17.26-5.54,33.83-14.75,53.19-12.7,26.68-19.05,40.02-20.46,41.94-2.33,3.16-6.4,8.31-5.63,14.61,1,8.11,9.49,13.88,15.65,16.18Z"/>
    </clipPath>
    <pattern id="New_Pattern" data-name="New Pattern" x="0" y="0" width="24" height="24" patternTransform="translate(-2297.32 1230.07)" patternUnits="userSpaceOnUse" viewBox="0 0 24 24">
      <g>
        <rect class="cls-10" width="24" height="24"/>
        <rect class="cls-1" width="12" height="12"/>
        <rect class="cls-15" x="12" width="12" height="12"/>
        <rect class="cls-20" x="12" y="12" width="12" height="12"/>
        <rect class="cls-16" y="12" width="12" height="12"/>
      </g>
    </pattern>
  </defs>
  <g id="Hole_11" data-name="Hole 11">
    <g class="cls-19">
      <path class="cls-14" d="M40.7,365.17c9.68,3.61,18.51.47,21.49-.63,11.05-4.11,17.62-12.87,23.63-22.82,14.96-24.8,20.93-47.89,22.24-53.14,8.14-32.47,12.21-48.71,15.4-76.85,3.77-33.23,9.1-83.53-3.99-133.17-3.66-13.87-9.89-26.27-22.35-51.05-3.64-7.24-8.13-15.72-17.67-21.58-3.24-1.99-12.94-7.96-24.01-5.08-13.04,3.39-18.72,16.65-20.31,20.37-6.11,14.27-2.36,28.28.73,39.81,2.77,10.36,5.26,13.52,10.64,26.05,1.94,4.52,11.5,27.07,17.32,55.59,1.58,7.74,4.63,24.47,5.26,46.14.73,25.06-2.14,44.12-3.18,50.46-2.82,17.26-5.54,33.83-14.75,53.19-12.7,26.68-19.05,40.02-20.46,41.94-2.33,3.16-6.4,8.31-5.63,14.61,1,8.11,9.49,13.88,15.65,16.18Z"/>
      <path class="cls-6" d="M55.13,275.28c7.6-.3,12.61-1.1,15.06-1.38,13.56-1.57,21.66,4.17,34.3,6.88,11.65,2.5,13.68,2.8,33.25,1.04"/>
      <path class="cls-3" d="M81.79,237.7c6.36,12.2,20.07,7.95,23.45-4.42,3.12-10.3,1.64-21.25,3.25-31.79,1.33-9.91,4.69-19.97,4.81-30.02.29-8.74-1.22-16.72-1.77-25.49-.49-7.12-.41-15.28-1-22.44-.49-6.88-1.7-12.73-2.94-19.68-1.05-6.41-2.21-12.94-4.67-19.02-3.28-8.17-8.39-15.79-13.24-22.99-4.23-5.84-8.56-11.87-14.31-16.2-4.4-3.24-10.3-3.11-14.58-6.12-.86-.59-1.62-1.26-2.36-2.05-3.14-3.16-7.46-13.75-9.48-6.04-.68,8.19,5.96,15.17,10.27,21.57,3.3,4.62,6.96,8.29,11.36,11.67,12.65,8.42,9.36,18.03,7.61,31.1-1.18,8.15-3.07,16.71.84,24.33,2.27,4.56,6.51,8.54,9.97,12.73,5.13,6.01,8.74,13.36,9.27,21.32,1.21,14.65-7.9,27.15-12.83,40.32-3.06,7.76-4.32,16.13-5.12,24.43-.53,6.15-1.15,12.83,1.39,18.58l.08.18Z"/>
      <g>
        <path class="cls-5" d="M65.41,47.56c-4.4,0-8.98-3.64-9.84-7.81l-.04-.15c-.18-.69-.33-1.36-.49-2.03-.56-2.4-1.13-4.89-2.34-6.97-1.86-3.06-2.5-5.61-1.93-7.78.46-1.73,1.67-3.17,3.62-4.26,4.31-2.33,7.68-3.45,10.31-3.45,1.96,0,3.56.62,4.75,1.85,1.79,1.85,2.58,4.98,2.43,9.56-.31,3.17-.54,6.49-.17,9.83.02.52.04.96.06,1.4.11,2.35.24,5.01-1.04,7.2l-.04.07-.05.06c-1.3,1.62-3.11,2.48-5.24,2.48h0Z"/>
        <path class="cls-2" d="M64.71,16.23c3.88,0,6.32,2.75,6.06,10.26-.33,3.32-.54,6.66-.16,9.99.07,2.6.5,5.62-.84,7.91-1.16,1.45-2.72,2.06-4.37,2.06-3.79,0-8.02-3.25-8.76-6.97l-.06-.19c-.77-3.02-1.29-6.42-2.93-9.24-2.33-3.82-3.37-7.9,1.28-10.51,3.68-1.98,7.07-3.31,9.77-3.31M64.71,14c-2.86,0-6.3,1.14-10.83,3.58-2.25,1.26-3.65,2.93-4.19,4.96-.65,2.47.03,5.31,2.06,8.66,1.1,1.9,1.66,4.3,2.19,6.63.16.68.31,1.36.48,2.01v.04s.02.04.02.04l.03.1c.98,4.62,6.05,8.65,10.92,8.65,2.44,0,4.61-1.03,6.11-2.9l.1-.13.08-.14c1.44-2.48,1.31-5.31,1.19-7.81-.02-.43-.04-.86-.05-1.27v-.1s-.01-.1-.01-.1c-.37-3.23-.14-6.48.16-9.52v-.07s0-.07,0-.07c.17-4.9-.73-8.29-2.74-10.37-1.4-1.45-3.27-2.19-5.54-2.19h0Z"/>
      </g>
      <path class="cls-5" d="M75.93,324.56c2.24,2.33,5.97,1.75,8.39-.07,6.04-3.96,10.47-16.86,9.3-23.91-1.81-6.73-9.64-4.6-12.53.59-1.31,2.06-2.37,4.27-3.28,6.53-1.78,5.2-5.71,11.74-2.02,16.72l.12.13Z"/>
      <path class="cls-5" d="M62.55,343.31c3.85,7.65,13.84-2.23,11.69-8.14-3.69-8.7-14.03,1.73-11.75,7.95l.07.19Z"/>
      <path class="cls-5" d="M32.97,350.65c2.06,3.22,7.66,5.55,11.4,4.3,2.89-1.13,2.6-4.81.97-6.92-1.93-2.68-5.41-4.31-8.6-3.74-2.88.32-5.34,3.37-3.87,6.17l.09.18Z"/>
      <path class="cls-4" d="M75.36,39.44c1.19,2.71,4.52,1.13,3.9-1.6-.24-1.01-1.15-1.77-1.34-2.78-.14-.75.06-1.58-.08-2.35-.11-1.1-1.29-1.91-2.4-1.69-1.3.3-1.57,1.88-1.3,3.03.19.91,1.03,1.38,1.35,2.11.39.87-.54,2.13-.18,3.11l.06.17Z"/>
      <path class="cls-4" d="M75.77,25.98c1,1.4,3.33.93,4.11-.49.89-1.39.02-3.43-1.57-3.68-2.17-.49-3.81,2.24-2.65,4.02l.1.15Z"/>
      <path class="cls-7" d="M38.63,3.92s3.26-.5,8.61-.94c5.88-.53,12.23-1.89,17.72,1.1,5.89,2.86,10.23,8.93,16.51,11.11,4.12,1.58,9.5.34,10.59-4.43C93.98-1.5,74.35.07,74.35.07h-35.41l-2.05,2.27,1.75,1.58Z"/>
      <path class="cls-9" d="M1.95,28.92c10.67.54,21.47.05,30.52,5.71,6.47,3.98,10.48,10.87,14.43,17.21,3.91,6.35,8.22,12.2,12.6,18.16,5.49,7.23,10.15,15.54,9.41,24.92-.32,6.71-1.87,13.5-2.64,20.22-1.07,8.16-.78,16.54,0,24.85.66,8.82,1.88,17.62,4.07,26.22,1.99,8.05,3.56,16.15,3.89,24.47.58,14.52-1.21,29.73-.27,44.39.34,6.15,1.46,12.2,3.47,18,3.38,9.53,7.9,19.32,6,29.63-2.43,12.79-10.96,23.45-17.47,34.47-10.95,17.6-16.02,30.5-10.98,49.69"/>
      <path class="cls-8" d="M1.95,28.92c10.67.54,21.47.05,30.52,5.71,6.47,3.98,10.48,10.87,14.43,17.21,3.91,6.35,8.22,12.2,12.6,18.16,5.49,7.23,10.15,15.54,9.41,24.92-.32,6.71-1.87,13.5-2.64,20.22-1.07,8.16-.78,16.54,0,24.85.66,8.82,1.88,17.62,4.07,26.22,1.99,8.05,3.56,16.15,3.89,24.47.58,14.52-1.21,29.73-.27,44.39.34,6.15,1.46,12.2,3.47,18,3.38,9.53,7.9,19.32,6,29.63-2.43,12.79-10.96,23.45-17.47,34.47-10.93,17.58-16.01,30.46-11,49.6"/>
    </g>
    <g>
      <rect x="37.3" y="349.15" width="1" height="1"/>
      <rect x="40.93" y="349.15" width="1" height="1"/>
    </g>
    <g>
      <rect class="cls-18" x="65.71" y="338.27" width="1" height="1"/>
      <rect class="cls-18" x="69.34" y="338.27" width="1" height="1"/>
    </g>
    <path class="cls-13" d="M105.03,249.74v8.08h-1.14l-2.59-4.09c-.6-.95-1.07-1.8-1.45-2.63h-.02c.1,1.09.12,2.08.12,3.33v3.38h-.98v-8.08h1.06l2.57,4.1c.56.9,1.1,1.82,1.51,2.7h.04c-.06-1.03-.08-2-.08-3.35v-3.45h.98Z"/>
    <g>
      <line class="cls-11" x1="104.71" y1="272.71" x2="101.55" y2="264.59"/>
      <polygon class="cls-13" points="103.87 264.39 100.39 261.59 99.7 266.01 103.87 264.39"/>
    </g>
    <g>
      <rect class="cls-13" x="82.73" y="310.14" width="1" height="1" transform="translate(5.42 -1.4) rotate(1)"/>
      <rect class="cls-13" x="86.36" y="310.21" width="1" height="1" transform="translate(5.42 -1.46) rotate(1)"/>
    </g>
    <g>
      <line class="cls-12" x1="62.39" y1="31" x2="62.39" y2="24.2"/>
      <path class="cls-17" d="M65.71,26.5c-1.11-.69-2.22.69-3.32,0v-2.3c1.11.69,2.22-.69,3.32,0v2.3Z"/>
    </g>
  </g>
</svg>