<?xml version="1.0" encoding="UTF-8"?>
<svg id="Layer_2" data-name="Layer 2" xmlns="http://www.w3.org/2000/svg" xmlns:xlink="http://www.w3.org/1999/xlink" viewBox="0 0 138.43 300.58">
  <defs>
    <style>
      .cls-1 {
        fill: #9aa255;
      }

      .cls-2 {
        stroke-width: 4.71px;
      }

      .cls-2, .cls-3, .cls-4, .cls-5, .cls-6 {
        fill: none;
      }

      .cls-2, .cls-4 {
        stroke: #fff;
      }

      .cls-2, .cls-5 {
        stroke-linejoin: round;
      }

      .cls-2, .cls-5, .cls-6 {
        stroke-linecap: round;
      }

      .cls-7 {
        fill: #788448;
      }

      .cls-8 {
        fill: url(#New_Pattern);
      }

      .cls-8, .cls-9, .cls-10 {
        fill-rule: evenodd;
      }

      .cls-11 {
        fill: #fff;
      }

      .cls-4 {
        stroke-miterlimit: 10;
        stroke-width: 1.12px;
      }

      .cls-12 {
        fill: #5f6e38;
      }

      .cls-13 {
        fill: #8d954b;
      }

      .cls-14 {
        fill: #8c984e;
      }

      .cls-9 {
        fill: #ffedcb;
      }

      .cls-5 {
        stroke: #bbb;
        stroke-width: 7.17px;
      }

      .cls-6 {
        stroke: #231f20;
        stroke-miterlimit: 2;
        stroke-width: .3px;
      }

      .cls-10 {
        fill: #a9b05c;
      }

      .cls-15 {
        fill: #ec1c24;
      }

      .cls-16 {
        fill: #06c;
      }

      .cls-17 {
        clip-path: url(#clippath);
      }

      .cls-18 {
        fill: #858c48;
      }
    </style>
    <clipPath id="clippath">
      <path class="cls-3" d="M95.29,297c3.7.34,20.87-.99,30.38-10.81,7.52-7.75,9.88-47.93,9.13-53.05-5.48-37.04,10.02-25.12.4-150.22-3.68-47.85-6.68-59.1-16.83-67.77C100.92.25,74.79,3.64,67.48,4.59,57.32,5.91,15.44,42.07,4.66,61.35c-9.98,17.85-1.72,39.13,4.23,54.43,8.03,20.68,14.81,20.92,30.67,49.42,12.37,22.23,19.07,34.27,21.46,51.74,4.08,29.83-9.3,39.78.73,57.87,6.84,12.35,20.4,20.96,33.54,22.18Z"/>
    </clipPath>
    <pattern id="New_Pattern" data-name="New Pattern" x="0" y="0" width="24" height="24" patternTransform="translate(-3116.29 1232.56)" patternUnits="userSpaceOnUse" viewBox="0 0 24 24">
      <g>
        <rect class="cls-3" width="24" height="24"/>
        <rect class="cls-1" width="12" height="12"/>
        <rect class="cls-13" x="12" width="12" height="12"/>
        <rect class="cls-18" x="12" y="12" width="12" height="12"/>
        <rect class="cls-14" y="12" width="12" height="12"/>
      </g>
    </pattern>
  </defs>
  <g id="Hole_16" data-name="Hole 16">
    <g class="cls-17">
      <path class="cls-12" d="M95.29,297c3.7.34,20.87-.99,30.38-10.81,7.52-7.75,9.88-47.93,9.13-53.05-5.48-37.04,10.02-25.12.4-150.22-3.68-47.85-6.68-59.1-16.83-67.77C100.92.25,74.79,3.64,67.48,4.59,57.32,5.91,15.44,42.07,4.66,61.35c-9.98,17.85-1.72,39.13,4.23,54.43,8.03,20.68,14.81,20.92,30.67,49.42,12.37,22.23,19.07,34.27,21.46,51.74,4.08,29.83-9.3,39.78.73,57.87,6.84,12.35,20.4,20.96,33.54,22.18Z"/>
      <path class="cls-8" d="M79.58,88.88c-.2,1.77.94,4.41.53,6.44-1.36,9.67-9.79,18.19-20.03,16.88-.97.06-1.12.26-.75.66.63.74,4.05,2.4,5.97,4.17,3.09,2.59,5.17,7.07,9.19,8.4,6.35,1.98,11.22-3.96,9.75-10.21-.74-4.6-1.66-9.09-1.4-13.71,0-2.48.09-5.16-.51-7.58-.71-2.68-2.39-5.27-2.69-5.08l-.05.02Z"/>
      <g>
        <path class="cls-10" d="M64.7,114.5c-6.47,0-12.7-3.89-17.72-7.04-13.09-6.68-9.87-15.15-6.13-24.96l.1-.28c1.14-2.95,1.01-6.07.87-9.38-.06-1.51-.13-3.06-.07-4.64v-.16c.76-6.62,4.03-14.01,10.98-14.87h.08s.49-.03.49-.03h.08c11.82.39,16.58,13.95,19.13,21.24.89,2.43,2.3,4.59,3.79,6.88,1.04,1.6,2.12,3.25,3.05,5.05,5.81,8.58,1.43,19.7-6.21,25.53l-.09.06c-2.52,1.72-5.34,2.6-8.37,2.6h0Z"/>
        <path class="cls-7" d="M53.32,55.2c10.07.33,14.39,11.67,17.27,19.86,1.65,4.51,4.83,8.01,7.02,12.3,5.34,7.75,1.13,17.65-5.69,22.85-2.34,1.6-4.77,2.24-7.22,2.24-5.87,0-11.81-3.7-16.71-6.78-11.65-5.91-9.02-12.49-5.12-22.72,1.85-4.78.76-9.71.93-14.68.6-5.32,3.18-12.32,9.18-13.07h.33M53.3,51.1h-.16s-.33.02-.33.02h-.16s-.16.03-.16.03c-8.13,1.01-11.92,9.27-12.75,16.67l-.02.16v.16c-.06,1.66,0,3.26.07,4.8.13,3.22.25,6-.73,8.54l-.11.3c-3.74,9.81-7.6,19.95,7.03,27.47,5.23,3.28,11.71,7.31,18.73,7.31,3.45,0,6.66-.99,9.53-2.95l.09-.06.09-.07c8.36-6.38,13.12-18.63,6.73-28.2-.96-1.86-2.05-3.52-3.11-5.13-1.43-2.18-2.77-4.24-3.59-6.46-2.72-7.75-7.78-22.14-20.99-22.58h-.16Z"/>
      </g>
      <path class="cls-10" d="M112.13,213.9c-6.19-1.13-13.4.96-17.49,4.88-5.11,4.45-4.96,10.21-5.97,16.11-1.25,8.85-5.1,18.43-5.7,26.91-.93,6.61.13,13.1,5.47,18.59,4.22,4.35,13.86,7.26,20.92,7.52,5.57.02,8.92-3.84,10.25-7.44,4.66-14.9,2.03-31.13,1.55-46.41-.76-6.61,2.67-17.13-8.54-20.06l-.5-.1Z"/>
      <path class="cls-9" d="M41.91,118.85c-3.63,1.75-5.58,7.61-1.77,10.12,2.52,1.74,6.1.69,8.6,2.57,4.22,2.75,6.89,9.56,13.04,6.89,2.38-.77,4.66-2.51,5.21-4.78.99-3.62-2.48-5.73-5.31-3.28-1.77,1.52-4.58,2.09-5.16-.55-.38-1.79.17-4.09-1.32-5.5-1.39-1.48-3.58-1.08-5.41-1.2-3.09-.21-4.04-5.39-7.58-4.37l-.3.09Z"/>
      <path class="cls-9" d="M80.5,55.58c-2.51.38-4.58,3.59-4.04,6.39.31,2.03,1.61,3.8,2.14,5.76.52,1.74.63,3.65,1.27,5.37,2.47,6.34,9.2,5.08,12.9.71,2.2-1.88,3.43-5.74.65-7.44-1.83-1.13-4.53,1-6.37.52-2.14-.68-1.1-3.32-1.02-4.98.43-3.18-2.59-6.62-5.22-6.37l-.31.04Z"/>
      <path class="cls-9" d="M26.72,61.41c-2.1.48-2.6,2.96-3.59,4.6-1.26,2.69-5.44,3.67-5.89,6.4-.43,2.46,1.57,4.55,2.93,6.42,2.41,2.52,2.24,7.33,4.68,9.28,1.5,1.11,3.6.82,5.11-.18,1.6-1.01,2.6-2.9,2.34-4.8-.27-3.07-4.02-5.75-4.21-8.67-.51-3.08,3.31-6.41,2.81-9.65-.21-1.89-1.95-3.65-3.9-3.44l-.28.05Z"/>
      <path class="cls-5" d="M72.68,297c-3.07-24.38-1.73-49.9,8.2-72.81,5.58-12.71,13.17-24.57,16.4-38.21,4.15-18.57,3.81-38.42,5.39-57.19.97-13.73,3.66-27.37,9.09-40.18,8.02-18.57,20.73-42.57-1.49-56.37-8.78-5.5-19.16-8.28-28.41-12.94-14.82-8.12-22.43-12.93-29.56-15.72"/>
      <path class="cls-2" d="M72.68,297c-3.07-24.38-1.73-49.9,8.2-72.81,5.58-12.71,13.17-24.57,16.4-38.21,4.15-18.57,3.81-38.42,5.39-57.19.97-13.73,3.66-27.37,9.09-40.18,8.02-18.57,20.73-42.57-1.49-56.37-8.78-5.5-19.16-8.28-28.41-12.94-14.28-7.82-21.87-12.58-28.78-15.4"/>
    </g>
    <g>
      <rect x="100.64" y="275.21" width="1.84" height="1.84"/>
      <rect x="107.32" y="275.21" width="1.84" height="1.84"/>
    </g>
    <g>
      <rect class="cls-16" x="100.64" y="249.71" width="1.84" height="1.84"/>
      <rect class="cls-16" x="107.32" y="249.71" width="1.84" height="1.84"/>
    </g>
    <g>
      <rect class="cls-11" x="100.65" y="227.88" width="1.84" height="1.84" transform="translate(4 -1.73) rotate(1)"/>
      <rect class="cls-11" x="107.33" y="227.99" width="1.84" height="1.84" transform="translate(4 -1.85) rotate(1)"/>
    </g>
    <path class="cls-11" d="M74.84,167.51v8.08h-1.14l-2.59-4.09c-.6-.95-1.07-1.8-1.45-2.63h-.02c.1,1.09.12,2.08.12,3.33v3.38h-.98v-8.08h1.06l2.57,4.1c.56.9,1.1,1.82,1.51,2.7h.04c-.06-1.03-.08-2-.08-3.35v-3.45h.98Z"/>
    <g>
      <line class="cls-4" x1="65.85" y1="182.29" x2="74.55" y2="182.44"/>
      <polygon class="cls-11" points="73.86 184.67 77.77 182.5 73.94 180.2 73.86 184.67"/>
    </g>
    <g>
      <line class="cls-6" x1="52.72" y1="88.87" x2="52.72" y2="82.07"/>
      <path class="cls-15" d="M56.04,84.37c-1.11-.69-2.22.69-3.32,0v-2.3c1.11.69,2.22-.69,3.32,0v2.3Z"/>
    </g>
  </g>
</svg>