<?xml version="1.0" encoding="UTF-8"?>
<svg id="Layer_2" data-name="Layer 2" xmlns="http://www.w3.org/2000/svg" xmlns:xlink="http://www.w3.org/1999/xlink" viewBox="0 0 112.39 367">
  <defs>
    <style>
      .cls-1 {
        fill: #9aa255;
      }

      .cls-2 {
        fill: #788448;
      }

      .cls-3 {
        stroke: #8f8f8f;
        stroke-linecap: square;
        stroke-width: 10.42px;
      }

      .cls-3, .cls-4, .cls-5, .cls-6, .cls-7, .cls-8 {
        fill: none;
      }

      .cls-3, .cls-6, .cls-7 {
        stroke-linejoin: round;
      }

      .cls-9 {
        fill: url(#New_Pattern);
      }

      .cls-9, .cls-10, .cls-11, .cls-12 {
        fill-rule: evenodd;
      }

      .cls-13 {
        fill: #fff;
      }

      .cls-14 {
        fill: #8d954b;
      }

      .cls-5 {
        stroke-miterlimit: 10;
        stroke-width: 1.17px;
      }

      .cls-5, .cls-7 {
        stroke: #fff;
      }

      .cls-6 {
        stroke: #bbb;
        stroke-width: 3.65px;
      }

      .cls-6, .cls-7, .cls-8 {
        stroke-linecap: round;
      }

      .cls-15 {
        fill: #8c984e;
      }

      .cls-10 {
        fill: #ffedcb;
      }

      .cls-7 {
        stroke-width: 2.4px;
      }

      .cls-8 {
        stroke: #231f20;
        stroke-miterlimit: 2;
        stroke-width: .3px;
      }

      .cls-11 {
        fill: #a9b05c;
      }

      .cls-16 {
        fill: #ec1c24;
      }

      .cls-17 {
        fill: #06c;
      }

      .cls-12 {
        fill: #5f6e38;
      }

      .cls-18 {
        clip-path: url(#clippath);
      }

      .cls-19 {
        fill: #858c48;
      }
    </style>
    <clipPath id="clippath">
      <path class="cls-4" d="M44.57,364.91c-3.43,1.12-13.58,4.42-21.86-.64-4.57-2.79-6.87-7.1-8.21-10.19-9.05-20.81-4.5-54.29-2.9-68.92.6-5.49,1.08-21.02,2.04-52.09.63-20.21,1.98-64.06-5.46-114.73C2.35,78.69-5.2,59.85,5.09,36.95c2.15-4.78,8.3-18.04,22.57-27.62C32.53,6.06,42.07-.35,55.08.01c15.19.42,25.66,9.83,30.57,14.37,9.68,8.95,17.15,21.57,22.61,47.61,4.06,19.38,4.93,36.31,3.46,75.47-1.45,38.66-2.17,57.99-5.88,85.18-3.53,25.87-8.23,43.97-17.63,80.16-1.87,7.18-7.3,27.31-22.3,46.04-4.94,6.17-11.44,12.83-21.35,16.06Z"/>
    </clipPath>
    <pattern id="New_Pattern" data-name="New Pattern" x="0" y="0" width="24" height="24" patternTransform="translate(-684.3 1230)" patternUnits="userSpaceOnUse" viewBox="0 0 24 24">
      <g>
        <rect class="cls-4" width="24" height="24"/>
        <rect class="cls-1" width="12" height="12"/>
        <rect class="cls-14" x="12" width="12" height="12"/>
        <rect class="cls-19" x="12" y="12" width="12" height="12"/>
        <rect class="cls-15" y="12" width="12" height="12"/>
      </g>
    </pattern>
  </defs>
  <g id="Hole_1" data-name="Hole 1">
    <g class="cls-18">
      <g>
        <g>
          <path class="cls-12" d="M22.85,366.88h33.01s33.63-42.1,41.2-60.09c8.2-19.47,17.85-82.61,17.85-82.61l2.42-117.87-9.04-64.32L98.54,2.09l-24.44-2.09h-33.98L14.43,6.7-2.43,9.13l-2.57,60.95L-.51,144.2l4.11,111.36,3.33,71.43s4.13,19.78,4.51,27.95c.27,5.95,2.16,5.51,6.39,8.82,3.8,2.98-.29,2.02-.29,2.02l5.32,1.11Z"/>
          <path class="cls-3" d="M3.61,22.77l2.26,60.25,1.73,46.14.18,11.19,3.64,85.3.23,9.54.85,42.48.5,9.01-1.25,13.5-3.56,18.36-2.21,6.7"/>
        </g>
        <path class="cls-9" d="M85.59,103.06c-1.24-7.65-4.07-16.78-5.85-24.01-.96-4.28-1.3-8.81-2.13-13.15-1.96-9.28-9.58-15.46-16.3-21.39-2.25-1.85-3.71-3.13-6.18-3.38-2.25-.22-4.23,1.62-6.53,1.98-2.19.52-4.59-.45-5.47,1.19-.77,1.29-.87,4.47-1.08,7.52-.37,6.79-.44,14.27.49,21.09.69,4.13,2.6,7.91,4.07,12.47,1.51,4.56,2.31,9.05,3.64,13.63.84,2.98,1.9,5.75,2.64,8.49,1.49,4.95,1.03,10.96,1.07,16.23.05,6.16,2.77,11.43,5.15,16.93,1.25,2.9,2.22,5.73,1.99,8.87-5.32,34.4-11.13,71.03-16.34,105.09-.64,4.28-1.14,6.72,0,10.15,2.09,6.65,9.94,11.11,16.56,8.04,11.02-4.52,11.83-17.32,11.95-27.63-.66-16-2.71-26.83,7.24-41.02,7.88-11.51,13.09-16.14,10.52-31.14-1-6.13.15-12.43-.72-18.54-.95-5.63-3.93-10.99-5.59-16.52-5.27-13.9,2.77-21.78.92-34.69l-.03-.19Z"/>
        <g>
          <polygon class="cls-11" points="44.64 46.8 43.05 44.65 41.83 42.33 40.83 38.92 39.74 36.19 38.89 34.28 37.41 32.78 36.31 31.48 35.05 29.27 33.89 27.48 32.88 25.94 32.21 23.83 32.64 21.95 33.9 19.54 35.7 18.13 37.42 17.13 39.53 16.75 41.24 16.69 43.67 16.55 46.55 18.04 47.91 20.02 49.41 20.62 52.46 21.27 55.72 22.27 57.65 23.2 59.79 24.18 61.88 25.88 62.98 28.29 63.07 30.91 61.33 32.47 60.7 33.59 58.65 35.76 57.75 37.07 56.41 38.65 55.07 40.43 54.43 43 53.77 44.53 52.3 46.08 50.3 47.06 47.91 47.76 44.64 46.8"/>
          <path class="cls-2" d="M43.44,17.6l2.4,1.24,1.39,2.02,1.87.75,3.15.66,3.09.96,1.86.89,2.03.94,1.8,1.46.91,1.99.07,1.93-1.51,1.35-.65,1.16-2.01,2.13-.92,1.33-1.3,1.54-1.51,2-.67,2.69-.56,1.28-1.21,1.28-1.75.86-2.02.6-2.63-.78-1.34-1.81-1.13-2.15-.98-3.36-1.11-2.78-.95-2.12-1.61-1.63-.98-1.17-1.21-2.13-1.2-1.85-.92-1.43-.55-1.7.34-1.48,1.09-2.09,1.58-1.22,1.5-.87,1.86-.33,1.64-.06,2.16-.13M43.89,15.49l-.57.03-2.16.13-1.6.06h-.14s-.14.03-.14.03l-1.86.33-.36.06-.32.19-1.5.87-.12.07-.11.09-1.58,1.22-.36.28-.21.4-1.09,2.09-.12.24-.06.26-.34,1.48-.13.56.18.55.55,1.7.08.26.15.23.92,1.43,1.17,1.8,1.18,2.07.09.16.12.14.98,1.17.05.06.06.06,1.35,1.36.78,1.74,1.06,2.64.95,3.26.06.2.1.19,1.13,2.15.08.14.1.13,1.34,1.81.41.56.67.2,2.63.78.59.18.59-.17,2.02-.6.17-.05.16-.08,1.75-.86.34-.17.26-.27,1.21-1.28.25-.27.15-.34.56-1.28.07-.16.04-.17.56-2.27,1.22-1.61,1.27-1.5.06-.08.06-.08.83-1.2,1.9-2.01.18-.19.13-.23.48-.86,1.25-1.11.73-.65-.03-.98-.07-1.93v-.42s-.19-.38-.19-.38l-.91-1.99-.2-.44-.38-.31-1.8-1.46-.2-.16-.24-.11-2.03-.94-1.83-.88-.14-.07-.15-.05-3.09-.96-.09-.03-.1-.02-2.97-.63-1.12-.45-1.03-1.51-.3-.43-.46-.24-2.4-1.24-.51-.26h0Z"/>
        </g>
        <path class="cls-11" d="M35.24,312.4c-.77-.56-2.6-1-3.6-1.32-.92-.26-1.63-.34-1.85.63-.59,2.61-2.32,10.24-2.95,13.41-.16,1.16,1.01,1.33,1.98,1.69,1.07.19,3.01,1.39,3.5-.01.48-1.7,1.67-7.05,2.53-10.61.24-1.31,1.02-3.37.46-3.71l-.08-.07Z"/>
        <path class="cls-10" d="M59.99,14.57c-.37-.61-1.15-.55-1.78-.63-1.44-.08-1.59-2.25-2.61-2.92-.41-.31-.96-.55-1.47-.39-1.07.38-2.05,1.72-3.3.98-1.08-.36-1.81-1.8-2.99-1.67-1.49.42-2.47,2.05-1.97,3.58.56,2.95,5.41,4.16,8,4.77,1.48.11,3.2.24,4.64-.38,1.11-.56,2.12-1.98,1.56-3.19l-.08-.14Z"/>
        <path class="cls-11" d="M31.09,330.33c-.76-.56-2.68-1.01-3.69-1.34-.97-.3-1.63-.31-1.84.69-.59,2.54-2.31,9.23-2.82,11.96-.05.97,1.12,1.13,1.97,1.45,1.02.17,2.87,1.33,3.47.19.66-2.01,1.59-6.15,2.47-9.42.24-1.17.99-3.12.51-3.45l-.07-.07Z"/>
        <path class="cls-10" d="M58.12,146.85c-.52-.88-1.22-1.71-1.15-2.86.22-1.77-.08-3.99-2.17-4.3-1.98-.41-3.85,1.38-3.52,3.4.66,2.06.55,4.24,1.24,6.19.7,1.58,2.57,2.59,3.98,1.69,1.27-.74,2.45-2.55,1.7-3.97l-.08-.15Z"/>
        <path class="cls-11" d="M27.23,346.8c-.6-.54-2.19-.82-3.13-1.17-.87-.17-1.78-.83-2.43-.22-.62,1.35-1.22,4.79-1.7,6.53-.06.31-.12.59-.05.86.09.32.41.48.99.65,1.17.31,2.68.7,3.9.98,1.4.49,1.45-.77,1.71-2.13.16-1.51,1.09-4.16.79-5.41l-.06-.09Z"/>
        <path class="cls-10" d="M39.85,42.09c0-1.4-1.32-2.39-2.3-3.31-1.19-1.05-1.45-2.51-1.58-4.01-.2-1.8-2.12-2.28-3.48-1.45-1.26.66-1.45,2.52-.68,3.69.62,1.01,1.66,1.67,2.28,2.69.72,1.05.96,2.41,1.82,3.37,1.03,1.21,3.9,1.11,3.94-.8v-.17Z"/>
        <path class="cls-10" d="M66.46,35.7c-.29-.99-1.45-1.65-2.41-1.15-1.13.46-1.41,1.92-2.18,2.75-.79.92-2.17,1.3-2.81,2.35-.53.81-.35,1.86.56,2.24,3.62,1.13,7.6-2.43,6.89-6.02l-.05-.16Z"/>
        <path class="cls-6" d="M29.34,368.2c.58-10.68,5.37-33.69,7.87-44.37,1.68-6.96,2.45-11.06,1.53-18.04-1.77-13.76-2.41-28.72-2.32-42.8.25-5.45,1.03-10.89,1.46-16.33.7-7.91.37-16.11.69-23.99.39-9.5,2.48-18.62,3.57-28.09,1.3-12.53,1.38-25.38.28-37.92-.97-17.66-8.88-34.93-7.65-52.62.63-10.43,2.65-21.51,2.93-32.42.63-11.01-4.78-20.19-9.56-29.65-4.88-9.97-7.6-20.62-10.39-31.26"/>
        <path class="cls-7" d="M29.34,368.2c.58-10.68,5.37-33.69,7.87-44.37,1.68-6.96,2.45-11.06,1.53-18.04-1.77-13.76-2.41-28.72-2.32-42.8.25-5.45,1.03-10.89,1.46-16.33.7-7.91.37-16.11.69-23.99.39-9.5,2.48-18.62,3.57-28.09,1.3-12.53,1.38-25.38.28-37.92-.97-17.66-8.88-34.93-7.65-52.62.63-10.43,2.65-21.51,2.93-32.42.63-11.01-4.78-20.19-9.56-29.65-4.88-9.97-7.6-20.62-10.39-31.26"/>
        <g>
          <line class="cls-5" x1="96.04" y1="74.47" x2="97.3" y2="83.46"/>
          <polygon class="cls-13" points="94.9 83.11 97.77 86.78 99.51 82.46 94.9 83.11"/>
        </g>
        <g>
          <rect x="22.01" y="349.03" width=".82" height=".82" transform="translate(91.37 6.14) rotate(15.03)"/>
          <rect x="24.87" y="349.8" width=".82" height=".82" transform="translate(91.67 5.42) rotate(15.03)"/>
        </g>
        <g>
          <rect class="cls-17" x="24.91" y="335.36" width=".82" height=".82" transform="translate(87.92 4.92) rotate(15.03)"/>
          <rect class="cls-17" x="27.77" y="336.12" width=".82" height=".82" transform="translate(88.22 4.2) rotate(15.03)"/>
        </g>
        <g>
          <rect class="cls-13" x="29.02" y="318.33" width=".82" height=".82" transform="translate(83.65 3.27) rotate(15.03)"/>
          <rect class="cls-13" x="31.87" y="319.09" width=".82" height=".82" transform="translate(83.94 2.56) rotate(15.03)"/>
        </g>
      </g>
    </g>
    <g>
      <line class="cls-8" x1="41.88" y1="27.49" x2="41.88" y2="20.69"/>
      <path class="cls-16" d="M45.2,22.99c-1.11-.69-2.22.69-3.32,0v-2.3c1.11.69,2.22-.69,3.32,0,0,.77,0,1.53,0,2.3Z"/>
    </g>
    <path class="cls-13" d="M98.34,61.73v8.56h-1.21l-2.74-4.33c-.63-1-1.13-1.91-1.54-2.78h-.02c.1,1.16.13,2.2.13,3.53v3.58h-1.04v-8.56h1.12l2.72,4.34c.6.95,1.17,1.93,1.6,2.86h.04c-.06-1.09-.09-2.12-.09-3.54v-3.66h1.04Z"/>
  </g>
</svg>