<?xml version="1.0" encoding="UTF-8"?>
<svg id="Layer_2" data-name="Layer 2" xmlns="http://www.w3.org/2000/svg" xmlns:xlink="http://www.w3.org/1999/xlink" viewBox="0 0 136.18 366.8">
  <defs>
    <style>
      .cls-1 {
        fill: #9aa255;
      }

      .cls-2 {
        fill: #788448;
      }

      .cls-3 {
        fill: url(#New_Pattern);
      }

      .cls-3, .cls-4, .cls-5, .cls-6 {
        fill-rule: evenodd;
      }

      .cls-7 {
        fill: #fff;
      }

      .cls-8, .cls-9, .cls-10, .cls-11, .cls-12, .cls-13 {
        fill: none;
      }

      .cls-9 {
        stroke-miterlimit: 10;
        stroke-width: 1.12px;
      }

      .cls-9, .cls-12 {
        stroke: #fff;
      }

      .cls-14 {
        fill: #8d954b;
      }

      .cls-15 {
        fill: #8c984e;
      }

      .cls-4 {
        fill: #ffedcb;
      }

      .cls-10 {
        clip-rule: evenodd;
      }

      .cls-11 {
        stroke: #231f20;
        stroke-miterlimit: 2;
        stroke-width: .3px;
      }

      .cls-11, .cls-12, .cls-13 {
        stroke-linecap: round;
      }

      .cls-5 {
        fill: #a9b05c;
      }

      .cls-16 {
        fill: #ec1c24;
      }

      .cls-17 {
        fill: #06c;
      }

      .cls-6 {
        fill: #5f6e38;
      }

      .cls-18 {
        clip-path: url(#clippath);
      }

      .cls-12 {
        stroke-width: 3.1px;
      }

      .cls-12, .cls-13 {
        stroke-linejoin: round;
      }

      .cls-19 {
        fill: #858c48;
      }

      .cls-13 {
        stroke: #bbb;
        stroke-width: 4.72px;
      }
    </style>
    <clipPath id="clippath">
      <path class="cls-10" d="M75.99,362.13c-6.05,5.13-15.99,6.25-22.33,2.25-7.5-4.73-8.06-15.41-8.98-23.46-2.27-19.89-12.43-38.08-17.41-57.47C3.04,189.06,3.32,193.39,2.25,185.19c-.87-6.71-1.29-33.39-2.13-86.75-.31-19.64-.33-28.08,3.67-39.37C14.13,29.91,39.49,15.08,47.93,10.68,56,6.48,72.75-1.97,94.51.42c8.14.89,30.78,3.37,39.33,19.38,1.42,2.65,6.45,13.17-4.84,42.73-11.56,30.26-23.57,36.86-34.93,58.88-9.87,19.14-11.37,38.01-14.37,75.75-3.62,45.64-5.43,68.45,1.1,94.79,4.65,18.75,3.89,29.57,2.38,51.21-.44,6.26-1.28,13.97-7.19,18.98Z"/>
    </clipPath>
    <pattern id="New_Pattern" data-name="New Pattern" x="0" y="0" width="24" height="24" patternTransform="translate(-1976.41 1230)" patternUnits="userSpaceOnUse" viewBox="0 0 24 24">
      <g>
        <rect class="cls-8" width="24" height="24"/>
        <rect class="cls-1" width="12" height="12"/>
        <rect class="cls-14" x="12" width="12" height="12"/>
        <rect class="cls-19" x="12" y="12" width="12" height="12"/>
        <rect class="cls-15" y="12" width="12" height="12"/>
      </g>
    </pattern>
  </defs>
  <g id="Hole_9" data-name="Hole 9">
    <g class="cls-18">
      <g>
        <path class="cls-6" d="M75.99,362.13c-6.05,5.13-15.99,6.25-22.33,2.25-7.5-4.73-8.06-15.41-8.98-23.46-2.27-19.89-12.43-38.08-17.41-57.47C3.04,189.06,3.32,193.39,2.25,185.19c-.87-6.71-1.29-33.39-2.13-86.75-.31-19.64-.33-28.08,3.67-39.37C14.13,29.91,39.49,15.08,47.93,10.68,56,6.48,72.75-1.97,94.51.42c8.14.89,30.78,3.37,39.33,19.38,1.42,2.65,6.45,13.17-4.84,42.73-11.56,30.26-23.57,36.86-34.93,58.88-9.87,19.14-11.37,38.01-14.37,75.75-3.62,45.64-5.43,68.45,1.1,94.79,4.65,18.75,3.89,29.57,2.38,51.21-.44,6.26-1.28,13.97-7.19,18.98Z"/>
        <path class="cls-3" d="M43.61,42.18c-9.03,5.02-10.88,12.72-12.02,22.32-.59,4.07-1.65,7.94-2.38,11.97-3.26,17.42,5.37,33.88,6.37,51.01.23,4.73-.04,9.48-.62,14.18-1.78,12.17-4.2,23.77-6,35.98-2.82,16.09-3.08,34.88,5.72,49.35,3.72,5.81,11.11,9.96,17.79,7.28,6.94-2.98,9.64-12.08,10.57-19.18,1.36-12.48,1.47-25.43,1.9-38.11-.03-18.15-.74-36.87.45-54.88.61-15.97.03-31.41,5.09-46.48,2.07-5.37,6.02-10.02,8.2-15.34,1.49-3.43,2.12-7.16,3.21-10.71.98-3.75,4.21-7.24,6.18-9.73,1.58-2.01,2.84-4.33,2.18-6.31-2.23-5.79-10.4-3.61-15.37-3.37-11.03,1.24-21.48,6.44-31.06,11.87l-.22.14Z"/>
        <g>
          <path class="cls-5" d="M108.71,46.46c-2.26,0-4.49-.45-6.65-.88-.84-.17-1.67-.34-2.5-.48-3.76-.35-9.58-.89-12.02-4.4-1.15-1.65-1.4-3.73-.74-6.17.13-.42.24-.82.36-1.23,1.05-3.63,2.37-8.14,6.17-9.69l.27-.1c.88-.29,1.78-.43,2.8-.43,2.14,0,4.41.62,6.6,1.22,1.65.45,3.21.88,4.67,1.05,1.24.19,2.52.21,3.5.21.57,0,1.15,0,1.73-.02.59,0,1.19-.02,1.78-.02,4.07,0,8.65.38,11.42,4.86,1.31,2.22,1.61,4.33.91,6.3-1.62,4.55-8.26,6.99-12.65,8.61l-.57.21c-1.52.63-3.2.94-5.09.94h0Z"/>
          <path class="cls-2" d="M96.4,24.44c3.48,0,7.53,1.85,11.12,2.26,1.16.18,2.4.22,3.66.22,1.16,0,2.34-.04,3.51-.04,4.04,0,7.93.43,10.28,4.22,4.44,7.53-5.98,11.06-11.63,13.15-1.53.63-3.07.86-4.62.86-2.97,0-5.97-.84-8.92-1.34-5.56-.52-13.69-1.44-11.68-8.89,1.07-3.5,2.14-8.55,5.74-10.02l.21-.08c.74-.25,1.53-.35,2.35-.35M96.4,21.74c-1.16,0-2.21.16-3.19.48h-.03s-.03.02-.03.02l-.21.08-.05.02-.05.02c-4.41,1.8-5.88,6.87-6.95,10.57-.12.4-.23.79-.34,1.17v.04s-.02.04-.02.04c-.77,2.84-.45,5.29.93,7.29,2.78,4,8.9,4.6,13,4.98.77.13,1.54.29,2.36.45,2.22.45,4.52.91,6.91.91,2.05,0,3.88-.34,5.6-1.04l.53-.19c4.63-1.7,11.62-4.28,13.45-9.43.58-1.63.88-4.23-1-7.41v-.02s-.03-.02-.03-.02c-3.4-5.5-9.37-5.5-12.57-5.5-.6,0-1.2,0-1.81.02-.57,0-1.14.02-1.71.02-.94,0-2.15-.02-3.25-.19h-.05s-.05-.01-.05-.01c-1.36-.16-2.87-.57-4.47-1.01-2.28-.62-4.63-1.27-6.95-1.27h0Z"/>
        </g>
        <path class="cls-5" d="M52.4,294.18c0,6.25,4.24,17.18,5.04,23.29,1.04,5.14,2.3,10.18,2.28,15.55.3,5.23-.34,11.12.74,16.15,1.48,4.43,9.55,1.53,11.18-1.74,3.47-6.68.45-13.8-.88-20.58-2.47-7.84-1.64-15.6-2.94-24.08-.49-3.17-1.29-7.07-2.61-10.42-.7-1.79-2.49-2.93-4.42-2.88l-3.85.1c-2.51.06-4.54,2.1-4.54,4.61Z"/>
        <path class="cls-4" d="M111.96,49.4c-2.07,2.67,1,6.96,4.11,6.26,1.17-.14,2.08-.84,3.04-1.5,1.66-1.47,4.16-.59,5.73-2.11,1.93-1.66.99-5.14-1.32-5.93-2.87-.81-4.03,2.28-6.02,3.43-1.88,1.15-3.97-1.5-5.41-.28l-.14.13Z"/>
        <path class="cls-4" d="M87.29,45.36c-1.5.49-2.32,2.16-2.44,3.65-.12,2.03,1.41,3.5,2.84,4.77,2.22,2.09,7.19,2.52,7.8-1.17.09-2.64-3.65-1.85-4.62-3.64-.16-.41-.13-.87-.15-1.32.29-1.85-1.66-2.71-3.2-2.35l-.23.06Z"/>
        <path class="cls-13" d="M130.25,9.11c-3.5,1.29-7.01,2.41-10.45,3.14-10.13,2.2-20.99,2.96-30.96,5.37-9.49,2.44-18.38,6.69-27.89,9.14-5.99,1.76-12.58,2.85-19.07,4.04-6.93,1.27-13.13,5.11-17.3,10.79-2.77,3.76-5.59,7.48-8.41,11.18-3.53,4.55-5.62,9.86-4.88,15.69.91,9.13,3.64,17.94,5.67,26.86,2.04,11.49,4.95,22.73,8,34.04,2.29,9.91,3.42,20.31-.24,30.07-2.9,8.58-7.7,16.67-8.71,25.83-1.2,10.77.27,21.94,1.75,32.65,1.91,11.15,5.38,19.63,8.49,30.44h0c.41,1.4,1.01,2.75,1.8,3.98,5.3,8.21,11.53,16.02,14.85,25.24,2.7,7.66,3.49,15.72,5.38,23.6,2.2,9.48,5.24,18.93,6.29,28.66.57,5.19.44,10.37.45,15.58-.03,4,.74,8.71-2.1,11.51-3.91,3.53-11.16.97-14.39-2.74-9.42-9.79-4.09-21.35-1.16-32.53,1.45-6.63,1.8-12.88,3.93-19.42,1.43-4.3,3.04-8.69,4.36-13"/>
        <path class="cls-13" d="M91.99,361.05c-6.09-8.81-15.61-4.82-24.31-3.94-3.98.29-10.08-.3-14.02-.92"/>
        <path class="cls-13" d="M88.2,17.34c-5.18-4.07-9.75-10.92-16.92-10.53-4.54.47-8.67,4.28-12.25,7.14-6.51,5.46-16.02,13.76-23.18,18.69"/>
        <path class="cls-12" d="M130.25,9.11c-3.5,1.29-7.01,2.41-10.45,3.14-10.13,2.2-20.99,2.96-30.96,5.37-9.49,2.44-18.38,6.69-27.89,9.14-5.95,1.75-12.5,2.84-18.94,4.02-7.01,1.29-13.28,5.18-17.5,10.91-2.74,3.73-5.54,7.41-8.33,11.07-3.53,4.55-5.62,9.86-4.88,15.69.91,9.13,3.64,17.94,5.67,26.86,2.04,11.49,4.95,22.73,8,34.04,2.29,9.91,3.42,20.31-.24,30.07-2.9,8.58-7.7,16.67-8.71,25.83-1.2,10.77.27,21.94,1.75,32.65,1.91,11.15,5.38,19.63,8.49,30.44h0c.41,1.4,1.01,2.75,1.8,3.98,5.3,8.21,11.53,16.02,14.85,25.24,2.7,7.66,3.49,15.72,5.38,23.6,2.2,9.48,5.24,18.93,6.29,28.66.57,5.19.44,10.37.45,15.58-.03,4,.74,8.71-2.1,11.51-3.91,3.53-11.16.97-14.39-2.74-9.42-9.79-4.09-21.35-1.16-32.53,1.45-6.63,1.8-12.88,3.93-19.42,1.43-4.3,3.04-8.69,4.36-13"/>
        <path class="cls-12" d="M91.99,361.05c-6.09-8.81-15.61-4.82-24.31-3.94-3.98.29-10.08-.3-14.02-.92"/>
        <path class="cls-12" d="M88.2,17.34c-5.18-4.07-9.75-10.92-16.92-10.53-4.54.47-8.67,4.28-12.25,7.14-6.51,5.46-16.02,13.76-23.18,18.69"/>
      </g>
      <g>
        <rect class="cls-7" x="56.75" y="296.23" width="1.21" height="1.21" transform="translate(5.17 -.95) rotate(1)"/>
        <rect class="cls-7" x="61.15" y="296.3" width="1.21" height="1.21" transform="translate(5.18 -1.03) rotate(1)"/>
      </g>
      <g>
        <rect x="63.33" y="342.77" width="1.21" height="1.21"/>
        <rect x="67.73" y="342.77" width="1.21" height="1.21"/>
      </g>
      <g>
        <rect class="cls-17" x="61.14" y="320.63" width="1.21" height="1.21"/>
        <rect class="cls-17" x="65.53" y="320.63" width="1.21" height="1.21"/>
      </g>
      <g>
        <line class="cls-9" x1="77.8" y1="103.16" x2="85.39" y2="98.87"/>
        <polygon class="cls-7" points="85.92 101.14 88.19 97.29 83.72 97.25 85.92 101.14"/>
      </g>
      <path class="cls-7" d="M86.03,84.31v8.08h-1.14l-2.59-4.09c-.6-.95-1.07-1.8-1.45-2.63h-.02c.1,1.09.12,2.08.12,3.33v3.38h-.98v-8.08h1.06l2.57,4.1c.56.9,1.1,1.82,1.51,2.7h.04c-.06-1.03-.08-2-.08-3.35v-3.45h.98Z"/>
      <g>
        <line class="cls-11" x1="101.02" y1="35.19" x2="101.02" y2="28.39"/>
        <path class="cls-16" d="M104.34,30.69c-1.11-.69-2.22.69-3.32,0v-2.3c1.11.69,2.22-.69,3.32,0v2.3Z"/>
      </g>
    </g>
  </g>
</svg>