<?xml version="1.0" encoding="UTF-8"?>
<svg id="Layer_2" data-name="Layer 2" xmlns="http://www.w3.org/2000/svg" xmlns:xlink="http://www.w3.org/1999/xlink" viewBox="0 0 175.59 414.28">
  <defs>
    <style>
      .cls-1 {
        fill: #9aa255;
      }

      .cls-2 {
        fill: #788448;
      }

      .cls-3 {
        stroke-miterlimit: 10;
        stroke-width: 1.19px;
      }

      .cls-3, .cls-4, .cls-5, .cls-6, .cls-7, .cls-8 {
        fill: none;
      }

      .cls-3, .cls-6 {
        stroke: #fff;
      }

      .cls-9 {
        fill: url(#New_Pattern);
      }

      .cls-9, .cls-10, .cls-11, .cls-12 {
        fill-rule: evenodd;
      }

      .cls-13 {
        fill: #fff;
      }

      .cls-4 {
        stroke: #bbb;
        stroke-width: 3.71px;
      }

      .cls-4, .cls-6, .cls-7 {
        stroke-linejoin: round;
      }

      .cls-4, .cls-6, .cls-7, .cls-8 {
        stroke-linecap: round;
      }

      .cls-6 {
        stroke-width: 2.44px;
      }

      .cls-14 {
        fill: #8d954b;
      }

      .cls-15 {
        fill: #8c984e;
      }

      .cls-10 {
        fill: #ffedcb;
      }

      .cls-7 {
        stroke: #8f8f8f;
        stroke-width: 10.59px;
      }

      .cls-8 {
        stroke: #231f20;
        stroke-miterlimit: 2;
        stroke-width: .3px;
      }

      .cls-11 {
        fill: #a9b05c;
      }

      .cls-16 {
        fill: #ec1c24;
      }

      .cls-17 {
        fill: #06c;
      }

      .cls-12 {
        fill: #5f6e38;
      }

      .cls-18 {
        clip-path: url(#clippath);
      }

      .cls-19 {
        fill: #858c48;
      }
    </style>
    <clipPath id="clippath">
      <path class="cls-5" d="M59.89,397.74c-3.61.64-14.29,2.53-21.91-3.73-4.21-3.46-5.91-8.11-6.82-11.42-6.16-22.22,3.15-55.27,6.82-69.76,1.38-5.44,4.06-21,9.42-52.12,3.49-20.25,11.05-64.18,10.72-116.22-.26-40.72-5.19-60.74,8.4-82.34,2.84-4.51,10.91-16.98,26.62-24.6,5.36-2.6,15.88-7.7,28.91-5.5,15.23,2.57,24.43,13.52,28.73,18.78,8.47,10.38,14.21,24.13,16.02,51.11,1.35,20.07-.17,37.23-7.18,76.43-6.92,38.7-10.39,58.05-17.96,84.88-7.2,25.53-14.49,43.08-29.07,78.17-2.89,6.96-11.2,26.45-28.94,43.17-5.84,5.51-13.32,11.3-23.76,13.14Z"/>
    </clipPath>
    <pattern id="New_Pattern" data-name="New Pattern" x="0" y="0" width="24" height="24" patternTransform="translate(-642.32 1261.51)" patternUnits="userSpaceOnUse" viewBox="0 0 24 24">
      <g>
        <rect class="cls-5" width="24" height="24"/>
        <rect class="cls-1" width="12" height="12"/>
        <rect class="cls-14" x="12" width="12" height="12"/>
        <rect class="cls-19" x="12" y="12" width="12" height="12"/>
        <rect class="cls-15" y="12" width="12" height="12"/>
      </g>
    </pattern>
  </defs>
  <g id="Hole_1" data-name="Hole 1">
    <g class="cls-18">
      <g>
        <g>
          <path class="cls-12" d="M41.03,414.28c7.13-.28,21.24-4.48,27.37-8.13,17.04-10.16,42.37-42.43,52.54-59.47,11-18.44,29.64-80.6,29.64-80.6l22.73-118.07,2.28-66.1-10.76-48.21-26.65-28.12L110.82,0l-30.71,8.15-17.22,24.95-11.21,60.97-5.96,75.22-11.61,112.64-8.63,72.47s-13.68,21.64-14.45,29.91c-.56,6.02,5.01,18.6,8.8,22.54,3.4,3.53,19.36,7.21,19.36,7.21,0,0,1.36.26,1.82.24Z"/>
          <path class="cls-7" d="M70.68,12.11l-9.88,96.51-4.79,46.67-1.4,11.29-8.39,86.35-1.11,9.63-5.15,42.87-.77,9.13-3.16,13.41-6.18,17.97-3.09,7.25-4.32,8.64-1.59,2.69-5.82,9.82-9.72,12.51"/>
        </g>
        <path class="cls-9" d="M138.19,140.06c-.17-7.88-1.72-17.46-2.49-24.99-.37-4.44-.06-9.05-.29-13.53-.66-9.61-7.45-16.91-13.38-23.82-2-2.18-3.29-3.67-5.74-4.27-2.23-.54-4.49,1.03-6.85,1.07-2.28.21-4.56-1.1-5.68.43-.95,1.19-1.51,4.38-2.15,7.41-1.33,6.78-2.46,14.29-2.49,21.3.11,4.25,1.5,8.32,2.34,13.12.88,4.8,1.05,9.43,1.73,14.23.42,3.11,1.09,6.06,1.45,8.92.8,5.19-.52,11.17-1.21,16.48-.82,6.21,1.17,11.9,2.79,17.76.85,3.1,1.43,6.08.75,9.2-10.21,33.87-21.24,69.9-31.3,103.43-1.25,4.22-2.1,6.6-1.44,10.21,1.16,6.99,8.43,12.58,15.53,10.43,11.73-2.99,14.36-15.76,15.93-26.12,1.59-16.19,1.07-27.38,13.08-40.25,9.56-10.47,15.45-14.39,14.99-29.85-.14-6.31,1.91-12.48,1.89-18.76-.16-5.8-2.41-11.61-3.29-17.42-3.34-14.73,5.87-21.53,5.83-34.77v-.19Z"/>
        <g>
          <polygon class="cls-11" points="104.94 77.65 103.63 75.26 102.73 72.76 102.22 69.19 101.5 66.29 100.91 64.24 99.64 62.53 98.72 61.06 97.76 58.66 96.05 55 95.67 52.78 96.37 50.95 97.97 48.7 100 47.54 101.86 46.78 104.04 46.7 105.77 46.87 108.23 47.07 110.92 48.98 112.01 51.17 113.43 51.98 116.42 53.06 119.55 54.54 121.36 55.74 123.37 57.03 125.24 59.04 126.01 61.62 125.73 64.27 123.75 65.59 122.96 66.63 120.59 68.52 119.5 69.71 117.93 71.11 116.32 72.72 115.32 75.21 114.44 76.66 112.74 78.01 110.59 78.71 108.08 79.08 104.94 77.65"/>
          <path class="cls-2" d="M104.01,47.76l1.66.17,2.19.18,2.24,1.59,1.11,2.23,1.77,1.02,3.07,1.11,2.97,1.4,1.75,1.16,1.91,1.23,1.61,1.73.64,2.13-.21,1.95-1.71,1.14-.82,1.08-2.32,1.86-1.12,1.21-1.53,1.37-1.8,1.8-1.05,2.61-.74,1.21-1.4,1.11-1.88.62-2.11.31-2.54-1.16-1.1-2.01-.84-2.32-.51-3.52-.72-2.95-.66-2.27-1.39-1.87-.82-1.31-.92-2.31-.95-2.03-.73-1.57-.31-1.79.55-1.44,1.39-1.95,1.76-1.01,1.63-.67,1.92-.07M104.07,45.63h-.15s-1.92.08-1.92.08h-.38s-.35.16-.35.16l-1.63.67-.13.05-.12.07-1.76,1.01-.4.23-.27.38-1.39,1.95-.16.22-.1.25-.55,1.44-.21.54.1.57.31,1.79.05.28.12.25.73,1.57.92,1.97.9,2.25.07.18.1.16.82,1.31.05.07.05.07,1.16,1.56.54,1.86.69,2.81.49,3.41.03.21.07.2.84,2.32.06.15.08.14,1.1,2.01.34.62.64.29,2.54,1.16.57.26.62-.09,2.11-.31.18-.03.17-.06,1.88-.62.36-.12.3-.24,1.4-1.11.29-.23.2-.32.74-1.21.09-.15.07-.16.89-2.21,1.45-1.45,1.49-1.33.08-.07.07-.08,1.01-1.09,2.2-1.76.21-.16.16-.21.6-.8,1.42-.94.83-.55.1-.99.21-1.95.04-.42-.12-.41-.64-2.13-.14-.47-.34-.36-1.61-1.73-.18-.19-.22-.14-1.91-1.23-1.72-1.14-.13-.09-.14-.07-2.97-1.4-.09-.04-.09-.03-2.9-1.05-1.06-.61-.83-1.66-.24-.48-.43-.31-2.24-1.59-.47-.34-.58-.05-2.19-.18-1.61-.17h-.15Z"/>
        </g>
        <path class="cls-11" d="M57.92,343.58c-.7-.67-2.47-1.38-3.44-1.84-.89-.4-1.59-.57-1.95.37-.96,2.54-3.79,9.98-4.86,13.08-.33,1.14.83,1.48,1.76,1.98,1.05.35,2.83,1.83,3.52.48.72-1.64,2.68-6.85,4.04-10.31.43-1.28,1.5-3.24.99-3.67l-.07-.08Z"/>
        <path class="cls-10" d="M124.93,47.39c-.29-.66-1.08-.72-1.7-.89-1.43-.28-1.28-2.49-2.21-3.31-.37-.37-.89-.69-1.42-.6-1.13.23-2.31,1.44-3.46.52-1.04-.51-1.57-2.07-2.77-2.1-1.56.21-2.77,1.72-2.49,3.32.14,3.05,4.85,4.95,7.37,5.93,1.48.32,3.18.69,4.72.27,1.2-.4,2.42-1.7,2.02-2.99l-.06-.15Z"/>
        <path class="cls-11" d="M51.21,361.05c-.69-.68-2.56-1.4-3.52-1.87-.93-.43-1.6-.55-1.95.43-.95,2.47-3.63,8.96-4.53,11.64-.19.97.97,1.3,1.78,1.74,1,.32,2.7,1.74,3.47.68.95-1.93,2.47-5.96,3.81-9.13.41-1.14,1.44-3,1.01-3.4l-.06-.08Z"/>
        <path class="cls-10" d="M104.36,180.23c-.4-.96-.98-1.89-.75-3.04.47-1.75.49-4.02-1.58-4.63-1.94-.7-4.07.85-4.02,2.92.37,2.16-.05,4.34.37,6.4.48,1.69,2.22,2.97,3.76,2.26,1.39-.57,2.82-2.22,2.27-3.75l-.05-.16Z"/>
        <path class="cls-11" d="M45.01,377.07c-.53-.63-2.09-1.14-2.99-1.62-.85-.29-1.68-1.09-2.42-.57-.81,1.27-1.9,4.65-2.63,6.33-.11.31-.2.58-.17.86.04.33.34.54.9.79,1.13.48,2.6,1.08,3.78,1.54,1.34.69,1.56-.57,2.02-1.9.38-1.5,1.68-4.03,1.56-5.33l-.05-.1Z"/>
        <path class="cls-10" d="M100.78,72.24c.2-1.41-.99-2.59-1.84-3.66-1.05-1.22-1.1-2.73-1.03-4.26.05-1.84-1.81-2.59-3.3-1.95-1.36.49-1.82,2.33-1.21,3.62.48,1.1,1.43,1.92,1.91,3.03.57,1.16.62,2.57,1.36,3.64.86,1.36,3.77,1.67,4.08-.25l.03-.18Z"/>
        <path class="cls-10" d="M128.46,69.57c-.16-1.04-1.22-1.86-2.27-1.5-1.2.31-1.69,1.73-2.58,2.45-.93.81-2.37,1-3.16,1.97-.64.74-.62,1.83.25,2.33,3.48,1.65,7.99-1.37,7.78-5.08l-.03-.17Z"/>
        <path class="cls-4" d="M44.1,398.91c2.09-10.66,10.17-33.14,14.2-43.53,2.67-6.77,4.03-10.78,4.09-17.93.17-14.1,1.63-29.24,3.72-43.4,1.02-5.45,2.58-10.81,3.78-16.23,1.82-7.86,2.65-16.16,4.09-24.04,1.74-9.51,5.13-18.39,7.56-27.76,3.08-12.42,4.97-25.34,5.64-38.12,1.52-17.9-4-36.41-.26-54.03,2.1-10.41,5.71-21.27,7.53-32.21,2.19-10.99-1.96-20.99-5.43-31.19-3.51-10.72-4.73-21.83-6.03-32.92"/>
        <path class="cls-6" d="M44.1,398.91c2.09-10.66,10.17-33.14,14.2-43.53,2.67-6.77,4.03-10.78,4.09-17.93.17-14.1,1.63-29.24,3.72-43.4,1.02-5.45,2.58-10.81,3.78-16.23,1.82-7.86,2.65-16.16,4.09-24.04,1.74-9.51,5.13-18.39,7.56-27.76,3.08-12.42,4.97-25.34,5.64-38.12,1.52-17.9-4-36.41-.26-54.03,2.1-10.41,5.71-21.27,7.53-32.21,2.19-10.99-1.96-20.99-5.43-31.19-3.51-10.72-4.73-21.83-6.03-32.92"/>
        <path class="cls-13" d="M155.96,100.37v8.56h-1.21l-2.74-4.33c-.63-1-1.13-1.91-1.54-2.78h-.02c.1,1.16.13,2.2.13,3.53v3.58h-1.04v-8.56h1.12l2.72,4.34c.6.95,1.17,1.93,1.6,2.86h.04c-.06-1.09-.09-2.12-.09-3.54v-3.66h1.04Z"/>
        <g>
          <line class="cls-3" x1="152.74" y1="112.76" x2="152.74" y2="121.98"/>
          <polygon class="cls-13" points="150.38 121.29 152.74 125.39 155.11 121.29 150.38 121.29"/>
        </g>
        <g>
          <rect x="39.38" y="378.63" width=".83" height=".83" transform="translate(151.42 14.63) rotate(23.02)"/>
          <rect x="42.14" y="379.81" width=".83" height=".83" transform="translate(152.1 13.64) rotate(23.02)"/>
        </g>
        <g>
          <rect class="cls-17" x="44.23" y="365.28" width=".83" height=".83" transform="translate(146.58 11.67) rotate(23.02)"/>
          <rect class="cls-17" x="46.99" y="366.45" width=".83" height=".83" transform="translate(147.26 10.68) rotate(23.02)"/>
        </g>
        <g>
          <rect class="cls-13" x="50.77" y="348.72" width=".83" height=".83" transform="translate(140.63 7.79) rotate(23.02)"/>
          <rect class="cls-13" x="53.53" y="349.9" width=".83" height=".83" transform="translate(141.31 6.81) rotate(23.02)"/>
        </g>
      </g>
    </g>
    <g>
      <line class="cls-8" x1="104.11" y1="59" x2="104.11" y2="52.2"/>
      <path class="cls-16" d="M107.44,54.5c-1.11-.69-2.22.69-3.32,0v-2.3c1.11.69,2.22-.69,3.32,0,0,.77,0,1.53,0,2.3Z"/>
    </g>
  </g>
</svg>