<?xml version="1.0" encoding="UTF-8"?>
<svg id="Layer_2" data-name="Layer 2" xmlns="http://www.w3.org/2000/svg" xmlns:xlink="http://www.w3.org/1999/xlink" viewBox="0 0 79.2 371.93">
  <defs>
    <style>
      .cls-1 {
        fill: #9aa255;
      }

      .cls-2 {
        fill: #788448;
      }

      .cls-3 {
        stroke: #bbb;
        stroke-width: 3.89px;
      }

      .cls-3, .cls-4, .cls-5, .cls-6, .cls-7, .cls-8 {
        fill: none;
      }

      .cls-3, .cls-6, .cls-7 {
        stroke-linecap: round;
      }

      .cls-3, .cls-7 {
        stroke-linejoin: round;
      }

      .cls-9 {
        fill: url(#New_Pattern);
      }

      .cls-9, .cls-10, .cls-11, .cls-8 {
        fill-rule: evenodd;
      }

      .cls-12 {
        fill: #fff;
      }

      .cls-5 {
        stroke-width: 1.12px;
      }

      .cls-5, .cls-7 {
        stroke: #fff;
      }

      .cls-5, .cls-8 {
        stroke-miterlimit: 10;
      }

      .cls-13 {
        fill: #5f6e38;
      }

      .cls-14 {
        fill: #8d954b;
      }

      .cls-15 {
        fill: #8c984e;
      }

      .cls-10 {
        fill: #ffedcb;
      }

      .cls-6 {
        stroke: #231f20;
        stroke-miterlimit: 2;
        stroke-width: .3px;
      }

      .cls-11 {
        fill: #a9b05c;
      }

      .cls-7 {
        stroke-width: 2.56px;
      }

      .cls-16 {
        fill: #ec1c24;
      }

      .cls-17 {
        fill: #06c;
      }

      .cls-18 {
        clip-path: url(#clippath);
      }

      .cls-8 {
        stroke: #aad3df;
        stroke-width: 1.11px;
      }

      .cls-19 {
        fill: #858c48;
      }
    </style>
    <clipPath id="clippath">
      <path class="cls-4" d="M22.02,371c-1.09-.38-6.27-2.32-10.94-10.32-7.28-12.46-5.5-26.26-5.07-29.76,2.69-22.04-1.43-44.46.16-66.6,2.73-38.04-3.88-32.15-5.67-103.31-1.6-63.67,4.35-42.33,2.45-86.57C2,52.26-.1,32.99,12.62,18.42c1.94-2.22,11.38-13.05,26.22-13.29,10.73-.17,22.13,5.22,27.87,14.32,7.43,11.77.59,22.19.4,45.77-.13,16.86,3.27,22.67,7.11,43.12,6.84,36.53,5.05,66.43,3.83,86.7-2.01,33.5-7.88,59.26-12.58,79.89-9.54,41.87-13.45,37.36-14.82,57.99-.88,13.23-.03,26.62-9.26,34.05-4.54,3.65-12.3,6.5-19.37,4.03Z"/>
    </clipPath>
    <pattern id="New_Pattern" data-name="New Pattern" x="0" y="0" width="24" height="24" patternTransform="translate(-2649.65 1235.13)" patternUnits="userSpaceOnUse" viewBox="0 0 24 24">
      <g>
        <rect class="cls-4" width="24" height="24"/>
        <rect class="cls-1" width="12" height="12"/>
        <rect class="cls-14" x="12" width="12" height="12"/>
        <rect class="cls-19" x="12" y="12" width="12" height="12"/>
        <rect class="cls-15" y="12" width="12" height="12"/>
      </g>
    </pattern>
  </defs>
  <g id="Hole_13" data-name="Hole 13">
    <g>
      <line class="cls-6" x1="43.53" y1="32.67" x2="43.53" y2="25.87"/>
      <path class="cls-16" d="M46.85,28.17c-1.11-.69-2.22.69-3.32,0v-2.3c1.11.69,2.22-.69,3.32,0v2.3Z"/>
    </g>
    <g class="cls-18">
      <path class="cls-13" d="M22.02,371c-1.09-.38-6.27-2.32-10.94-10.32-7.28-12.46-5.5-26.26-5.07-29.76,2.69-22.04-1.43-44.46.16-66.6,2.73-38.04-3.88-32.15-5.67-103.31-1.6-63.67,4.35-42.33,2.45-86.57C2,52.26-.1,32.99,12.62,18.42c1.94-2.22,11.38-13.05,26.22-13.29,10.73-.17,22.13,5.22,27.87,14.32,7.43,11.77.59,22.19.4,45.77-.13,16.86,3.27,22.67,7.11,43.12,6.84,36.53,5.05,66.43,3.83,86.7-2.01,33.5-7.88,59.26-12.58,79.89-9.54,41.87-13.45,37.36-14.82,57.99-.88,13.23-.03,26.62-9.26,34.05-4.54,3.65-12.3,6.5-19.37,4.03Z"/>
      <path class="cls-8" d="M.27,302.07c5.69,3.22,29.56,13.73,33.2,14.65,1.09.28,5.46,1.35,11.36,1.73,4.62.3,6.26-.08,12.34-.13"/>
      <path class="cls-9" d="M31.82,235.73c.83,6.63,7.56,12.43,14.29,10.26,7.57-2.83,10.71-11.89,12.39-19.14,2.55-13.73,2.56-27.31,4.33-41.03,1.8-12.06,3.06-24.19,2.99-36.02.23-11.66.36-23.91-.59-35.6-.32-4.65-1.7-8.75-2.76-13.22-1.31-6.52-3.19-12.4-5.19-18.69-2.7-9.99-3.36-20.99-2.31-31.37.07-1.81,1.25-4.66-.95-5.25-1.41-.36-3.43-.03-4.2.79-.44.63-.3,1.3-.23,2.1.65,3.52.33,7.11-.88,10.66-1.84,6.53-6.33,12.74-8.19,19.38-2.03,8.16-2.06,17.13-5.9,24.69-2.42,4.27-5.38,9.04-3.46,14.06,1.33,4,3.99,7.76,5.48,11.75,1.67,4.28,2.23,8.16,2.33,12.97.24,8.36-.35,16.93-4.36,24.41-8.06,14.55-7.43,20.23-4.09,36.29.9,5.03,1.53,9.62,1.3,14.52-.09,6.06-.91,12.24-.05,18.23l.04.21Z"/>
      <g>
        <path class="cls-11" d="M51.28,49.55c-.79,0-1.55-.17-2.28-.51-1.81-.76-3.46-1.94-5.06-3.08-1.05-.75-2.03-1.45-3.06-2.04l-.65-.39c-2.5-1.5-5.34-3.2-6.4-6l-.07-.2c-.92-2.57-.06-5.63.69-8.32l.14-.49c.15-.49.29-.97.42-1.44.65-2.27,1.31-4.62,2.98-6.5,1.45-1.67,3.86-2.67,6.45-2.67,1.1,0,2.18.19,3.11.56,3.78,1.68,4.17,5.91,4.48,9.31.05.56.1,1.1.17,1.61.23,2.79.92,4.77,2.15,6.29.35.48.7.89,1.05,1.31.76.91,1.54,1.84,2.05,2.99.89,1.87.66,4.21-.62,6.23-1.31,2.06-3.43,3.35-5.53,3.35h0Z"/>
        <path class="cls-2" d="M44.43,19.01c.95,0,1.88.16,2.7.48,3.7,1.64,3.52,6.59,3.95,10.02.21,2.51.81,4.91,2.39,6.86.96,1.33,2.27,2.53,2.94,4.05,1.63,3.44-1.55,8.01-5.13,8.01-.6,0-1.21-.13-1.8-.41-2.9-1.22-5.35-3.54-8.04-5.08-2.6-1.58-5.56-3.17-6.56-5.82l-.07-.19c-.85-2.38.1-5.42.86-8.13.8-2.57,1.33-5.43,3.16-7.51,1.31-1.51,3.51-2.29,5.61-2.29M44.43,16.79c-2.9,0-5.63,1.14-7.29,3.06-1.82,2.06-2.55,4.64-3.2,6.92-.13.47-.27.93-.41,1.39v.03s-.02.03-.02.03l-.14.48c-.8,2.85-1.71,6.09-.67,8.99l.07.2c1.21,3.19,4.22,5,6.88,6.59l.62.38h.02s.02.03.02.03c.98.56,1.95,1.25,2.97,1.98,1.64,1.17,3.33,2.38,5.28,3.21.86.4,1.77.6,2.71.6,2.48,0,4.96-1.48,6.47-3.87,1.48-2.33,1.73-5.06.68-7.3-.57-1.28-1.44-2.32-2.21-3.23-.35-.42-.68-.81-.96-1.2l-.04-.05-.04-.05c-1.09-1.34-1.69-3.13-1.9-5.64v-.05s0-.05,0-.05c-.06-.5-.11-1.03-.16-1.57-.32-3.5-.77-8.28-5.1-10.21l-.04-.02-.04-.02c-1.06-.42-2.27-.64-3.52-.64h0Z"/>
      </g>
      <path class="cls-11" d="M23.4,342.27c2.43,4.39,6.41-.11,7.4-3.47,1.01-3.29,2.74-6.51,2.92-9.94.06-4.57-5.88-5.12-8.16-1.89-2.29,3.07-2.48,7.22-2.76,10.96-.06,1.38-.05,2.92.52,4.15l.08.18Z"/>
      <path class="cls-10" d="M22.37,135.52c.14,1.77,1.79,3.67,1.96,5.5-.02,2.42-.33,4.78.07,7.25.22,2.51,1.44,4.87,3.72,5.63.83.29,1.89.2,2.43-.54.91-1.27-.15-2.93-.35-4.3-.43-2.17,1.7-3.98,2.02-6.18.27-1.31-.15-2.71-1.3-3.46-1.15-.71-2.03-1.47-1.63-2.92,1.32-5.1-6.99-7.02-6.93-1.17v.2Z"/>
      <path class="cls-11" d="M20.94,357.56c1.02,3.56,5.92,6.26,8.77,3.04,2.88-2.85,2.79-8.4.3-11.45-1.75-2.13-4.91-2.2-7.01-.57-2.82,1.95-3.01,5.75-2.12,8.78l.06.2Z"/>
      <path class="cls-11" d="M29.55,297.04c.64,1.14,2.27,1.48,3.6,1.7.96.2,2.23.35,2.93-.12,1.53-.96,1.36-2.57,1.67-4.13.14-1.98,1.02-3.83.3-5.5-.99-1.51-5.73-1.9-6.98-.67-.87,1.11-.9,3.31-1.21,4.47-.09,1.05-.65,2.87-.37,4.11l.06.15Z"/>
      <path class="cls-10" d="M54.2,26.95c-.02,2.41,3.67,3.25,3.81,5.55-.03,1.02-.56,2.07-.3,3.11.8,2.63,3.35,1.03,4.14-.78,1.08-2.02,3.74-4.16,1.8-6.47-.81-.99-2.75,0-3.59-.86-.81-.85-.76-2.52-1.89-3.12-1.68-.98-3.89.66-3.96,2.39v.17Z"/>
      <path class="cls-10" d="M30.35,51.21c.68,1.85,3.05,2.88,5.04,3.06,2.83.16,4.46,3.31,7.28,3.32,3.03.1,4.33-4.07,1.25-4.97-1-.19-2.02.14-3.03.08-3.98-.06-2.55-5.58-5.73-6.88-2.81-1.25-5.68,2.58-4.88,5.18l.07.21Z"/>
      <path class="cls-3" d="M57.78,324.45c-2.53,6.73-6.03,13.25-8.2,19.92-.96,2.84-1.85,5.77-2.86,8.58-1.66,4.64-3.96,9.35-8.26,11.95-7.02,4.53-17.74,1.7-20.26-6.59-3.82-13.2,2.6-29.42,7.51-41.85.1-.26.2-.52.28-.79h0c.75-2.35.81-4.86.2-7.25-4.31-16.98-7.16-34.26-8.09-51.83-.9-19.23-1.5-38.4-3.56-57.56-2.74-24.27-3.55-48.57-2.82-73.04.34-17.87,3.75-31.85,11.74-46.46,2.82-5.16,3.72-11.14,2.5-16.89-5.86-27.59-2.73-53.99,30.89-60.68"/>
      <path class="cls-7" d="M57.78,324.45c-2.53,6.73-6.03,13.25-8.2,19.92-.96,2.84-1.85,5.77-2.86,8.58-1.66,4.64-3.96,9.35-8.26,11.95-7.02,4.53-17.74,1.7-20.26-6.59-3.82-13.2,2.6-29.42,7.51-41.85.1-.26.2-.52.28-.79h0c.75-2.35.81-4.86.2-7.25-4.31-16.98-7.16-34.26-8.09-51.83-.9-19.23-1.5-38.4-3.56-57.56-2.74-24.27-3.55-48.57-2.82-73.04.34-17.87,3.76-31.85,11.75-46.46,2.82-5.15,3.71-11.14,2.49-16.88-5.86-27.59-2.73-53.99,30.89-60.69"/>
    </g>
    <g>
      <rect x="24.07" y="354.94" width="1" height="1"/>
      <rect x="27.7" y="354.94" width="1" height="1"/>
    </g>
    <g>
      <rect class="cls-17" x="25.88" y="332.71" width="1" height="1"/>
      <rect class="cls-17" x="29.51" y="332.71" width="1" height="1"/>
    </g>
    <g>
      <rect class="cls-12" x="31.24" y="293.78" width="1" height="1" transform="translate(5.13 -.51) rotate(1)"/>
      <rect class="cls-12" x="34.87" y="293.85" width="1" height="1" transform="translate(5.13 -.57) rotate(1)"/>
    </g>
    <path class="cls-12" d="M55.61,258.84v8.08h-1.14l-2.59-4.09c-.6-.95-1.07-1.8-1.45-2.63h-.02c.1,1.09.12,2.08.12,3.33v3.38h-.98v-8.08h1.06l2.57,4.1c.56.9,1.1,1.82,1.51,2.7h.04c-.06-1.03-.08-2-.08-3.35v-3.45h.98Z"/>
    <g>
      <line class="cls-5" x1="53.98" y1="283.35" x2="51.93" y2="274.88"/>
      <polygon class="cls-12" points="54.26 274.99 51.17 271.76 49.91 276.04 54.26 274.99"/>
    </g>
    <g>
      <line class="cls-6" x1="43.53" y1="31.57" x2="43.53" y2="24.77"/>
      <path class="cls-16" d="M46.85,27.07c-1.11-.69-2.22.69-3.32,0v-2.3c1.11.69,2.22-.69,3.32,0v2.3Z"/>
    </g>
  </g>
</svg>