<?xml version="1.0" encoding="UTF-8"?>
<svg id="Layer_2" data-name="Layer 2" xmlns="http://www.w3.org/2000/svg" xmlns:xlink="http://www.w3.org/1999/xlink" viewBox="0 0 119.8 367">
  <defs>
    <style>
      .cls-1 {
        fill: #9aa255;
      }

      .cls-2 {
        fill: #788448;
      }

      .cls-3 {
        stroke: #aad3df;
        stroke-width: 3.42px;
      }

      .cls-3, .cls-4, .cls-5, .cls-6, .cls-7, .cls-8 {
        fill: none;
      }

      .cls-9 {
        fill: url(#New_Pattern);
      }

      .cls-9, .cls-10, .cls-11, .cls-12 {
        fill-rule: evenodd;
      }

      .cls-13 {
        fill: #fff;
      }

      .cls-5 {
        stroke-miterlimit: 10;
        stroke-width: 1.12px;
      }

      .cls-5, .cls-6 {
        stroke: #fff;
      }

      .cls-14 {
        fill: #5f6e38;
      }

      .cls-15 {
        fill: #8d954b;
      }

      .cls-16 {
        fill: #8c984e;
      }

      .cls-10 {
        fill: #ffedcb;
      }

      .cls-6 {
        stroke-width: 2.63px;
      }

      .cls-6, .cls-7, .cls-8 {
        stroke-linecap: round;
      }

      .cls-6, .cls-8 {
        stroke-linejoin: round;
      }

      .cls-7 {
        stroke: #231f20;
        stroke-miterlimit: 2;
        stroke-width: .3px;
      }

      .cls-11 {
        fill: #a9b05c;
      }

      .cls-8 {
        stroke: #bbb;
        stroke-width: 4px;
      }

      .cls-17 {
        fill: #ec1c24;
      }

      .cls-18 {
        fill: #06c;
      }

      .cls-12 {
        fill: #aad3df;
      }

      .cls-19 {
        clip-path: url(#clippath);
      }

      .cls-20 {
        fill: #858c48;
      }
    </style>
    <clipPath id="clippath">
      <path class="cls-4" d="M73.99,366.7c-3.99-.98-7.03-4.31-9.82-9.65-8.68-16.61-3.77-31.19-4.49-50.54-.44-11.86-2.4-9.36-10.93-44.15-8.13-33.13-18.63-26.73-25.05-52.55-9.55-38.39-14.47-37.45-19.39-65.66C.02,119.58-2.9,102.85,4.73,84.27c1.36-3.31,18.01-26.52,36.37-43.2,5.53-5.03,9.93-14.53,18.98-24.15C76.3-.31,82.96-.16,85.06.04c5.28.52,8.83,4.06,15.82,11.03.51.51,9.66,9.73,14.27,19.05,9.05,18.28,2.51,40.66.02,50.17-5.31,20.28-5.68,47.72-6.44,102.61-.64,46.69,4.47,58.12-.6,92.14-2.89,19.38-5.5,22.08-6.93,40.82-1.5,19.7.32,30.63-8.04,40.95-.75.93-10.05,12.13-19.18,9.88Z"/>
    </clipPath>
    <pattern id="New_Pattern" data-name="New Pattern" x="0" y="0" width="24" height="24" patternTransform="translate(-3451.6 1230)" patternUnits="userSpaceOnUse" viewBox="0 0 24 24">
      <g>
        <rect class="cls-4" width="24" height="24"/>
        <rect class="cls-1" width="12" height="12"/>
        <rect class="cls-15" x="12" width="12" height="12"/>
        <rect class="cls-20" x="12" y="12" width="12" height="12"/>
        <rect class="cls-16" y="12" width="12" height="12"/>
      </g>
    </pattern>
  </defs>
  <g id="Hole_18" data-name="Hole 18">
    <g class="cls-19">
      <path class="cls-14" d="M73.99,366.7c-3.99-.98-7.03-4.31-9.82-9.65-8.68-16.61-3.77-31.19-4.49-50.54-.44-11.86-2.4-9.36-10.93-44.15-8.13-33.13-18.63-26.73-25.05-52.55-9.55-38.39-14.47-37.45-19.39-65.66C.02,119.58-2.9,102.85,4.73,84.27c1.36-3.31,18.01-26.52,36.37-43.2,5.53-5.03,9.93-14.53,18.98-24.15C76.3-.31,82.96-.16,85.06.04c5.28.52,8.83,4.06,15.82,11.03.51.51,9.66,9.73,14.27,19.05,9.05,18.28,2.51,40.66.02,50.17-5.31,20.28-5.68,47.72-6.44,102.61-.64,46.69,4.47,58.12-.6,92.14-2.89,19.38-5.5,22.08-6.93,40.82-1.5,19.7.32,30.63-8.04,40.95-.75.93-10.05,12.13-19.18,9.88Z"/>
      <path class="cls-9" d="M54.55,199.68c6.26,7.97,18.76,13.38,27.5,6.29,7.53-6.01,6.47-17.32.37-24.07-10.66-11.67-19.6-16.96-11.3-34.13,5.76-10.65,10.37-21.85,14.4-33.17,2.09-5.41,4.02-10.92,4.82-16.68,1.51-10.14-1.38-21,1.57-30.92,2.11-7.51,7.49-14.3,9.44-21.73,1.75-5.46-1.24-8.3-6.44-7.21-5.36,1.76-9.74,5.91-14.13,9.55-4.52,4.37-9.4,8.57-13.64,13.46-5.44,6.11-8.12,14.23-9.02,22.29-.76,5.19-1.12,10.19-2.7,15.22-6.02,16.72-12.1,22.03-10.05,41.73.95,8.42,1.69,16.73.94,25.13-1.27,12.78-.58,23.79,8.1,34.08l.15.17Z"/>
      <g>
        <path class="cls-11" d="M90.55,45.61c-.27,0-.54-.01-.8-.04-2.64-.2-5.17-1.81-7.5-4.8l-.14-.17c-4.21-5.37-7.11-12.32-7.96-19.06-.62-3.21,0-6.21,1.79-8.37,1.59-1.93,3.98-3.03,6.55-3.03,3.12,0,6.12,1.62,8.24,4.44,1.22,1.74,2.22,3.6,3.19,5.4,1.04,1.93,2.11,3.93,3.41,5.68l.4.61c1.71,2.59,3.64,5.53,3.5,9.02-.06,5.55-5.93,10.34-10.69,10.34h0Z"/>
        <path class="cls-2" d="M82.49,11.27c2.54,0,5.27,1.24,7.33,3.99,2.46,3.5,4.04,7.62,6.6,11.07,1.75,2.68,3.81,5.55,3.67,8.89-.05,4.77-5.13,9.24-9.55,9.24-.23,0-.45-.01-.68-.04-2.62-.2-4.9-2.03-6.73-4.36l-.14-.18c-4.08-5.2-6.89-11.86-7.72-18.5-1.22-6.27,2.72-10.12,7.2-10.12M82.49,8.99c-2.91,0-5.62,1.26-7.43,3.45-1.99,2.41-2.71,5.72-2.03,9.31.88,6.92,3.86,14.04,8.18,19.55l.14.18c2.52,3.23,5.32,4.99,8.31,5.23.29.03.59.05.88.05,5.89,0,11.74-5.67,11.83-11.47.15-3.84-1.89-6.93-3.68-9.66l-.36-.55-.04-.06-.04-.05c-1.25-1.68-2.26-3.56-3.33-5.54-.98-1.83-2-3.71-3.24-5.48l-.02-.03-.02-.03c-2.34-3.11-5.67-4.9-9.15-4.9h0Z"/>
      </g>
      <path class="cls-11" d="M70.05,355.91c1.08,3.24,4.97,4.95,7.56,2.4,4.81-4.42,4.09-22.03-5.4-18.72-1.11.57-1.95,1.65-2.47,2.97-1.28,3.9-1.1,9.25.22,13.14l.08.21Z"/>
      <path class="cls-11" d="M68.06,327.64c1.54,4.62,7.11,7.08,10.81,3.44,6.87-6.32,5.85-31.49-7.72-26.76-1.58.81-2.79,2.36-3.53,4.25-1.84,5.58-1.57,13.23.32,18.78l.12.29Z"/>
      <path class="cls-11" d="M62,283.07c5.48,6.97,17.13-1.03,11.96-8.79-4.86-7.07-16.76,1.78-12.07,8.62l.11.17Z"/>
      <path class="cls-10" d="M76.87,162.46c.85.71,2.18.78,2.97,1.49.96.8,1.35,2.29,2.54,2.85,2.35,1.33,5.81-1.21,5.57-3.79-.33-2.28-3.45-2.76-1.85-5.47.74-1.44-.25-2.86-1.88-2.69-1.52.12-2.01-.97-1.58-2.32.55-1.64.87-3.42-.6-4.78-1.89-2-5.82-1.42-5.5,1.8.13,1.9,1.48,4.09,1.1,5.94-.26.86-1.17,1.3-1.66,2.02-1.04,1.32-.51,3.74.75,4.83l.15.12Z"/>
      <path class="cls-10" d="M65.74,27.95c.94,1.13,2.37,2.22,3.93,1.83,1.47-.3,2.42-2.07,1.76-3.25-.38-.86-1.47-1.39-1.61-2.35-.24-1.15,1.25-2.31,1.27-3.56.06-1.18-.92-2.21-2.05-2.41-1.38-.31-2.15.98-3.37,1.34-6.11.92-2.28,5.26-.07,8.25l.13.15Z"/>
      <path class="cls-10" d="M73.68,46.35c1.08.95,3.19,1.82,4.53.96,1.02-.46,1.48-1.68.68-2.53-.44-.52-1.3-.82-1.23-1.62.71-2.6-2.3-1.46-1.7-3.55.08-.27.23-.61.2-.87-.5-1.61-3.06-1.51-3.95-.19-.16.21-.34.47-.48.7-1.8,2.3.21,5.19,1.8,6.96l.15.14Z"/>
      <path class="cls-3" d="M101.99,393.26c2.02-13.47.67-26.84,1.94-40.33.53-12.27,2.67-23.91,1.78-36.06-1.1-9.36-.18-19.33-2.45-28.52-2.51-9.56-8.97-17.95-14.76-25.63-5.76-7.46-11.77-15.61-17.25-22.93"/>
      <path class="cls-12" d="M-87.94,125.13c1.94,4.69,6.55,7.77,10.6,10.84,3.8,2.78,8.11,5.28,12.02,7.78,8.75,5.35,18.01,11.11,26.02,17.44,18.32,15.38,33.98,33.79,53.09,48.15,5.81,4.7,12.51,7.31,19.92,7.46,3.19.19,6.43.24,9.49.91,14.39,3.28,21.46,18,30.37,28.43,1.69,1.99,5.59,6.08,5.49,3.22-.97-4.62-4.38-9.56-7.02-13.66-6.15-9.54-13.91-18.28-21.42-26.76-4.82-5.52-7.91-12.14-9.46-19.3-3.2-12.82-4.59-26.15-11.22-37.93-4.06-7.64-10.8-13.53-16.06-20.27-9.86-12.27-6.29-27.71-6.58-42.21-.78-20.68-12.33-31.72-33.15-31.75-16.44-.33-29.02,11.12-39.67,22.4-8.96,9.43-18.36,19.56-22.12,32.3-1.47,4.59-1.96,8.57-.36,12.79l.07.17Z"/>
      <path class="cls-8" d="M77.35,382.45c10.85-17.41,12.78-38.72,10.99-58.83-.96-11.41-2.64-23.06-1.69-34.57.44-4.16,1.61-8.05,3.03-11.89.65-1.76,1.8-3.3,3.29-4.44h0c3.28-2.5,4.79-6.79,3.52-10.71-.61-1.89-1.63-3.73-2.87-5.78-2.64-4.61-3-10.12-3.04-15.48-.34-7.53,1.09-14.48,2.41-21.68,1.24-7.24,2.83-16.56,3.96-22.81,1.1-6.29.97-12.54,1.53-18.92.41-5.02,1.69-10.55,1.33-15.6-.45-10.06-10.26-16.38-11.77-26.11-2.95-18.51,15.47-28.05,12.83-45.1-.88-5.72-2.75-11.71-2.08-17.62.72-12.06,11.05-20.01,18.19-28.88,6.28-7.73,6.29-14.74,7.45-25.23.94-9.5,1.78-17.98,3.87-27.64"/>
      <path class="cls-6" d="M77.35,382.45c10.85-17.41,12.78-38.72,10.99-58.83-.96-11.41-2.64-23.06-1.69-34.57.44-4.16,1.61-8.05,3.03-11.89.65-1.76,1.8-3.3,3.29-4.44h0c3.28-2.5,4.79-6.79,3.52-10.71-.61-1.89-1.63-3.73-2.87-5.78-2.64-4.61-3-10.12-3.04-15.48-.34-7.53,1.09-14.48,2.41-21.68,1.24-7.24,2.83-16.56,3.96-22.81,1.1-6.29.97-12.54,1.53-18.92.41-5.02,1.69-10.55,1.33-15.6-.45-10.06-10.26-16.38-11.77-26.11-2.95-18.51,15.47-28.05,12.83-45.1-.88-5.72-2.75-11.71-2.08-17.62.72-12.06,11.05-20.01,18.19-28.88,6.28-7.73,6.29-14.74,7.45-25.23.94-9.5,1.78-17.98,3.87-27.64"/>
    </g>
    <g>
      <rect x="72.12" y="349.34" width="1.03" height="1.03"/>
      <rect x="75.85" y="349.34" width="1.03" height="1.03"/>
    </g>
    <g>
      <rect class="cls-18" x="72.64" y="318.81" width="1.03" height="1.03"/>
      <rect class="cls-18" x="76.36" y="318.81" width="1.03" height="1.03"/>
    </g>
    <g>
      <rect class="cls-13" x="65.34" y="277.26" width="1.03" height="1.03" transform="translate(4.84 -1.1) rotate(1)"/>
      <rect class="cls-13" x="69.07" y="277.32" width="1.03" height="1.03" transform="translate(4.85 -1.17) rotate(1)"/>
    </g>
    <path class="cls-13" d="M62.93,238.44v8.08h-1.14l-2.59-4.09c-.6-.95-1.07-1.8-1.45-2.63h-.02c.1,1.09.12,2.08.12,3.33v3.38h-.98v-8.08h1.06l2.57,4.1c.56.9,1.1,1.82,1.51,2.7h.04c-.06-1.03-.08-2-.08-3.35v-3.45h.98Z"/>
    <g>
      <line class="cls-5" x1="63.72" y1="259.55" x2="58.14" y2="252.86"/>
      <polygon class="cls-13" points="60.27 251.93 56.08 250.39 56.84 254.79 60.27 251.93"/>
    </g>
    <g>
      <line class="cls-7" x1="86.85" y1="24.74" x2="86.85" y2="17.94"/>
      <path class="cls-17" d="M90.18,20.24c-1.11-.69-2.22.69-3.32,0v-2.3c1.11.69,2.22-.69,3.32,0v2.3Z"/>
    </g>
  </g>
</svg>